<?xml version="1.0" encoding="UTF-8" standalone="no"?>
<!-- Created with Inkscape (http://www.inkscape.org/) -->

<svg
   xmlns:dc="http://purl.org/dc/elements/1.1/"
   xmlns:cc="http://creativecommons.org/ns#"
   xmlns:rdf="http://www.w3.org/1999/02/22-rdf-syntax-ns#"
   xmlns:svg="http://www.w3.org/2000/svg"
   xmlns="http://www.w3.org/2000/svg"
   xmlns:sodipodi="http://sodipodi.sourceforge.net/DTD/sodipodi-0.dtd"
   xmlns:inkscape="http://www.inkscape.org/namespaces/inkscape"
   width="13.988558"
   height="18.499805"
   viewBox="0 0 3.7011392 4.8947403"
   version="1.1"
   id="svg8"
   inkscape:version="0.92.1 r15371"
   sodipodi:docname="i_dustbox.svg"
   inkscape:export-filename="G:\suiranfesCOM\2018\files\images\map\i_dustbox.png"
   inkscape:export-xdpi="201.282"
   inkscape:export-ydpi="201.282">
  <defs
     id="defs2" />
  <sodipodi:namedview
     id="base"
     pagecolor="#ffffff"
     bordercolor="#666666"
     borderopacity="1.0"
     inkscape:pageopacity="0.0"
     inkscape:pageshadow="2"
     inkscape:zoom="31.678384"
     inkscape:cx="6.0936825"
     inkscape:cy="11.003413"
     inkscape:document-units="mm"
     inkscape:current-layer="g8099"
     showgrid="false"
     units="px"
     fit-margin-top="0"
     fit-margin-left="0"
     fit-margin-right="0"
     fit-margin-bottom="0"
     inkscape:window-width="1920"
     inkscape:window-height="965"
     inkscape:window-x="-8"
     inkscape:window-y="-8"
     inkscape:window-maximized="1" />
  <metadata
     id="metadata5">
    <rdf:RDF>
      <cc:Work
         rdf:about="">
        <dc:format>image/svg+xml</dc:format>
        <dc:type
           rdf:resource="http://purl.org/dc/dcmitype/StillImage" />
        <dc:title></dc:title>
      </cc:Work>
    </rdf:RDF>
  </metadata>
  <g
     inkscape:label="レイヤー 1"
     inkscape:groupmode="layer"
     id="layer1"
     transform="translate(-61.855593,-107.2566)">
    <g
       id="g8115"
       transform="matrix(0.35277777,0,0,-0.35277777,-40.80619,299.73717)">
      <g
         id="g8099">
        <g
           transform="translate(291.8755,544.5977)"
           id="g8097"
           style="fill:#3350aa;fill-opacity:1;stroke:#ffffff;stroke-width:1.00062994;stroke-miterlimit:4;stroke-dasharray:none;stroke-opacity:1;paint-order:markers stroke fill">
          <path
             inkscape:connector-curvature="0"
             id="path8095"
             style="fill:#3350aa;fill-opacity:1;fill-rule:evenodd;stroke:#ffffff;stroke-width:1.00062994;stroke-miterlimit:4;stroke-dasharray:none;stroke-opacity:1;paint-order:markers stroke fill"
             d="M 0,0 C -0.106,0.019 -0.208,-0.053 -0.226,-0.16 L -0.332,-0.771 C -0.351,-0.878 -0.279,-0.981 -0.174,-1 L 8.79,-2.584 c 0.106,-0.019 0.208,0.054 0.228,0.16 l 0.105,0.611 c 0.018,0.108 -0.053,0.21 -0.16,0.23 l -3.109,0.549 0.103,0.592 c 0.029,0.177 -0.085,0.345 -0.261,0.377 L 5.154,0.03 5.16,0.058 C 5.19,0.234 5.074,0.403 4.9,0.434 L 4.458,0.512 C 4.284,0.542 4.119,0.425 4.088,0.248 L 4.083,0.22 3.541,0.316 C 3.367,0.346 3.2,0.229 3.17,0.051 L 3.067,-0.541 Z" />
        </g>
        <g
           transform="translate(291.8931,541.8057)"
           id="g8093"
           style="fill:#3350aa;fill-opacity:1;stroke:#ffffff;stroke-width:1.00062994;stroke-miterlimit:4;stroke-dasharray:none;stroke-opacity:1;paint-order:markers stroke fill">
          <path
             inkscape:connector-curvature="0"
             id="path8091"
             style="fill:#3350aa;fill-opacity:1;fill-rule:evenodd;stroke:#ffffff;stroke-width:1.00062994;stroke-miterlimit:4;stroke-dasharray:none;stroke-opacity:1;paint-order:markers stroke fill"
             d="M 0,0 H 8.625 C 8.837,0 9.009,-0.171 9.009,-0.383 L 7.705,-9.184 c 0,-0.211 -0.172,-0.382 -0.384,-0.382 H 1.304 c -0.211,0 -0.383,0.171 -0.383,0.382 l -1.304,8.801 C -0.383,-0.171 -0.212,0 0,0" />
        </g>
        <g
           style="fill:#3350aa;fill-opacity:1;stroke:none;stroke-width:1.0006299;stroke-miterlimit:4;stroke-dasharray:none;stroke-opacity:1;paint-order:markers stroke fill"
           id="g4634"
           transform="translate(291.8755,544.5977)">
          <path
             d="M 0,0 C -0.106,0.019 -0.208,-0.053 -0.226,-0.16 L -0.332,-0.771 C -0.351,-0.878 -0.279,-0.981 -0.174,-1 L 8.79,-2.584 c 0.106,-0.019 0.208,0.054 0.228,0.16 l 0.105,0.611 c 0.018,0.108 -0.053,0.21 -0.16,0.23 l -3.109,0.549 0.103,0.592 c 0.029,0.177 -0.085,0.345 -0.261,0.377 L 5.154,0.03 5.16,0.058 C 5.19,0.234 5.074,0.403 4.9,0.434 L 4.458,0.512 C 4.284,0.542 4.119,0.425 4.088,0.248 L 4.083,0.22 3.541,0.316 C 3.367,0.346 3.2,0.229 3.17,0.051 L 3.067,-0.541 Z"
             style="fill:#3350aa;fill-opacity:1;fill-rule:evenodd;stroke:none;stroke-width:1.0006299;stroke-miterlimit:4;stroke-dasharray:none;stroke-opacity:1;paint-order:markers stroke fill"
             id="path4632"
             inkscape:connector-curvature="0" />
        </g>
      </g>
      <g
         id="g8113">
        <g
           transform="translate(294.2925,540.7192)"
           id="g8103">
          <path
             inkscape:connector-curvature="0"
             id="path8101"
             style="fill:#ffffff;fill-opacity:1;fill-rule:evenodd;stroke:none"
             d="m 0,0 c 0.217,0 0.392,-0.176 0.392,-0.392 v -6.609 c 0,-0.216 -0.175,-0.391 -0.392,-0.391 -0.215,0 -0.391,0.175 -0.391,0.391 v 6.609 C -0.391,-0.176 -0.215,0 0,0" />
        </g>
        <g
           transform="translate(296.207,540.7192)"
           id="g8107">
          <path
             inkscape:connector-curvature="0"
             id="path8105"
             style="fill:#ffffff;fill-opacity:1;fill-rule:evenodd;stroke:none"
             d="m 0,0 c 0.215,0 0.391,-0.176 0.391,-0.392 v -6.609 c 0,-0.216 -0.176,-0.391 -0.391,-0.391 -0.217,0 -0.393,0.175 -0.393,0.391 v 6.609 C -0.393,-0.176 -0.217,0 0,0" />
        </g>
        <g
           transform="translate(297.9888,540.7192)"
           id="g8111">
          <path
             inkscape:connector-curvature="0"
             id="path8109"
             style="fill:#ffffff;fill-opacity:1;fill-rule:evenodd;stroke:none"
             d="m 0,0 c 0.215,0 0.392,-0.176 0.392,-0.392 v -6.609 c 0,-0.216 -0.177,-0.391 -0.392,-0.391 -0.217,0 -0.391,0.175 -0.391,0.391 v 6.609 C -0.391,-0.176 -0.217,0 0,0" />
        </g>
      </g>
    </g>
  </g>
</svg>
