<svg xmlns="http://www.w3.org/2000/svg" width="16.958" height="19.573" viewBox="0 0 4.487 5.179"><path d="M3.292 2.32c.085 0 .169.008.25.02a1.782 1.782 0 1 0-3.49-.506c.001.9.667 1.64 1.532 1.763.219-.738.9-1.277 1.708-1.277" fill="#2744a0"/><path d="M3.616 1.834a1.782 1.782 0 1 1-3.564 0 1.782 1.782 0 0 1 3.564 0z" fill="none" stroke="#231f20" stroke-width=".105834"/><path d="M2.968 3.211l1.377 1.863" fill="none" stroke="#231f20" stroke-width=".35278"/><path d="M2.164 1.031h-.006a7.782 7.782 0 0 1-.903-.076c-.07-.01-.102-.068-.102-.128 0-.068.042-.138.119-.138a5.94 5.94 0 0 0 .903.078c.075.002.11.06.11.122 0 .07-.042.142-.12.142M1.45 2.443l-.02.002a.147.147 0 0 1-.149-.15c0-.058.034-.112.104-.118.605-.063.814-.285.814-.495 0-.206-.12-.294-.397-.294-.199 0-.44.068-.695.172a.131.131 0 0 1-.054.012c-.082 0-.138-.084-.138-.162 0-.05.024-.098.076-.12a2.44 2.44 0 0 1 .807-.159c.443 0 .68.19.68.557 0 .403-.351.685-1.028.755" fill="#fff"/></svg>