<?xml version="1.0" encoding="UTF-8" standalone="no"?>
<!-- Created with Inkscape (http://www.inkscape.org/) -->

<svg
   xmlns:dc="http://purl.org/dc/elements/1.1/"
   xmlns:cc="http://creativecommons.org/ns#"
   xmlns:rdf="http://www.w3.org/1999/02/22-rdf-syntax-ns#"
   xmlns:svg="http://www.w3.org/2000/svg"
   xmlns="http://www.w3.org/2000/svg"
   xmlns:sodipodi="http://sodipodi.sourceforge.net/DTD/sodipodi-0.dtd"
   xmlns:inkscape="http://www.inkscape.org/namespaces/inkscape"
   width="1200"
   height="630"
   viewBox="0 0 317.49999 166.68751"
   version="1.1"
   id="svg8"
   inkscape:version="0.92.1 r15371"
   sodipodi:docname="banner.svg"
   inkscape:export-filename="G:\vytf\files\images\icons\banner.png"
   inkscape:export-xdpi="96"
   inkscape:export-ydpi="96">
  <defs
     id="defs2" />
  <sodipodi:namedview
     id="base"
     pagecolor="#ffffff"
     bordercolor="#666666"
     borderopacity="1.0"
     inkscape:pageopacity="0.0"
     inkscape:pageshadow="2"
     inkscape:zoom="0.32"
     inkscape:cx="0.1386935"
     inkscape:cy="586.4852"
     inkscape:document-units="mm"
     inkscape:current-layer="layer1"
     showgrid="false"
     units="px"
     inkscape:snap-page="true"
     inkscape:snap-bbox="true"
     inkscape:snap-bbox-edge-midpoints="true"
     inkscape:bbox-nodes="true"
     inkscape:snap-bbox-midpoints="true"
     inkscape:window-width="1920"
     inkscape:window-height="965"
     inkscape:window-x="-8"
     inkscape:window-y="-8"
     inkscape:window-maximized="1" />
  <metadata
     id="metadata5">
    <rdf:RDF>
      <cc:Work
         rdf:about="">
        <dc:format>image/svg+xml</dc:format>
        <dc:type
           rdf:resource="http://purl.org/dc/dcmitype/StillImage" />
        <dc:title />
      </cc:Work>
    </rdf:RDF>
  </metadata>
  <g
     inkscape:label="レイヤー 1"
     inkscape:groupmode="layer"
     id="layer1"
     transform="translate(0,-130.31248)">
    <rect
       style="opacity:1;fill:#ffffff;fill-opacity:1;fill-rule:nonzero;stroke:none;stroke-width:4.829;stroke-linecap:round;stroke-linejoin:miter;stroke-miterlimit:4;stroke-dasharray:none;stroke-dashoffset:0;stroke-opacity:1;paint-order:markers stroke fill"
       id="rect4520"
       width="317.5"
       height="166.6875"
       x="0"
       y="130.31248" />
    <g
       aria-label="Live Characters Wiki"
       style="font-style:normal;font-variant:normal;font-weight:200;font-stretch:normal;font-size:26.80452919px;line-height:90.59931183px;font-family:'Mgen+ 1c';-inkscape-font-specification:'Mgen+ 1c Ultra-Light';letter-spacing:0px;word-spacing:0px;fill:#000000;fill-opacity:1;stroke:none;stroke-width:1.78696847px;stroke-linecap:butt;stroke-linejoin:miter;stroke-opacity:1"
       id="text4502">
      <path
         d="m 36.12713,203.99665 v 18.40194 h 9.973169 v 1.17793 H 34.765962 v -19.57987 z"
         style="font-style:normal;font-variant:normal;font-weight:200;font-stretch:normal;font-family:'Mgen+ 1c';-inkscape-font-specification:'Mgen+ 1c Ultra-Light';stroke-width:1.78696847px"
         id="path4504" />
      <path
         d="m 51.099972,223.57652 v -13.92579 h 1.334992 v 13.92579 z m 0,-17.35488 v -2.74851 h 1.334992 v 2.74851 z"
         style="font-style:normal;font-variant:normal;font-weight:200;font-stretch:normal;font-family:'Mgen+ 1c';-inkscape-font-specification:'Mgen+ 1c Ultra-Light';stroke-width:1.78696847px"
         id="path4506" />
      <path
         d="m 58.193749,209.65073 4.790263,13.08815 h 0.07853 l 4.790262,-13.08815 h 1.361168 l -5.339965,13.92579 h -1.753812 l -5.339965,-13.92579 z"
         style="font-style:normal;font-variant:normal;font-weight:200;font-stretch:normal;font-family:'Mgen+ 1c';-inkscape-font-specification:'Mgen+ 1c Ultra-Light';stroke-width:1.78696847px"
         id="path4508" />
      <path
         d="m 72.302773,216.87539 q 0.07853,5.91584 5.313789,5.91584 2.067927,0 4.083502,-0.83764 v 1.15176 q -2.172632,0.75911 -4.162031,0.73294 -3.219685,0 -4.894968,-1.80617 -1.649107,-1.83234 -1.649107,-5.41849 0,-3.87409 1.675283,-5.54938 1.70146,-1.70146 4.345266,-1.70146 5.497022,0 5.497022,7.04143 v 0.47117 z m 0,-1.04705 h 8.952294 q -0.07853,-5.4185 -4.24056,-5.4185 -4.449971,0 -4.711734,5.4185 z"
         style="font-style:normal;font-variant:normal;font-weight:200;font-stretch:normal;font-family:'Mgen+ 1c';-inkscape-font-specification:'Mgen+ 1c Ultra-Light';stroke-width:1.78696847px"
         id="path4510" />
      <path
         d="m 100.20671,222.68653 q 2.30351,0 4.60702,-0.91617 v 1.28264 q -2.22498,0.81146 -4.68555,0.78529 -3.638509,0 -5.863494,-2.61763 -2.224986,-2.64381 -2.224986,-7.43407 0,-4.73791 2.120281,-7.38172 2.146456,-2.66998 5.811138,-2.66998 2.486751,0 4.711731,0.81146 v 1.23029 q -2.32969,-0.88999 -4.6332,-0.88999 -3.114982,0 -4.89497,2.35586 -1.753812,2.35587 -1.753812,6.54408 0,4.16203 1.832341,6.54407 1.832341,2.35587 4.973501,2.35587 z"
         style="font-style:normal;font-variant:normal;font-weight:200;font-stretch:normal;font-family:'Mgen+ 1c';-inkscape-font-specification:'Mgen+ 1c Ultra-Light';stroke-width:1.78696847px"
         id="path4512" />
      <path
         d="m 110.57252,203.47313 v 8.69053 h 0.0524 q 1.93705,-2.77469 4.76409,-2.80087 2.40822,0 3.50762,1.36117 1.12558,1.36117 1.12558,4.55468 v 8.29788 h -1.30881 v -8.11465 q 0,-2.95792 -0.83764,-3.95262 -0.81147,-1.02088 -2.74851,-1.02088 -1.51823,0 -3.03646,1.49205 -1.51822,1.46588 -1.51822,2.95792 v 8.63818 h -1.28264 v -20.10339 z"
         style="font-style:normal;font-variant:normal;font-weight:200;font-stretch:normal;font-family:'Mgen+ 1c';-inkscape-font-specification:'Mgen+ 1c Ultra-Light';stroke-width:1.78696847px"
         id="path4514" />
      <path
         d="m 132.74385,214.85982 v -1.02088 q 0,-1.85852 -0.83764,-2.59145 -0.81147,-0.75912 -2.8794,-0.75912 -2.51292,0 -4.92114,0.9947 v -1.23028 q 2.32969,-0.89 4.92114,-0.89 2.74852,0 3.8741,1.07323 1.12558,1.04705 1.12558,3.69086 v 9.44964 h -1.23029 v -2.72233 h -0.0523 q -0.73294,1.41352 -2.14646,2.19881 -1.38734,0.78529 -3.14115,0.78529 -1.85852,0 -2.95793,-1.09941 -1.0994,-1.12558 -1.0994,-2.9841 0,-0.9947 0.36647,-1.80616 0.36647,-0.83764 1.17793,-1.5444 0.81147,-0.73294 2.35587,-1.12558 1.5444,-0.41882 3.69086,-0.41882 z m 0,0.99469 h -1.75381 q -6.30849,0 -6.30849,3.76939 0,1.41352 0.81146,2.25116 0.83765,0.83764 2.19881,0.83764 2.09411,0 3.55998,-1.43969 1.49205,-1.46587 1.49205,-3.76939 z"
         style="font-style:normal;font-variant:normal;font-weight:200;font-stretch:normal;font-family:'Mgen+ 1c';-inkscape-font-specification:'Mgen+ 1c Ultra-Light';stroke-width:1.78696847px"
         id="path4516" />
      <path
         d="m 139.36645,209.65073 v 3.50763 h 0.0524 q 0.81147,-1.62293 2.40822,-2.56528 1.62293,-0.94235 3.74321,-0.94235 h 0.52353 v 1.15176 h -0.52353 q -2.69616,0 -4.44997,1.70146 -1.72763,1.70146 -1.72763,4.44997 v 6.6226 h -1.33499 v -13.92579 z"
         style="font-style:normal;font-variant:normal;font-weight:200;font-stretch:normal;font-family:'Mgen+ 1c';-inkscape-font-specification:'Mgen+ 1c Ultra-Light';stroke-width:1.78696847px"
         id="path4518" />
      <path
         d="m 157.61133,214.85982 v -1.02088 q 0,-1.85852 -0.83765,-2.59145 -0.81146,-0.75912 -2.87939,-0.75912 -2.51292,0 -4.92114,0.9947 v -1.23028 q 2.32969,-0.89 4.92114,-0.89 2.74851,0 3.87409,1.07323 1.12558,1.04705 1.12558,3.69086 v 9.44964 h -1.23028 v -2.72233 h -0.0523 q -0.73294,1.41352 -2.14646,2.19881 -1.38734,0.78529 -3.14116,0.78529 -1.85851,0 -2.95792,-1.09941 -1.0994,-1.12558 -1.0994,-2.9841 0,-0.9947 0.36647,-1.80616 0.36646,-0.83764 1.17793,-1.5444 0.81146,-0.73294 2.35587,-1.12558 1.5444,-0.41882 3.69085,-0.41882 z m 0,0.99469 h -1.75382 q -6.30848,0 -6.30848,3.76939 0,1.41352 0.81146,2.25116 0.83764,0.83764 2.19881,0.83764 2.0941,0 3.55998,-1.43969 1.49205,-1.46587 1.49205,-3.76939 z"
         style="font-style:normal;font-variant:normal;font-weight:200;font-stretch:normal;font-family:'Mgen+ 1c';-inkscape-font-specification:'Mgen+ 1c Ultra-Light';stroke-width:1.78696847px"
         id="path4520" />
      <path
         d="m 168.21272,210.4622 q -4.86879,0 -4.89496,6.15143 0,6.12525 5.15673,6.12525 1.91087,0 3.61233,-0.70676 v 1.20411 q -1.77999,0.62823 -3.66468,0.60206 -3.11498,0 -4.79027,-1.80617 -1.6491,-1.83234 -1.6491,-5.41849 0,-3.5338 1.59675,-5.39232 1.62293,-1.85852 4.58085,-1.85852 1.93705,0 3.79557,0.60206 v 1.17793 q -1.83235,-0.68058 -3.74322,-0.68058 z"
         style="font-style:normal;font-variant:normal;font-weight:200;font-stretch:normal;font-family:'Mgen+ 1c';-inkscape-font-specification:'Mgen+ 1c Ultra-Light';stroke-width:1.78696847px"
         id="path4522" />
      <path
         d="m 179.91353,205.06988 v 5.10438 h 5.26144 v 1.07323 h -5.26144 v 8.21935 q 0,2.04176 0.57588,2.66999 0.57588,0.62823 2.19881,0.62823 1.15176,0 2.19881,-0.39265 v 1.12558 q -1.07323,0.3403 -2.38204,0.3403 -2.22499,0 -3.06263,-0.91617 -0.83764,-0.91618 -0.83764,-3.37675 v -8.29788 h -3.16734 v -1.07323 h 3.16734 v -5.10438 z"
         style="font-style:normal;font-variant:normal;font-weight:200;font-stretch:normal;font-family:'Mgen+ 1c';-inkscape-font-specification:'Mgen+ 1c Ultra-Light';stroke-width:1.78696847px"
         id="path4524" />
      <path
         d="m 189.46788,216.87539 q 0.0785,5.91584 5.31379,5.91584 2.06793,0 4.0835,-0.83764 v 1.15176 q -2.17263,0.75911 -4.16203,0.73294 -3.21968,0 -4.89497,-1.80617 -1.6491,-1.83234 -1.6491,-5.41849 0,-3.87409 1.67528,-5.54938 1.70146,-1.70146 4.34526,-1.70146 5.49703,0 5.49703,7.04143 v 0.47117 z m 0,-1.04705 h 8.95229 q -0.0785,-5.4185 -4.24056,-5.4185 -4.44997,0 -4.71173,5.4185 z"
         style="font-style:normal;font-variant:normal;font-weight:200;font-stretch:normal;font-family:'Mgen+ 1c';-inkscape-font-specification:'Mgen+ 1c Ultra-Light';stroke-width:1.78696847px"
         id="path4526" />
      <path
         d="m 204.38838,209.65073 v 3.50763 h 0.0523 q 0.81146,-1.62293 2.40822,-2.56528 1.62293,-0.94235 3.74321,-0.94235 h 0.52353 v 1.15176 h -0.52353 q -2.69616,0 -4.44997,1.70146 -1.72764,1.70146 -1.72764,4.44997 v 6.6226 h -1.33499 v -13.92579 z"
         style="font-style:normal;font-variant:normal;font-weight:200;font-stretch:normal;font-family:'Mgen+ 1c';-inkscape-font-specification:'Mgen+ 1c Ultra-Light';stroke-width:1.78696847px"
         id="path4528" />
      <path
         d="m 218.73298,210.43602 q -1.75381,0 -2.69616,0.65441 -0.91617,0.65441 -0.91617,1.83234 0,1.07323 0.73294,1.77999 0.75911,0.68058 2.77468,1.0994 2.69616,0.60206 3.79557,1.57058 1.12558,0.94235 1.12558,2.66998 0,1.77999 -1.33499,2.80087 -1.30882,0.9947 -3.69086,0.9947 -2.38205,0 -4.55468,-0.9947 v -1.15176 q 2.17263,1.07323 4.44997,1.07323 1.85852,0 2.85322,-0.70676 0.9947,-0.73294 0.9947,-2.01558 0,-1.07323 -0.78529,-1.83234 -0.78529,-0.75911 -3.01027,-1.25646 -2.48675,-0.52353 -3.55998,-1.4397 -1.07323,-0.94234 -1.07323,-2.46057 0,-1.70146 1.25646,-2.69616 1.28264,-0.9947 3.55998,-0.9947 2.30351,0 4.44997,0.75912 v 1.15175 q -2.25116,-0.83764 -4.37144,-0.83764 z"
         style="font-style:normal;font-variant:normal;font-weight:200;font-stretch:normal;font-family:'Mgen+ 1c';-inkscape-font-specification:'Mgen+ 1c Ultra-Light';stroke-width:1.78696847px"
         id="path4530" />
      <path
         d="m 234.93612,203.99665 3.90027,18.21871 h 0.0524 l 4.26674,-18.21871 h 1.80616 l 4.24056,18.21871 h 0.0523 l 3.90027,-18.21871 h 1.33499 l -4.39761,19.57987 h -1.80617 L 244.07165,205.384 h -0.0785 l -4.21439,18.19252 h -1.80616 l -4.39762,-19.57987 z"
         style="font-style:normal;font-variant:normal;font-weight:200;font-stretch:normal;font-family:'Mgen+ 1c';-inkscape-font-specification:'Mgen+ 1c Ultra-Light';stroke-width:1.78696847px"
         id="path4532" />
      <path
         d="m 259.09683,223.57652 v -13.92579 h 1.33499 v 13.92579 z m 0,-17.35488 v -2.74851 h 1.33499 v 2.74851 z"
         style="font-style:normal;font-variant:normal;font-weight:200;font-stretch:normal;font-family:'Mgen+ 1c';-inkscape-font-specification:'Mgen+ 1c Ultra-Light';stroke-width:1.78696847px"
         id="path4534" />
      <path
         d="m 267.29001,203.47313 v 12.43374 h 0.0523 l 7.64348,-6.25614 h 1.72764 l -8.21936,6.70113 8.32406,7.22466 h -1.70146 l -7.77436,-6.80583 h -0.0523 v 6.80583 h -1.30881 v -20.10339 z"
         style="font-style:normal;font-variant:normal;font-weight:200;font-stretch:normal;font-family:'Mgen+ 1c';-inkscape-font-specification:'Mgen+ 1c Ultra-Light';stroke-width:1.78696847px"
         id="path4536" />
      <path
         d="m 281.39904,223.57652 v -13.92579 h 1.33499 v 13.92579 z m 0,-17.35488 v -2.74851 h 1.33499 v 2.74851 z"
         style="font-style:normal;font-variant:normal;font-weight:200;font-stretch:normal;font-family:'Mgen+ 1c';-inkscape-font-specification:'Mgen+ 1c Ultra-Light';stroke-width:1.78696847px"
         id="path4538" />
    </g>
  </g>
</svg>
