<?xml version="1.0" encoding="UTF-8" standalone="no"?>
<!-- Created with Inkscape (http://www.inkscape.org/) -->

<svg
   xmlns:dc="http://purl.org/dc/elements/1.1/"
   xmlns:cc="http://creativecommons.org/ns#"
   xmlns:rdf="http://www.w3.org/1999/02/22-rdf-syntax-ns#"
   xmlns:svg="http://www.w3.org/2000/svg"
   xmlns="http://www.w3.org/2000/svg"
   xmlns:sodipodi="http://sodipodi.sourceforge.net/DTD/sodipodi-0.dtd"
   xmlns:inkscape="http://www.inkscape.org/namespaces/inkscape"
   width="600"
   height="600"
   viewBox="0 0 158.75 158.75"
   version="1.1"
   id="svg8"
   inkscape:version="0.92.1 r15371"
   sodipodi:docname="icon.svg"
   inkscape:export-filename="G:\suiranfesCOM\2018\files\images\icons\icon600x600.png"
   inkscape:export-xdpi="96"
   inkscape:export-ydpi="96">
  <defs
     id="defs2">
    <filter
       id="filter4771"
       inkscape:label="Drop Shadow"
       style="color-interpolation-filters:sRGB">
      <feFlood
         id="feFlood4773"
         result="flood"
         flood-color="rgb(0,0,0)"
         flood-opacity="1" />
      <feComposite
         id="feComposite4775"
         result="composite1"
         operator="in"
         in2="SourceGraphic"
         in="flood" />
      <feGaussianBlur
         id="feGaussianBlur4777"
         result="blur"
         stdDeviation="5"
         in="composite1" />
      <feOffset
         id="feOffset4779"
         result="offset"
         dy="0"
         dx="0" />
      <feComposite
         id="feComposite4781"
         result="composite2"
         operator="over"
         in2="offset"
         in="SourceGraphic" />
    </filter>
    <filter
       id="filter4758"
       inkscape:label="Drop Shadow"
       style="color-interpolation-filters:sRGB">
      <feFlood
         id="feFlood4760"
         result="flood"
         flood-color="rgb(0,0,0)"
         flood-opacity="1" />
      <feComposite
         id="feComposite4762"
         result="composite1"
         operator="in"
         in2="SourceGraphic"
         in="flood" />
      <feGaussianBlur
         id="feGaussianBlur4764"
         result="blur"
         stdDeviation="5"
         in="composite1" />
      <feOffset
         id="feOffset4766"
         result="offset"
         dy="0"
         dx="0" />
      <feComposite
         id="feComposite4768"
         result="composite2"
         operator="over"
         in2="offset"
         in="SourceGraphic" />
    </filter>
    <filter
       id="filter4746"
       inkscape:label="Drop Shadow"
       style="color-interpolation-filters:sRGB">
      <feFlood
         id="feFlood4748"
         result="flood"
         flood-color="rgb(0,0,0)"
         flood-opacity="1" />
      <feComposite
         id="feComposite4750"
         result="composite1"
         operator="in"
         in2="SourceGraphic"
         in="flood" />
      <feGaussianBlur
         id="feGaussianBlur4752"
         result="blur"
         stdDeviation="5"
         in="composite1" />
      <feOffset
         id="feOffset4754"
         result="offset"
         dy="0"
         dx="0" />
      <feComposite
         id="feComposite4756"
         result="composite2"
         operator="over"
         in2="offset"
         in="SourceGraphic" />
    </filter>
    <filter
       id="filter4734"
       inkscape:label="Drop Shadow"
       style="color-interpolation-filters:sRGB">
      <feFlood
         id="feFlood4736"
         result="flood"
         flood-color="rgb(0,0,0)"
         flood-opacity="1" />
      <feComposite
         id="feComposite4738"
         result="composite1"
         operator="in"
         in2="SourceGraphic"
         in="flood" />
      <feGaussianBlur
         id="feGaussianBlur4740"
         result="blur"
         stdDeviation="5"
         in="composite1" />
      <feOffset
         id="feOffset4742"
         result="offset"
         dy="0"
         dx="0" />
      <feComposite
         id="feComposite4744"
         result="composite2"
         operator="over"
         in2="offset"
         in="SourceGraphic" />
    </filter>
    <filter
       id="filter4207"
       inkscape:label="Drop Shadow"
       style="color-interpolation-filters:sRGB">
      <feFlood
         id="feFlood4209"
         result="flood"
         flood-color="rgb(0,0,0)"
         flood-opacity="1" />
      <feComposite
         id="feComposite4211"
         result="composite1"
         operator="in"
         in2="SourceGraphic"
         in="flood" />
      <feGaussianBlur
         id="feGaussianBlur4213"
         result="blur"
         stdDeviation="5"
         in="composite1" />
      <feOffset
         id="feOffset4215"
         result="offset"
         dy="0"
         dx="0" />
      <feComposite
         id="feComposite4217"
         result="composite2"
         operator="over"
         in2="offset"
         in="SourceGraphic" />
    </filter>
  </defs>
  <sodipodi:namedview
     id="base"
     pagecolor="#ffffff"
     bordercolor="#666666"
     borderopacity="1.0"
     inkscape:pageopacity="0.0"
     inkscape:pageshadow="2"
     inkscape:zoom="0.7"
     inkscape:cx="-320.70913"
     inkscape:cy="410.92445"
     inkscape:document-units="mm"
     inkscape:current-layer="layer1"
     showgrid="false"
     units="px"
     inkscape:snap-bbox="true"
     inkscape:bbox-nodes="true"
     inkscape:snap-bbox-edge-midpoints="true"
     inkscape:snap-bbox-midpoints="true"
     inkscape:snap-midpoints="true"
     inkscape:snap-object-midpoints="true"
     inkscape:snap-text-baseline="true"
     inkscape:snap-center="true"
     inkscape:snap-page="true"
     inkscape:window-width="1920"
     inkscape:window-height="965"
     inkscape:window-x="-8"
     inkscape:window-y="-8"
     inkscape:window-maximized="1"
     showguides="false" />
  <metadata
     id="metadata5">
    <rdf:RDF>
      <cc:Work
         rdf:about="">
        <dc:format>image/svg+xml</dc:format>
        <dc:type
           rdf:resource="http://purl.org/dc/dcmitype/StillImage" />
        <dc:title />
      </cc:Work>
    </rdf:RDF>
  </metadata>
  <g
     inkscape:label="レイヤー 1"
     inkscape:groupmode="layer"
     id="layer1"
     transform="translate(0,-138.24998)">
    <rect
       style="opacity:1;fill:#00e0ed;fill-opacity:0.87647057;fill-rule:nonzero;stroke:none;stroke-width:7.9375;stroke-linecap:round;stroke-linejoin:round;stroke-miterlimit:4;stroke-dasharray:none;stroke-dashoffset:0;stroke-opacity:1;paint-order:stroke fill markers"
       id="rect4601"
       width="158.75"
       height="158.75"
       x="0"
       y="138.24998" />
    <path
       style="opacity:1;fill:#00e0ed;fill-opacity:0.87647057;fill-rule:nonzero;stroke:none;stroke-width:30;stroke-linecap:round;stroke-linejoin:round;stroke-miterlimit:4;stroke-dasharray:none;stroke-dashoffset:0;stroke-opacity:1;paint-order:stroke fill markers"
       d="M 0 0 L 0 600 L 600 600 L 600 0 L 0 0 z M 300.19531 96.220703 L 375.20508 171.23242 L 225.18359 171.23242 L 300.19531 96.220703 z M 168.05469 188.20508 L 431.73633 188.20508 L 431.73633 327.21094 C 413.85293 311.31474 395.97125 295.41769 378.08789 279.52148 C 388.67541 268.93495 399.26092 258.34708 409.84961 247.76172 L 342.35547 247.76172 C 328.20239 235.18035 314.04863 222.59997 299.89648 210.01758 C 285.74433 222.59997 271.58862 235.18035 257.43555 247.76172 L 190.15039 247.76172 C 200.70665 258.31465 211.26134 268.87168 221.81641 279.42578 C 203.89628 295.35441 185.97481 311.28231 168.05469 327.21094 L 168.05469 188.20508 z M 221.45117 260.72656 L 378.54883 260.72656 C 352.36547 286.90943 326.18335 313.09057 300 339.27344 C 273.81713 313.09057 247.63405 286.90943 221.45117 260.72656 z M 168.14453 327.56836 L 269.95898 327.56836 C 278.59818 336.20753 287.23776 344.84712 295.87695 353.48633 C 287.13327 362.23 278.39017 370.97312 269.64648 379.7168 L 190.21484 379.7168 C 203.4549 392.9535 216.69277 406.19373 229.93164 419.43164 C 209.33631 440.02746 188.73986 460.62297 168.14453 481.21875 L 168.14453 459.41016 L 168.14453 327.56836 z M 330.03906 327.56836 L 431.82812 327.56836 L 431.82812 481.21875 C 411.25859 460.6492 390.6887 440.07932 370.11914 419.50977 C 383.38424 406.24563 396.64777 392.97976 409.91406 379.7168 L 330.32617 379.7168 C 321.58726 370.97789 312.84828 362.23895 304.10938 353.5 C 312.75286 344.85607 321.39557 336.21233 330.03906 327.56836 z M 221.51562 392.68164 L 378.61328 392.68164 C 352.43041 418.86451 326.24732 445.04764 300.06445 471.23047 C 273.88158 445.04764 247.69849 418.86451 221.51562 392.68164 z "
       id="rect4533"
       transform="matrix(0.26458333,0,0,0.26458333,0,138.24998)" />
    <g
       aria-label="翠巒祭"
       style="font-style:normal;font-variant:normal;font-weight:500;font-stretch:normal;font-size:40.98340607px;line-height:68.30567932px;font-family:'Gen Shin Gothic';-inkscape-font-specification:'Gen Shin Gothic Medium';letter-spacing:0px;word-spacing:0px;fill:#fffc32;fill-opacity:1;stroke:none;stroke-width:2.73222709px;stroke-linecap:butt;stroke-linejoin:miter;stroke-opacity:1"
       id="text4505">
      <path
         d="m 39.972496,223.76268 v 0.96055 h 9.405372 q -1.801029,-1.20068 -5.563177,-3.12178 -1.600915,1.48085 -3.522012,2.44139 z m -14.84848,0.96055 h 9.925669 v -1.761 h 4.002286 q -1.240709,-1.0406 -2.161235,-1.56089 4.2024,-1.80103 5.763292,-4.84277 H 32.087994 l 0.960548,0.20011 q -0.400228,0.96055 -0.84048,1.60092 2.641509,1.44082 4.122354,2.60148 l -2.921668,2.68154 q -1.4008,-1.20069 -3.481989,-2.4414 -1.96112,1.96112 -4.802743,3.52201 z m 24.453966,-23.41337 h -6.523726 q 1.921098,1.12064 3.161806,2.36135 l -2.201257,2.2813 3.64208,-1.08061 0.520297,3.12178 -1.000571,0.3602 q 0.800457,0.04 1.801028,0.04 0.600343,-0.04 0.600343,-0.5203 z m -18.890788,6.80389 -0.400229,0.16009 q 0.320183,0 0.720411,0 0.440252,-0.04 0.480275,-0.04 0.640365,0 0.640365,-0.5203 v -6.40366 h -6.323611 q 2.041166,1.28073 3.08176,2.40137 l -2.361349,2.36135 q 0.56032,-0.16009 1.761006,-0.5203 1.240709,-0.3602 1.921097,-0.52029 z m 25.334468,16.60948 v 3.88222 H 39.972496 v 5.36306 h -4.922811 v -5.36306 H 19.320702 v -3.88222 h 5.403086 q -2.001143,-1.80103 -3.321897,-2.48141 5.162948,-2.12122 7.204114,-5.68325 h -7.044023 v -3.76215 h 13.487703 v -1.88107 l -0.200114,0.08 q -1.280732,0.56032 -5.363063,0.56032 -0.360206,-1.36077 -1.000572,-2.64151 -1.080617,0.36021 -3.201828,1.16067 -2.121212,0.80045 -3.08176,1.12064 l -1.841052,-3.52201 q 0.920526,-0.20012 5.88336,-1.5609 -1.320754,-1.36077 -4.122354,-3.24185 l 1.600914,-1.56089 h -2.641508 v -3.6821 h 15.448823 v 10.08576 q 0,1.68096 -0.480275,2.36135 h 3.001715 l -1.280732,-2.36135 q 1.240709,-0.28016 5.763292,-1.60092 -1.240709,-1.2407 -4.242423,-3.24185 l 1.600914,-1.56089 h -2.681531 v -3.6821 h 15.849051 v 10.24585 q 0,1.4008 -0.360205,2.12121 -0.360206,0.72041 -1.280732,1.12064 -1.320754,0.56032 -5.162948,0.56032 -0.240138,-0.96055 -1.200686,-2.88164 -1.000572,0.3602 -3.08176,1.16066 -2.041166,0.80046 -3.001715,1.12064 v 1.72098 h 14.008001 v 3.76215 h -7.044023 l 0.28016,0.04 q -0.400229,1.12064 -1.040595,2.12121 4.722698,2.08119 6.883932,3.48199 l -3.241852,2.52144 z"
         style="font-style:normal;font-variant:normal;font-weight:bold;font-stretch:normal;font-family:'Gen Shin Gothic';-inkscape-font-specification:'Gen Shin Gothic Bold';fill:#fffc32;fill-opacity:1;stroke-width:2.73222709px"
         id="path4549" />
      <path
         d="m 83.037091,196.74726 v 2.60148 h -9.485417 v -2.60148 z m -18.530583,23.97369 v -7.08405 q -0.800457,4.08233 -2.441394,6.68382 -1.440823,-1.08062 -2.881646,-1.80103 1.4008,-2.16123 2.081189,-6.52373 l 3.241851,0.68039 v -1.80103 l -4.722697,0.24014 -0.320183,-3.48199 h 2.52144 q 0.120069,-0.12007 1.720983,-2.08119 -1.560891,-1.52086 -4.122354,-3.24185 l 1.881074,-2.8016 q 0.56032,0.32019 0.84048,0.5203 1.68096,-2.64151 2.321326,-4.32247 l 3.64208,1.24071 q -2.961692,4.28245 -3.401943,4.84277 0.640366,0.52029 1.040594,0.84048 1.240709,-1.80103 1.881074,-2.92167 l 3.602058,1.52087 q -3.682103,4.60262 -5.283018,6.36363 l 2.52144,-0.04 q -0.160091,-0.24014 -0.400228,-0.68039 -0.240137,-0.48028 -0.28016,-0.56032 l 2.761577,-1.28073 q 1.96112,3.04173 2.681531,5.28301 l -2.961691,1.44083 q -0.320183,-0.96055 -0.440251,-1.20069 l -1.68096,0.08 v 2.32132 l 2.681531,-1.08061 q 1.480846,2.60148 2.081189,5.04288 l -3.001715,1.32075 q -0.28016,-1.64094 -1.761005,-4.96283 v 7.44425 z m 24.133783,7.72441 v -6.76386 h 4.722697 v 12.04688 h -4.722697 v -1.08062 H 68.548817 v 1.28073 h -4.562606 v -12.0869 h 4.562606 v 6.60377 h 7.604343 v -8.44482 h 4.602628 v 8.44482 z m -12.04688,-12.20697 h 3.281874 v -1.80103 h -3.281874 z m 17.970263,-5.76329 -2.161234,0.16009 v 10.08576 h -3.762149 v -7.5243 q -0.84048,4.24242 -2.641508,6.92395 -1.320755,-0.92052 -2.52144,-1.60091 v 1.08062 h -3.602058 v -0.72041 h -3.281874 v 0.72041 h -3.481989 v -7.76444 h 10.365921 v 6.00343 q 1.240708,-2.20126 1.801028,-5.76329 l 3.36192,0.72041 v -1.9211 l -4.802743,0.24014 -0.320183,-3.48199 h 2.441395 q 0.360205,-0.3602 1.96112,-2.16123 -1.640937,-1.52087 -3.562035,-2.8016 v 0.68039 h -12.32704 v -2.92167 h 12.32704 v 1.08062 l 1.360778,-2.00115 0.84048,0.48028 q 1.640937,-2.48142 2.361348,-4.28245 l 3.64208,1.24071 q -2.441394,3.48199 -3.481988,4.80274 0.920525,0.72041 1.12064,0.92053 0.200114,-0.32018 0.920525,-1.36078 0.760435,-1.08062 1.080617,-1.60091 l 3.562035,1.52087 q -3.161806,3.88221 -5.563177,6.36363 l 2.881645,-0.04 q -0.760434,-1.32076 -0.800457,-1.36078 l 2.8016,-1.36078 q 2.161235,2.92167 2.961692,5.40309 l -2.961692,1.52087 q -0.04002,-0.16009 -0.520297,-1.28073 z m -2.161234,2.60148 2.961691,-1.12064 q 1.761006,3.12178 2.681532,6.20354 l -3.08176,1.4008 q -0.720412,-2.72155 -2.561463,-6.4837 z m -18.930812,-2.40137 v -2.56146 h 9.685532 v 2.56146 z m 9.685532,-6.24357 v 2.56147 h -9.685532 v -2.56147 z"
         style="font-style:normal;font-variant:normal;font-weight:bold;font-stretch:normal;font-family:'Gen Shin Gothic';-inkscape-font-specification:'Gen Shin Gothic Bold';fill:#fffc32;fill-opacity:1;stroke-width:2.73222709px"
         id="path4551" />
      <path
         d="m 107.93131,223.28241 4.84276,1.36078 q -1.4008,2.52144 -3.60205,4.88279 -2.20126,2.36134 -4.48256,3.92224 -1.68096,-1.68096 -4.00229,-3.20183 4.84277,-2.8016 7.24414,-6.96398 z m 27.37563,-1.00057 h -13.08747 v 6.92395 q 0,1.76101 -0.5203,2.68153 -0.48027,0.96055 -1.72098,1.44083 -1.84105,0.72041 -6.92396,0.64036 -0.32018,-1.84105 -1.64093,-4.28244 1.4008,0.04 3.00171,0.08 1.64094,0 2.00114,-0.04 0.88051,0 0.88051,-0.64037 v -6.80388 h -13.1275 v -4.36249 h 31.13778 z m -9.60548,3.3219 4.04231,-2.32133 q 5.36306,4.16238 8.12464,7.64437 l -4.3625,2.68153 q -2.48141,-3.56204 -7.80445,-8.00457 z m -17.73013,-21.21212 -1.48084,1.48085 q 2.2813,1.56089 3.64208,2.72155 0.76043,-0.76043 1.48084,-1.68096 -1.68096,-1.32075 -3.64208,-2.52144 z m 6.92396,-2.96169 h -4.52259 l -0.48027,0.60034 q 1.48084,0.80046 3.60206,2.28131 0.84048,-1.52087 1.4008,-2.88165 z m -0.28016,8.84505 h 10.80617 q -3.28188,-4.16238 -5.32304,-10.3259 -1.84105,6.08348 -5.48313,10.3259 z m 16.84962,-8.20468 h -5.84334 q 1.24071,2.52144 2.68153,4.36249 1.52087,-1.76101 3.16181,-4.36249 z m 3.56203,-4.2024 3.16181,2.12121 q -2.84162,5.44311 -6.92396,9.56546 3.3219,2.84162 8.16467,4.36249 -1.80103,1.68096 -3.04174,4.12236 -5.24299,-1.9211 -8.76501,-5.32304 v 1.92109 h -15.44882 v -1.80103 q -3.88222,3.48199 -9.56546,5.68325 -1.20069,-2.52144 -2.56146,-3.80217 4.16237,-1.32076 7.52429,-3.8422 -1.88107,-1.761 -3.48199,-2.92166 -0.24013,0.16009 -0.68038,0.48027 -0.44026,0.32018 -0.68039,0.48027 -1.16067,-1.88107 -3.001717,-3.12178 6.203547,-3.92224 9.085187,-10.04574 l 4.52258,0.76044 q -0.56032,1.12064 -0.8805,1.68096 h 4.12236 l 0.84048,-0.16009 2.36134,1.00057 q -0.12006,-0.36021 -0.32018,-1.0406 -0.16009,-0.72041 -0.24014,-1.04059 l 4.16238,-0.84048 q 0.60034,2.40137 1.88108,5.28302 v -3.24185 h 8.80502 z"
         style="font-style:normal;font-variant:normal;font-weight:bold;font-stretch:normal;font-family:'Gen Shin Gothic';-inkscape-font-specification:'Gen Shin Gothic Bold';fill:#fffc32;fill-opacity:1;stroke-width:2.73222709px"
         id="path4553" />
    </g>
    <circle
       style="opacity:1;fill:none;fill-opacity:1;fill-rule:nonzero;stroke:#ffffff;stroke-width:8.3490448;stroke-linecap:round;stroke-linejoin:round;stroke-miterlimit:4;stroke-dasharray:none;stroke-dashoffset:0;stroke-opacity:1;paint-order:stroke fill markers"
       id="path4511"
       cx="79.375"
       cy="217.62498"
       r="68.671799" />
    <g
       aria-label="Super Crew"
       style="font-style:normal;font-variant:normal;font-weight:500;font-stretch:normal;font-size:25.59385681px;line-height:19.24671745px;font-family:'Gen Shin Gothic';-inkscape-font-specification:'Gen Shin Gothic Medium';text-align:center;letter-spacing:0px;word-spacing:0px;text-anchor:middle;fill:#fffc32;fill-opacity:1;stroke:none;stroke-width:1.7062571px;stroke-linecap:butt;stroke-linejoin:miter;stroke-opacity:1"
       id="text4515">
      <path
         d="m 35.540973,252.01463 q 0,-1.11223 -0.574862,-1.6746 -0.562365,-0.57486 -2.062005,-1.18721 -2.736843,-1.03726 -3.936555,-2.42442 -1.199713,-1.39967 -1.199713,-3.29921 0,-2.29945 1.624611,-3.68662 1.637107,-1.39966 4.149004,-1.39966 1.674598,0 2.986783,0.71233 1.312185,0.69983 2.012017,1.98702 0.712329,1.28719 0.712329,2.9243 h -3.661621 q 0,-1.27469 -0.549868,-1.93703 -0.537371,-0.67484 -1.562125,-0.67484 -0.962269,0 -1.49964,0.57486 -0.537371,0.56236 -0.537371,1.52463 0,0.74982 0.599856,1.36218 0.599856,0.59985 2.12449,1.2497 2.661861,0.96227 3.861573,2.36193 1.212209,1.39966 1.212209,3.56164 0,2.37443 -1.512137,3.71161 -1.512137,1.33718 -4.111513,1.33718 -1.762077,0 -3.211729,-0.72482 -1.449652,-0.72483 -2.274455,-2.07451 -0.812305,-1.34967 -0.812305,-3.18673 h 3.686616 q 0,1.57462 0.612353,2.28695 0.612353,0.71233 1.99952,0.71233 1.924538,0 1.924538,-2.03701 z"
         style="font-style:normal;font-variant:normal;font-weight:bold;font-stretch:normal;font-family:'Roboto Condensed';-inkscape-font-specification:'Roboto Condensed, Bold';text-align:center;letter-spacing:-1.30405247px;text-anchor:middle;fill:#fffc32;fill-opacity:1;stroke-width:1.7062571px"
         id="path4530" />
      <path
         d="m 46.871388,255.55128 q -1.099736,1.48714 -2.949292,1.48714 -1.862053,0 -2.824322,-1.27469 -0.962269,-1.28719 -0.962269,-3.7366 v -8.7604 h 3.536651 v 8.84787 q 0.02499,1.97453 1.312185,1.97453 1.212209,0 1.74958,-1.04975 v -9.77265 h 3.561645 v 13.52175 h -3.324202 z"
         style="font-style:normal;font-variant:normal;font-weight:bold;font-stretch:normal;font-family:'Roboto Condensed';-inkscape-font-specification:'Roboto Condensed, Bold';text-align:center;letter-spacing:-1.30405247px;text-anchor:middle;fill:#fffc32;fill-opacity:1;stroke-width:1.7062571px"
         id="path4532" />
      <path
         d="m 62.050879,250.4525 q 0,3.18674 -1.099736,4.88633 -1.087239,1.69959 -3.24922,1.69959 -1.649604,0 -2.649364,-1.33718 v 6.28599 h -3.536651 v -18.7205 h 3.274214 l 0.12497,1.2372 q 1.012257,-1.48714 2.761837,-1.48714 2.161981,0 3.24922,1.57462 1.099736,1.57462 1.12473,4.82384 z m -3.524154,-0.88728 q 0,-1.96203 -0.437395,-2.77434 -0.424898,-0.8123 -1.449652,-0.8123 -1.087239,0 -1.587119,0.91228 v 6.33598 q 0.474886,0.87479 1.612113,0.87479 1.049748,0 1.449652,-0.88729 0.412401,-0.88729 0.412401,-2.76184 z"
         style="font-style:normal;font-variant:normal;font-weight:bold;font-stretch:normal;font-family:'Roboto Condensed';-inkscape-font-specification:'Roboto Condensed, Bold';text-align:center;letter-spacing:-1.30405247px;text-anchor:middle;fill:#fffc32;fill-opacity:1;stroke-width:1.7062571px"
         id="path4534" />
      <path
         d="m 68.369996,257.03842 q -2.724346,0 -4.248981,-1.62461 -1.524634,-1.62461 -1.524634,-4.64888 v -1.07474 q 0,-3.19924 1.399664,-4.93632 1.399664,-1.73708 4.011538,-1.73708 2.549388,0 3.836579,1.63711 1.287191,1.62461 1.312185,4.82384 v 1.73708 h -7.035811 q 0.07498,1.49964 0.662341,2.19947 0.587359,0.68734 1.812065,0.68734 1.774574,0 2.961789,-1.21221 l 1.387167,2.13699 q -0.649844,0.89978 -1.887047,1.46214 -1.237203,0.54987 -2.686855,0.54987 z m -2.224466,-8.29801 h 3.536651 v -0.32492 q -0.02499,-1.21221 -0.399904,-1.83706 -0.37491,-0.62485 -1.299688,-0.62485 -0.924778,0 -1.349676,0.66234 -0.412401,0.66235 -0.487383,2.12449 z"
         style="font-style:normal;font-variant:normal;font-weight:bold;font-stretch:normal;font-family:'Roboto Condensed';-inkscape-font-specification:'Roboto Condensed, Bold';text-align:center;letter-spacing:-1.30405247px;text-anchor:middle;fill:#fffc32;fill-opacity:1;stroke-width:1.7062571px"
         id="path4536" />
      <path
         d="m 80.525213,246.67841 -1.174718,-0.1 q -1.449652,0 -1.962029,1.2747 v 8.93535 h -3.549148 v -13.52175 h 3.336699 l 0.09998,1.46215 q 0.837299,-1.71209 2.311945,-1.71209 0.599856,0 0.974766,0.16246 z"
         style="font-style:normal;font-variant:normal;font-weight:bold;font-stretch:normal;font-family:'Roboto Condensed';-inkscape-font-specification:'Roboto Condensed, Bold';text-align:center;letter-spacing:-1.30405247px;text-anchor:middle;fill:#fffc32;fill-opacity:1;stroke-width:1.7062571px"
         id="path4538" />
      <path
         d="m 98.149753,250.72744 q -0.137467,3.11175 -1.74958,4.71137 -1.612113,1.59961 -4.548908,1.59961 -3.086759,0 -4.736363,-2.02451 -1.637107,-2.03701 -1.637107,-5.79861 v -3.06176 q 0,-3.7491 1.699592,-5.77362 1.699592,-2.03701 4.723866,-2.03701 2.974286,0 4.511417,1.6621 1.549628,1.6621 1.762077,4.77386 h -3.686615 q -0.04999,-1.92454 -0.599856,-2.64937 -0.537371,-0.73732 -1.987023,-0.73732 -1.474646,0 -2.086999,1.03725 -0.612353,1.02475 -0.649844,3.38669 v 3.43667 q 0,2.71185 0.599856,3.72411 0.612353,1.01225 2.086999,1.01225 1.449652,0 1.99952,-0.69983 0.549868,-0.71233 0.62485,-2.56188 z"
         style="font-style:normal;font-variant:normal;font-weight:bold;font-stretch:normal;font-family:'Roboto Condensed';-inkscape-font-specification:'Roboto Condensed, Bold';text-align:center;letter-spacing:-1.30405247px;text-anchor:middle;fill:#fffc32;fill-opacity:1;stroke-width:1.7062571px"
         id="path4540" />
      <path
         d="m 105.6061,246.67841 -1.17472,-0.1 q -1.44965,0 -1.96203,1.2747 v 8.93535 h -3.549145 v -13.52175 h 3.336695 l 0.1,1.46215 q 0.8373,-1.71209 2.31194,-1.71209 0.59986,0 0.97477,0.16246 z"
         style="font-style:normal;font-variant:normal;font-weight:bold;font-stretch:normal;font-family:'Roboto Condensed';-inkscape-font-specification:'Roboto Condensed, Bold';text-align:center;letter-spacing:-1.30405247px;text-anchor:middle;fill:#fffc32;fill-opacity:1;stroke-width:1.7062571px"
         id="path4542" />
      <path
         d="m 111.53781,257.03842 q -2.72434,0 -4.24898,-1.62461 -1.52463,-1.62461 -1.52463,-4.64888 v -1.07474 q 0,-3.19924 1.39966,-4.93632 1.39967,-1.73708 4.01154,-1.73708 2.54939,0 3.83658,1.63711 1.28719,1.62461 1.31218,4.82384 v 1.73708 h -7.03581 q 0.075,1.49964 0.66234,2.19947 0.58736,0.68734 1.81207,0.68734 1.77457,0 2.96179,-1.21221 l 1.38716,2.13699 q -0.64984,0.89978 -1.88704,1.46214 -1.23721,0.54987 -2.68686,0.54987 z m -2.22446,-8.29801 H 112.85 v -0.32492 q -0.025,-1.21221 -0.39991,-1.83706 -0.37491,-0.62485 -1.29969,-0.62485 -0.92477,0 -1.34967,0.66234 -0.4124,0.66235 -0.48738,2.12449 z"
         style="font-style:normal;font-variant:normal;font-weight:bold;font-stretch:normal;font-family:'Roboto Condensed';-inkscape-font-specification:'Roboto Condensed, Bold';text-align:center;letter-spacing:-1.30405247px;text-anchor:middle;fill:#fffc32;fill-opacity:1;stroke-width:1.7062571px"
         id="path4544" />
      <path
         d="m 126.86727,250.85241 1.21221,-7.58568 h 3.38668 l -2.79932,13.52175 h -2.9368 l -1.91204,-7.82312 -1.91204,7.82312 h -2.94929 l -2.79933,-13.52175 h 3.39918 l 1.19971,7.59817 1.79957,-7.59817 h 2.5119 z"
         style="font-style:normal;font-variant:normal;font-weight:bold;font-stretch:normal;font-family:'Roboto Condensed';-inkscape-font-specification:'Roboto Condensed, Bold';text-align:center;letter-spacing:-1.30405247px;text-anchor:middle;fill:#fffc32;fill-opacity:1;stroke-width:1.7062571px"
         id="path4546" />
    </g>
    <g
       aria-label="66TH"
       style="font-style:normal;font-variant:normal;font-weight:500;font-stretch:normal;font-size:32.52000809px;line-height:24.45521927px;font-family:'Gen Shin Gothic';-inkscape-font-specification:'Gen Shin Gothic Medium';text-align:center;letter-spacing:0px;word-spacing:0px;text-anchor:middle;fill:#fffc32;fill-opacity:1;stroke:none;stroke-width:2.16800022px;stroke-linecap:butt;stroke-linejoin:miter;stroke-opacity:1"
       id="text4615">
      <path
         d="m 58.978914,167.02835 v 3.81094 h -0.254062 q -2.524747,0.0159 -4.017364,1.52438 -1.476739,1.49261 -1.794317,4.19203 1.444981,-1.65141 3.620391,-1.65141 2.508868,0 4.001486,2.14366 1.508496,2.14365 1.508496,5.7164 0,2.27069 -0.857461,4.09676 -0.857461,1.82608 -2.413594,2.84233 -1.540255,1.00037 -3.493361,1.00037 -3.144024,0 -5.049493,-2.52475 -1.88959,-2.52474 -1.88959,-6.79617 v -1.66729 q 0,-3.82681 1.190918,-6.7009 1.206797,-2.87408 3.461602,-4.41433 2.270684,-1.55614 5.287677,-1.57202 z m -3.858575,11.59161 q -0.857461,0 -1.444981,0.53988 -0.57164,0.53988 -0.857461,1.33383 v 1.61965 q 0,2.44535 0.651036,3.65215 0.651035,1.20679 1.714922,1.20679 1.079766,0 1.730801,-1.15916 0.651035,-1.17504 0.651035,-3.00111 0,-1.85783 -0.682793,-3.01699 -0.666914,-1.17504 -1.762559,-1.17504 z"
         style="font-style:normal;font-variant:normal;font-weight:bold;font-stretch:normal;font-family:'Roboto Condensed';-inkscape-font-specification:'Roboto Condensed, Bold';text-align:center;letter-spacing:-1.65695202px;text-anchor:middle;fill:#fffc32;fill-opacity:1;stroke-width:2.16800022px"
         id="path4521" />
      <path
         d="m 73.772513,167.02835 v 3.81094 H 73.51845 q -2.524747,0.0159 -4.017364,1.52438 -1.476739,1.49261 -1.794317,4.19203 1.444981,-1.65141 3.620391,-1.65141 2.508868,0 4.001486,2.14366 1.508496,2.14365 1.508496,5.7164 0,2.27069 -0.857461,4.09676 -0.857461,1.82608 -2.413594,2.84233 -1.540255,1.00037 -3.49336,1.00037 -3.144025,0 -5.049494,-2.52475 -1.88959,-2.52474 -1.88959,-6.79617 v -1.66729 q 0,-3.82681 1.190918,-6.7009 1.206797,-2.87408 3.461602,-4.41433 2.270685,-1.55614 5.287678,-1.57202 z m -3.858576,11.59161 q -0.857461,0 -1.44498,0.53988 -0.571641,0.53988 -0.857462,1.33383 v 1.61965 q 0,2.44535 0.651036,3.65215 0.651035,1.20679 1.714922,1.20679 1.079766,0 1.730801,-1.15916 0.651036,-1.17504 0.651036,-3.00111 0,-1.85783 -0.682794,-3.01699 -0.666914,-1.17504 -1.762559,-1.17504 z"
         style="font-style:normal;font-variant:normal;font-weight:bold;font-stretch:normal;font-family:'Roboto Condensed';-inkscape-font-specification:'Roboto Condensed, Bold';text-align:center;letter-spacing:-1.65695202px;text-anchor:middle;fill:#fffc32;fill-opacity:1;stroke-width:2.16800022px"
         id="path4523" />
      <path
         d="m 93.170995,171.15687 h -5.716408 v 19.22936 h -4.684278 v -19.22936 h -5.621135 v -3.89033 h 16.021821 z"
         style="font-style:normal;font-variant:normal;font-weight:bold;font-stretch:normal;font-family:'Roboto Condensed';-inkscape-font-specification:'Roboto Condensed, Bold';text-align:center;letter-spacing:-1.65695202px;text-anchor:middle;fill:#fffc32;fill-opacity:1;stroke-width:2.16800022px"
         id="path4525" />
      <path
         d="m 110.40995,190.38623 h -4.65252 v -9.89256 h -6.891451 v 9.89256 h -4.6684 v -23.11969 h 4.6684 v 9.35268 h 6.891451 v -9.35268 h 4.65252 z"
         style="font-style:normal;font-variant:normal;font-weight:bold;font-stretch:normal;font-family:'Roboto Condensed';-inkscape-font-specification:'Roboto Condensed, Bold';text-align:center;letter-spacing:-1.65695202px;text-anchor:middle;fill:#fffc32;fill-opacity:1;stroke-width:2.16800022px"
         id="path4527" />
    </g>
  </g>
</svg>
