<?xml version="1.0" encoding="UTF-8" standalone="no"?>
<!-- Created with Inkscape (http://www.inkscape.org/) -->

<svg
   xmlns:dc="http://purl.org/dc/elements/1.1/"
   xmlns:cc="http://creativecommons.org/ns#"
   xmlns:rdf="http://www.w3.org/1999/02/22-rdf-syntax-ns#"
   xmlns:svg="http://www.w3.org/2000/svg"
   xmlns="http://www.w3.org/2000/svg"
   xmlns:sodipodi="http://sodipodi.sourceforge.net/DTD/sodipodi-0.dtd"
   xmlns:inkscape="http://www.inkscape.org/namespaces/inkscape"
   width="600"
   height="600"
   viewBox="0 0 158.75 158.75"
   version="1.1"
   id="svg8"
   inkscape:version="0.92.1 r15371"
   sodipodi:docname="logo.svg"
   inkscape:export-filename="G:\suiranfesCOM\2018\files\images\icons\logo1024x1024.png"
   inkscape:export-xdpi="163.84"
   inkscape:export-ydpi="163.84">
  <defs
     id="defs2">
    <filter
       id="filter4771"
       inkscape:label="Drop Shadow"
       style="color-interpolation-filters:sRGB">
      <feFlood
         id="feFlood4773"
         result="flood"
         flood-color="rgb(0,0,0)"
         flood-opacity="1" />
      <feComposite
         id="feComposite4775"
         result="composite1"
         operator="in"
         in2="SourceGraphic"
         in="flood" />
      <feGaussianBlur
         id="feGaussianBlur4777"
         result="blur"
         stdDeviation="5"
         in="composite1" />
      <feOffset
         id="feOffset4779"
         result="offset"
         dy="0"
         dx="0" />
      <feComposite
         id="feComposite4781"
         result="composite2"
         operator="over"
         in2="offset"
         in="SourceGraphic" />
    </filter>
    <filter
       id="filter4758"
       inkscape:label="Drop Shadow"
       style="color-interpolation-filters:sRGB">
      <feFlood
         id="feFlood4760"
         result="flood"
         flood-color="rgb(0,0,0)"
         flood-opacity="1" />
      <feComposite
         id="feComposite4762"
         result="composite1"
         operator="in"
         in2="SourceGraphic"
         in="flood" />
      <feGaussianBlur
         id="feGaussianBlur4764"
         result="blur"
         stdDeviation="5"
         in="composite1" />
      <feOffset
         id="feOffset4766"
         result="offset"
         dy="0"
         dx="0" />
      <feComposite
         id="feComposite4768"
         result="composite2"
         operator="over"
         in2="offset"
         in="SourceGraphic" />
    </filter>
    <filter
       id="filter4746"
       inkscape:label="Drop Shadow"
       style="color-interpolation-filters:sRGB">
      <feFlood
         id="feFlood4748"
         result="flood"
         flood-color="rgb(0,0,0)"
         flood-opacity="1" />
      <feComposite
         id="feComposite4750"
         result="composite1"
         operator="in"
         in2="SourceGraphic"
         in="flood" />
      <feGaussianBlur
         id="feGaussianBlur4752"
         result="blur"
         stdDeviation="5"
         in="composite1" />
      <feOffset
         id="feOffset4754"
         result="offset"
         dy="0"
         dx="0" />
      <feComposite
         id="feComposite4756"
         result="composite2"
         operator="over"
         in2="offset"
         in="SourceGraphic" />
    </filter>
    <filter
       id="filter4734"
       inkscape:label="Drop Shadow"
       style="color-interpolation-filters:sRGB">
      <feFlood
         id="feFlood4736"
         result="flood"
         flood-color="rgb(0,0,0)"
         flood-opacity="1" />
      <feComposite
         id="feComposite4738"
         result="composite1"
         operator="in"
         in2="SourceGraphic"
         in="flood" />
      <feGaussianBlur
         id="feGaussianBlur4740"
         result="blur"
         stdDeviation="5"
         in="composite1" />
      <feOffset
         id="feOffset4742"
         result="offset"
         dy="0"
         dx="0" />
      <feComposite
         id="feComposite4744"
         result="composite2"
         operator="over"
         in2="offset"
         in="SourceGraphic" />
    </filter>
    <filter
       id="filter4207"
       inkscape:label="Drop Shadow"
       style="color-interpolation-filters:sRGB">
      <feFlood
         id="feFlood4209"
         result="flood"
         flood-color="rgb(0,0,0)"
         flood-opacity="1" />
      <feComposite
         id="feComposite4211"
         result="composite1"
         operator="in"
         in2="SourceGraphic"
         in="flood" />
      <feGaussianBlur
         id="feGaussianBlur4213"
         result="blur"
         stdDeviation="5"
         in="composite1" />
      <feOffset
         id="feOffset4215"
         result="offset"
         dy="0"
         dx="0" />
      <feComposite
         id="feComposite4217"
         result="composite2"
         operator="over"
         in2="offset"
         in="SourceGraphic" />
    </filter>
  </defs>
  <sodipodi:namedview
     id="base"
     pagecolor="#ffffff"
     bordercolor="#666666"
     borderopacity="1.0"
     inkscape:pageopacity="0.0"
     inkscape:pageshadow="2"
     inkscape:zoom="0.49497475"
     inkscape:cx="-396.36444"
     inkscape:cy="462.52427"
     inkscape:document-units="mm"
     inkscape:current-layer="layer1"
     showgrid="false"
     units="px"
     inkscape:snap-bbox="true"
     inkscape:bbox-nodes="true"
     inkscape:snap-bbox-edge-midpoints="true"
     inkscape:snap-bbox-midpoints="true"
     inkscape:snap-midpoints="true"
     inkscape:snap-object-midpoints="true"
     inkscape:snap-text-baseline="true"
     inkscape:snap-center="true"
     inkscape:snap-page="true"
     inkscape:window-width="1920"
     inkscape:window-height="965"
     inkscape:window-x="-8"
     inkscape:window-y="-8"
     inkscape:window-maximized="1" />
  <metadata
     id="metadata5">
    <rdf:RDF>
      <cc:Work
         rdf:about="">
        <dc:format>image/svg+xml</dc:format>
        <dc:type
           rdf:resource="http://purl.org/dc/dcmitype/StillImage" />
        <dc:title />
      </cc:Work>
    </rdf:RDF>
  </metadata>
  <g
     inkscape:label="レイヤー 1"
     inkscape:groupmode="layer"
     id="layer1"
     transform="translate(0,-138.24998)">
    <rect
       style="opacity:1;fill:#00e0ed;fill-opacity:0.74831462;fill-rule:nonzero;stroke:none;stroke-width:7.9375;stroke-linecap:round;stroke-linejoin:round;stroke-miterlimit:4;stroke-dasharray:none;stroke-dashoffset:0;stroke-opacity:1;paint-order:stroke fill markers"
       id="rect4601"
       width="158.75"
       height="158.75"
       x="0"
       y="138.24998" />
    <path
       style="opacity:1;fill:#00e0ed;fill-opacity:1;fill-rule:nonzero;stroke:none;stroke-width:7.9375;stroke-linecap:round;stroke-linejoin:round;stroke-miterlimit:4;stroke-dasharray:none;stroke-dashoffset:0;stroke-opacity:1;paint-order:stroke fill markers"
       d="m 3e-6,138.24998 v 158.75 H 158.75 v -158.75 z m 79.426677,25.45839 19.84633,19.84685 H 59.579829 Z m -34.962207,24.33754 h 69.765767 v 36.77863 c -4.73165,-4.20587 -9.46285,-8.41196 -14.19449,-12.61784 2.80129,-2.80102 5.60204,-5.60239 8.40363,-8.4031 H 90.58155 c -3.74466,-3.32882 -7.48951,-6.65738 -11.233936,-9.98647 -3.744423,3.32909 -7.489788,6.65765 -11.234455,9.98647 H 50.310624 c 2.793014,2.79213 5.58561,5.58534 8.378304,8.37778 -4.741366,4.21445 -9.483085,8.42871 -14.224455,12.64316 z m 14.127819,19.18797 h 41.565418 c -6.92768,6.92755 -13.85503,13.85465 -20.782706,20.7822 -6.927551,-6.92755 -13.855157,-13.85465 -20.782712,-20.7822 z m -14.104049,17.68523 h 26.938408 c 2.285788,2.28578 4.571677,4.57167 6.857463,6.85746 -2.313432,2.31343 -4.626711,4.62671 -6.940145,6.94015 H 50.327683 c 3.503096,3.50221 7.005616,7.00535 10.5084,10.50788 -5.449181,5.44931 -10.89866,10.89854 -16.34784,16.34784 v -5.77019 z m 42.834597,0 h 26.93168 v 40.65333 c -5.44235,-5.44236 -10.8848,-10.88481 -16.32716,-16.32717 3.50972,-3.50947 7.01903,-7.0194 10.52907,-10.52855 H 87.3988 c -2.31217,-2.31217 -4.62436,-4.62435 -6.93652,-6.93653 2.28692,-2.28704 4.57363,-4.57403 6.86056,-6.86108 z M 58.609344,242.147 H 100.17476 C 93.24722,249.07455 86.31961,256.00217 79.392056,262.92971 72.464505,256.00217 65.536895,249.07455 58.609344,242.147 Z"
       id="rect4533"
       inkscape:connector-curvature="0" />
    <circle
       style="opacity:1;fill:none;fill-opacity:1;fill-rule:nonzero;stroke:#ffffff;stroke-width:8.3490448;stroke-linecap:round;stroke-linejoin:round;stroke-miterlimit:4;stroke-dasharray:none;stroke-dashoffset:0;stroke-opacity:1;paint-order:stroke fill markers"
       id="path4511"
       cx="79.375"
       cy="217.62498"
       r="68.671799" />
    <g
       aria-label="第66回"
       style="font-style:normal;font-variant:normal;font-weight:900;font-stretch:normal;font-size:28.42262268px;line-height:47.37103271px;font-family:'Gen Shin Gothic';-inkscape-font-specification:'Gen Shin Gothic Heavy';letter-spacing:0px;word-spacing:0px;fill:#fffc32;fill-opacity:1;stroke:none;stroke-width:1.89484131px;stroke-linecap:butt;stroke-linejoin:miter;stroke-opacity:1"
       id="text4489">
      <path
         d="m 44.203461,174.0421 h -1.110258 q -1.276798,2.02622 -2.692378,3.49732 -1.026989,-0.80494 -1.720901,-1.13802 2.720134,-2.47032 4.24674,-6.63379 l 1.998466,0.49961 q -0.222052,0.61064 -0.915964,2.08174 h 7.46649 v 1.69314 H 46.25744 q 0.804937,1.63763 1.026989,2.60911 l -1.80417,0.72167 q -0.249808,-1.19353 -1.276798,-3.33078 z m 6.633796,10.02009 h -6.356231 q -0.111026,0.47186 -0.333078,1.36006 -0.222051,0.86045 -0.305321,1.24904 h 6.99463 z m 2.053979,-4.66309 v 2.85892 h 7.077899 v -2.85892 z m 0,7.27219 h 10.797266 q -0.02776,0.55513 -0.05551,0.86045 -0.527373,5.38476 -1.49885,6.35624 -0.666155,0.66615 -1.80417,0.69391 -1.221285,0.0833 -3.580584,0 -0.05551,-1.19353 -0.55513,-1.94296 1.387824,0.11103 3.219751,0.11103 0.777181,0 0.999232,-0.19429 0.610643,-0.61065 0.999233,-4.05245 h -8.521235 v 7.32771 h -2.053979 v -6.68931 q -1.970709,1.97071 -4.829625,3.6361 -2.83116,1.66539 -5.690076,2.58135 -0.582886,-0.97148 -1.332311,-1.66539 2.664621,-0.74942 5.356999,-2.13725 2.720133,-1.38782 4.63533,-3.05321 h -5.606807 q -0.05551,0.1943 -0.166538,0.55513 -0.08327,0.33308 -0.111026,0.38859 l -2.053979,-0.30532 q 1.082502,-3.60834 1.748658,-6.8836 h 8.049375 v -2.85892 h -9.437199 v -1.80417 H 62.05087 v 6.46726 h -9.159634 z m 2.220517,-14.32233 h 9.548225 v 1.69314 h -6.328475 q 1.193528,1.58212 1.637632,2.66462 l -1.859683,0.72167 q -0.527373,-1.47109 -1.998466,-3.38629 h -2.026222 q -1.332311,1.94295 -2.942186,3.38629 -0.832694,-0.74942 -1.693144,-1.22128 1.498849,-1.16578 2.692377,-2.85892 1.221285,-1.69314 1.915196,-3.58058 l 2.026222,0.49961 q -0.305321,0.8327 -0.971476,2.08174 z"
         style="font-style:normal;font-variant:normal;font-weight:normal;font-stretch:normal;font-family:'Gen Shin Gothic';-inkscape-font-specification:'Gen Shin Gothic';fill:#fffc32;fill-opacity:1;stroke-width:1.89484131px"
         id="path4566" />
      <path
         d="m 76.248303,173.44534 v 2.17888 h -0.402469 q -2.456447,0.0555 -3.84427,1.66539 -1.387824,1.596 -1.595997,4.81575 1.346188,-1.69315 3.441802,-1.69315 2.234395,0 3.538949,1.84581 1.318432,1.83192 1.318432,4.81574 0,3.17812 -1.457214,5.02392 -1.443336,1.84581 -3.885906,1.84581 -2.456447,0 -3.955296,-2.17888 -1.498849,-2.17889 -1.498849,-5.78723 v -0.98535 q 0,-4.16347 0.902085,-6.6338 0.902085,-2.47032 2.650742,-3.66385 1.762536,-1.20741 4.371644,-1.24904 z m -2.817281,9.10412 q -0.999233,0 -1.845806,0.7633 -0.846572,0.7633 -1.221284,1.94295 v 1.01312 q 0,2.45644 0.86045,4.01081 0.874329,1.54048 2.137248,1.54048 1.373946,0 2.151127,-1.26292 0.777181,-1.2768 0.777181,-3.35853 0,-2.05398 -0.777181,-3.34466 -0.777181,-1.30455 -2.081735,-1.30455 z"
         style="font-style:normal;font-variant:normal;font-weight:normal;font-stretch:normal;font-family:'Roboto Condensed';-inkscape-font-specification:'Roboto Condensed, ';fill:#fffc32;fill-opacity:1;stroke-width:1.89484131px"
         id="path4568" />
      <path
         d="m 90.293076,173.44534 v 2.17888 h -0.402469 q -2.456447,0.0555 -3.84427,1.66539 -1.387824,1.596 -1.595997,4.81575 1.346188,-1.69315 3.441802,-1.69315 2.234395,0 3.538949,1.84581 1.318433,1.83192 1.318433,4.81574 0,3.17812 -1.457215,5.02392 -1.443336,1.84581 -3.885905,1.84581 -2.456448,0 -3.955297,-2.17888 -1.498849,-2.17889 -1.498849,-5.78723 v -0.98535 q 0,-4.16347 0.902085,-6.6338 0.902085,-2.47032 2.650742,-3.66385 1.762536,-1.20741 4.371644,-1.24904 z m -2.817281,9.10412 q -0.999233,0 -1.845805,0.7633 -0.846573,0.7633 -1.221285,1.94295 v 1.01312 q 0,2.45644 0.860451,4.01081 0.874328,1.54048 2.137248,1.54048 1.373945,0 2.151126,-1.26292 0.777181,-1.2768 0.777181,-3.35853 0,-2.05398 -0.777181,-3.34466 -0.777181,-1.30455 -2.081735,-1.30455 z"
         style="font-style:normal;font-variant:normal;font-weight:normal;font-stretch:normal;font-family:'Roboto Condensed';-inkscape-font-specification:'Roboto Condensed, ';fill:#fffc32;fill-opacity:1;stroke-width:1.89484131px"
         id="path4570" />
      <path
         d="m 111.73495,185.94963 v -6.46726 h -6.88361 v 6.46726 z m -8.90983,-8.38246 h 10.99156 v 10.2699 h -10.99156 z m -4.080199,14.73869 H 117.92464 V 173.18165 H 98.744921 Z m -2.137248,-21.2337 h 23.565237 v 24.75877 h -2.24827 v -1.52661 H 98.744921 v 1.52661 h -2.137248 z"
         style="font-style:normal;font-variant:normal;font-weight:normal;font-stretch:normal;font-family:'Gen Shin Gothic';-inkscape-font-specification:'Gen Shin Gothic';fill:#fffc32;fill-opacity:1;stroke-width:1.89484131px"
         id="path4572" />
    </g>
    <g
       aria-label="翠巒祭"
       style="font-style:normal;font-variant:normal;font-weight:900;font-stretch:normal;font-size:38.98167801px;line-height:64.96945953px;font-family:'Gen Shin Gothic';-inkscape-font-specification:'Gen Shin Gothic Heavy';letter-spacing:0px;word-spacing:0px;fill:#fffc32;fill-opacity:1;stroke:none;stroke-width:2.59877849px;stroke-linecap:butt;stroke-linejoin:miter;stroke-opacity:1"
       id="text4505">
      <path
         d="m 52.365721,211.70541 v -7.76588 H 40.374287 v -2.09374 h 14.389721 v 9.85962 q 0,0.91364 -0.228408,1.40852 -0.228408,0.49488 -0.875565,0.72329 -0.951701,0.30455 -4.568166,0.30455 -0.07614,-0.34262 -0.418748,-1.06591 -0.342612,-0.72329 -0.418749,-0.87556 2.588628,0.1142 3.540329,0.0381 0.57102,-0.0381 0.57102,-0.53295 z m -4.415893,-4.49203 -1.408518,1.56079 q -1.75113,-1.59886 -4.720437,-3.23578 l 1.37045,-1.33238 q 2.817035,1.29431 4.758505,3.00737 z m 2.474423,1.18011 0.304544,1.7892 q -1.903402,0.72329 -5.481798,1.97954 -3.540328,1.25624 -3.959077,1.40852 l -1.103973,-1.94147 q 4.073281,-1.14205 10.240304,-3.23579 z m -14.427789,3.23579 v -7.68975 H 24.195368 v -2.09374 h 14.161313 v 9.78349 q 0,1.75113 -1.18011,2.16987 -0.913633,0.30455 -4.568165,0.30455 -0.152272,-0.60909 -0.875565,-1.94147 2.931239,0.1142 3.654532,0 0.609089,0 0.609089,-0.53295 z m -4.415893,-4.4159 -1.446586,1.56079 q -1.522722,-1.56079 -4.492029,-3.23578 l 1.408517,-1.33238 q 3.045444,1.63692 4.530098,3.00737 z m 2.169878,1.44659 0.304545,1.75113 q -2.360219,0.79943 -9.402807,3.04544 l -1.103974,-1.94147 q 2.855104,-0.72329 10.202236,-2.8551 z m 23.335712,18.53914 v 2.13181 H 40.983376 v 6.01475 h -2.588627 v -6.01475 H 22.558442 v -2.13181 h 15.836307 v -1.675 h 2.512491 q -0.494885,-0.49488 -1.484654,-1.21817 4.834642,-2.13182 6.395432,-6.16703 H 33.636243 l 1.56079,0.34261 q -0.532953,1.18011 -1.256245,2.20795 3.578396,2.01761 4.758505,2.93124 l -1.636926,1.56079 q -1.180109,-0.98977 -4.377825,-2.93124 -2.322151,2.51249 -5.900547,4.41589 -0.609089,-0.72329 -1.827266,-1.52272 5.900547,-2.62669 7.918153,-7.00452 h -8.184629 v -2.09374 h 13.704496 v -2.77897 h 2.588627 v 2.77897 H 54.91628 v 2.09374 h -8.222697 l 1.484653,0.26648 q -0.456816,1.29431 -1.408517,2.70283 4.910778,2.47442 7.080656,4.11135 l -1.827266,1.56079 q -2.093743,-1.59886 -6.585772,-4.07328 -1.674994,1.7892 -4.187485,3.15964 l -0.266476,-0.26647 v 1.59886 z"
         style="font-style:normal;font-variant:normal;font-weight:300;font-stretch:normal;font-family:'Gen Shin Gothic';-inkscape-font-specification:'Gen Shin Gothic Light';fill:#fffc32;fill-opacity:1;stroke-width:2.59877849px"
         id="path4559" />
      <path
         d="m 83.73379,211.28666 2.284083,-0.0381 q 1.865334,-2.05568 2.284083,-2.6267 -1.522722,-1.75113 -4.035213,-3.6926 l 1.218177,-1.48465 q 0.494885,0.30454 1.027838,0.79943 1.560789,-2.13182 2.664763,-4.4159 l 2.017606,0.79943 q -1.674994,2.66476 -3.273852,4.72044 0.609089,0.53295 1.713062,1.63692 1.56079,-1.97953 2.398287,-3.46419 l 2.055675,0.9517 q -2.893172,3.80681 -5.596003,6.69998 2.017606,-0.0381 4.644301,-0.1142 -0.723292,-1.02784 -1.408517,-1.82727 l 1.598858,-0.87557 q 2.360218,2.70284 3.388056,4.87271 l -1.713062,0.98977 q -0.609089,-1.25624 -0.723293,-1.40851 l -3.083512,0.15227 v 9.78349 h -2.093742 v -9.63122 q -1.065906,0.0381 -2.893172,0.15227 -1.789198,0.0761 -2.246014,0.11421 z m 2.131811,3.31192 2.017606,0.38068 q -0.875565,4.07328 -2.702831,6.73805 -0.875565,-0.68523 -1.713062,-1.06591 1.56079,-2.13181 2.398287,-6.05282 z m -3.083512,-13.59029 v 1.675 h -8.793718 v -1.675 z m 1.37045,3.38806 v 1.7892 H 72.389513 v -1.7892 z m -8.489174,14.73233 h 5.405662 v -2.89317 h -5.405662 z m 7.499405,2.51249 h -2.093743 v -0.83749 h -5.405662 v 0.91363 h -1.979538 v -7.15679 h 9.478943 z m -9.250535,-8.75565 v -1.67499 h 9.022126 v 1.67499 z m 9.022126,-5.02498 v 1.67499 h -9.022126 v -1.67499 z m -21.965261,3.46419 2.32215,-0.0381 q 1.674994,-1.97953 2.017607,-2.47442 -1.903403,-2.16988 -4.149417,-3.88294 l 1.294313,-1.44659 q 0.532953,0.38069 1.218178,0.98977 1.522721,-2.20794 2.626695,-4.6443 l 2.017606,0.79943 q -1.979538,3.34999 -3.31192,4.94885 0.951701,0.91363 1.522722,1.56079 1.636926,-2.28409 2.398287,-3.5784 l 2.017606,0.91363 q -2.817035,3.99715 -5.25339,6.73805 l 4.187485,-0.11421 q -0.685225,-0.98977 -1.294314,-1.71306 l 1.598858,-0.87556 q 2.284083,2.70283 3.235784,4.72043 l -1.636926,0.95171 q -0.07614,-0.19035 -0.761361,-1.33239 l -2.817035,0.15228 v 9.74542 h -2.13181 v -9.63122 l -4.87271,0.26648 z m 8.146561,3.73067 1.674994,-0.60909 q 1.446586,2.43636 2.055675,5.06305 l -1.751131,0.79943 q -0.57102,-2.58863 -1.979538,-5.25339 z m -6.014751,-0.49488 2.055674,0.41874 q -0.913633,4.56817 -2.550559,7.11873 -0.532952,-0.45682 -1.713062,-1.10397 1.446586,-2.24602 2.207947,-6.4335 z m 26.761836,16.97834 v -7.34713 h 2.512491 v 10.92553 h -2.512491 v -1.25625 H 67.669075 v 1.44659 h -2.398286 v -11.03973 h 2.398286 v 7.27099 h 9.74542 v -9.36474 h 2.474423 v 9.36474 z m 2.474423,-16.44539 1.75113,-0.64716 q 2.017606,3.80681 2.588627,6.16702 l -1.827267,0.79943 q -0.723292,-2.8551 -2.51249,-6.31929 z"
         style="font-style:normal;font-variant:normal;font-weight:300;font-stretch:normal;font-family:'Gen Shin Gothic';-inkscape-font-specification:'Gen Shin Gothic Light';fill:#fffc32;fill-opacity:1;stroke-width:2.59877849px"
         id="path4561" />
      <path
         d="m 108.05927,225.63832 2.55056,0.72329 q -2.7409,4.56816 -7.84202,8.03236 -0.83749,-0.8375 -2.16988,-1.675 4.94885,-2.93124 7.46134,-7.08065 z m 24.93457,-1.90341 h -13.85677 v 8.75565 q 0,1.14205 -0.34261,1.71307 -0.30454,0.57102 -1.18011,0.83749 -1.21818,0.38068 -6.24316,0.38068 -0.26648,-1.18011 -0.87556,-2.39828 3.88294,0.1142 5.25339,0.0381 0.49488,-0.0381 0.64715,-0.15228 0.15228,-0.0761 0.15228,-0.45681 v -8.71759 h -13.39996 v -2.36021 h 29.84535 z m -8.75565,3.27386 2.09374,-1.29432 q 2.20795,1.675 4.5301,3.84488 2.36022,2.13181 3.5784,3.6926 l -2.16988,1.44658 q -1.21818,-1.59886 -3.54033,-3.8068 -2.28408,-2.20795 -4.49203,-3.88294 z m -17.81584,-20.21414 q -1.06591,1.29432 -2.24602,2.32216 3.5784,2.36021 5.17725,3.6926 1.33239,-1.33239 2.28409,-2.70284 -1.675,-1.25624 -5.21532,-3.31192 z m 8.3369,-2.39828 h -6.39543 q -0.53296,0.68522 -0.79943,1.0659 3.15964,1.675 5.17725,3.08351 1.37045,-2.32215 2.01761,-4.14941 z m 18.12039,-2.16988 1.71306,1.10397 q -2.81704,5.55794 -7.19486,9.51701 3.76873,3.54033 8.79372,5.21533 -0.8375,0.76136 -1.675,2.20794 -4.91078,-1.86533 -8.60338,-5.40566 v 1.97954 h -15.11301 v -2.16988 q -4.03521,4.03521 -9.63122,6.28123 -0.64715,-1.25625 -1.446581,-2.01761 4.492031,-1.59886 8.184631,-4.7585 -2.47442,-2.09375 -5.17726,-3.80681 -0.57102,0.49489 -1.67499,1.29431 -0.8375,-1.18011 -1.713061,-1.67499 3.083511,-2.05567 5.405661,-4.75851 2.32215,-2.74089 3.61647,-5.36759 l 2.58862,0.41875 q -0.83749,1.48465 -1.25624,2.16988 h 6.05282 l 0.41874,-0.15227 1.56079,0.68522 q -1.94147,6.62384 -6.73804,11.49655 h 14.54199 q -5.06305,-5.17725 -7.4994,-13.59029 l 2.32215,-0.49489 q 1.82727,6.50964 5.51987,10.81133 2.89317,-2.70283 5.13918,-6.62384 h -8.29883 v -2.16988 h 9.66928 z"
         style="font-style:normal;font-variant:normal;font-weight:300;font-stretch:normal;font-family:'Gen Shin Gothic';-inkscape-font-specification:'Gen Shin Gothic Light';fill:#fffc32;fill-opacity:1;stroke-width:2.59877849px"
         id="path4563" />
    </g>
    <g
       aria-label="Super Crew"
       style="font-style:normal;font-variant:normal;font-weight:normal;font-stretch:normal;font-size:26.01982307px;line-height:19.56704712px;font-family:'Noto Serif CJK JP';-inkscape-font-specification:'Noto Serif CJK JP';text-align:center;letter-spacing:0px;word-spacing:0px;text-anchor:middle;fill:#fffc32;fill-opacity:1;stroke:none;stroke-width:1.73465466px;stroke-linecap:butt;stroke-linejoin:miter;stroke-opacity:1"
       id="text4515">
      <path
         d="m 37.653073,252.89829 q 0,-1.38484 -0.749594,-2.12173 -0.749595,-0.73689 -2.706164,-1.43566 -1.956568,-0.69878 -2.998378,-1.46108 -1.029104,-0.775 -1.550009,-1.75329 -0.508199,-0.99099 -0.508199,-2.26149 0,-2.19796 1.461074,-3.62092 1.473779,-1.42296 3.849612,-1.42296 1.626239,0 2.896738,0.73689 1.270499,0.72419 1.956569,2.0201 0.68607,1.29591 0.68607,2.84591 h -2.337719 q 0,-1.71517 -0.825824,-2.65534 -0.825825,-0.94017 -2.375834,-0.94017 -1.410254,0 -2.185258,0.78771 -0.775005,0.78771 -0.775005,2.21067 0,1.16886 0.838529,1.95657 0.83853,0.78771 2.591819,1.41025 2.731573,0.90206 3.900432,2.22338 1.181565,1.32131 1.181565,3.45575 0,2.24879 -1.461075,3.60822 -1.461074,1.34673 -3.976662,1.34673 -1.613534,0 -2.985673,-0.69877 -1.359434,-0.71148 -2.147144,-1.98198 -0.775004,-1.28321 -0.775004,-2.93486 h 2.337718 q 0,1.71518 0.952875,2.66805 0.965579,0.95288 2.617228,0.95288 1.537304,0 2.312309,-0.78771 0.775004,-0.78771 0.775004,-2.14715 z"
         style="font-style:normal;font-variant:normal;font-weight:normal;font-stretch:normal;font-family:'Roboto Condensed';-inkscape-font-specification:'Roboto Condensed, ';text-align:center;letter-spacing:-1.32575595px;text-anchor:middle;fill:#fffc32;fill-opacity:1;stroke-width:1.73465466px"
         id="path4540" />
      <path
         d="m 48.409764,256.36676 q -1.11804,1.46107 -3.265183,1.46107 -1.867634,0 -2.820508,-1.2832 -0.952875,-1.29591 -0.96558,-3.76068 v -8.95702 h 2.236079 v 8.79185 q 0,3.21437 1.931159,3.21437 2.045503,0 2.820508,-1.82952 v -10.1767 h 2.248783 v 13.7468 h -2.134438 z"
         style="font-style:normal;font-variant:normal;font-weight:normal;font-stretch:normal;font-family:'Roboto Condensed';-inkscape-font-specification:'Roboto Condensed, ';text-align:center;letter-spacing:-1.32575595px;text-anchor:middle;fill:#fffc32;fill-opacity:1;stroke-width:1.73465466px"
         id="path4542" />
      <path
         d="m 62.609507,251.36099 q 0,3.26518 -1.181564,4.86601 -1.168859,1.60083 -3.316003,1.60083 -2.070913,0 -3.188953,-1.56271 v 6.59389 h -2.236078 v -19.03208 h 2.032798 l 0.114345,1.5246 q 1.130745,-1.7787 3.239773,-1.7787 2.261489,0 3.379528,1.57542 1.118039,1.57542 1.156154,4.71355 z m -2.236078,-1.2832 q 0,-2.31231 -0.71148,-3.40494 -0.711479,-1.10534 -2.286898,-1.10534 -1.613534,0 -2.452064,1.61354 v 7.15291 q 0.825825,1.57542 2.477474,1.57542 1.524599,0 2.236078,-1.09263 0.724185,-1.10534 0.73689,-3.36683 z"
         style="font-style:normal;font-variant:normal;font-weight:normal;font-stretch:normal;font-family:'Roboto Condensed';-inkscape-font-specification:'Roboto Condensed, ';text-align:center;letter-spacing:-1.32575595px;text-anchor:middle;fill:#fffc32;fill-opacity:1;stroke-width:1.73465466px"
         id="path4544" />
      <path
         d="m 69.12273,257.82783 q -2.566408,0 -3.938547,-1.5246 -1.37214,-1.5373 -1.397549,-4.49757 v -1.66435 q 0,-3.07461 1.334024,-4.81519 1.346729,-1.75329 3.747972,-1.75329 2.413949,0 3.608218,1.5373 1.194269,1.53731 1.219679,4.78979 v 1.47377 h -7.673815 v 0.31763 q 0,2.21067 0.825825,3.21436 0.838529,1.0037 2.401243,1.0037 0.990989,0 1.740584,-0.36845 0.762299,-0.38115 1.422959,-1.19427 l 1.168859,1.42296 q -1.461074,2.05821 -4.459452,2.05821 z m -0.2541,-12.32384 q -1.397549,0 -2.070913,0.96558 -0.673365,0.95287 -0.7623,2.97297 h 5.412327 v -0.30492 q -0.08894,-1.95657 -0.71148,-2.7951 -0.60984,-0.83853 -1.867634,-0.83853 z"
         style="font-style:normal;font-variant:normal;font-weight:normal;font-stretch:normal;font-family:'Roboto Condensed';-inkscape-font-specification:'Roboto Condensed, ';text-align:center;letter-spacing:-1.32575595px;text-anchor:middle;fill:#fffc32;fill-opacity:1;stroke-width:1.73465466px"
         id="path4546" />
      <path
         d="m 80.756066,245.93596 q -0.470085,-0.0889 -1.016399,-0.0889 -1.727879,0 -2.413949,1.89305 v 9.83366 h -2.248783 v -13.7468 h 2.185258 l 0.03812,1.39755 q 0.902055,-1.65165 2.553704,-1.65165 0.533609,0 0.889349,0.17787 z"
         style="font-style:normal;font-variant:normal;font-weight:normal;font-stretch:normal;font-family:'Roboto Condensed';-inkscape-font-specification:'Roboto Condensed, ';text-align:center;letter-spacing:-1.32575595px;text-anchor:middle;fill:#fffc32;fill-opacity:1;stroke-width:1.73465466px"
         id="path4548" />
      <path
         d="m 98.216557,251.70402 q -0.15246,2.97297 -1.677059,4.54839 -1.511894,1.57542 -4.281582,1.57542 -2.782394,0 -4.421338,-2.10903 -1.638944,-2.12173 -1.638944,-5.74265 v -3.35412 q 0,-3.60822 1.677059,-5.70454 1.689764,-2.09633 4.599207,-2.09633 2.680754,0 4.141828,1.61354 1.473779,1.60083 1.600829,4.5865 h -2.350424 q -0.15246,-2.26149 -0.952874,-3.22707 -0.800415,-0.96558 -2.439359,-0.96558 -1.893043,0 -2.909443,1.48649 -1.016399,1.47377 -1.016399,4.3324 v 3.39223 q 0,2.8078 0.940169,4.30699 0.952875,1.49919 2.769689,1.49919 1.816813,0 2.617228,-0.90205 0.800414,-0.90206 0.990989,-3.23978 z"
         style="font-style:normal;font-variant:normal;font-weight:normal;font-stretch:normal;font-family:'Roboto Condensed';-inkscape-font-specification:'Roboto Condensed, ';text-align:center;letter-spacing:-1.32575595px;text-anchor:middle;fill:#fffc32;fill-opacity:1;stroke-width:1.73465466px"
         id="path4550" />
      <path
         d="m 105.39044,245.93596 q -0.47008,-0.0889 -1.0164,-0.0889 -1.72788,0 -2.41395,1.89305 v 9.83366 h -2.248779 v -13.7468 h 2.185259 l 0.0381,1.39755 q 0.90206,-1.65165 2.55371,-1.65165 0.53361,0 0.88935,0.17787 z"
         style="font-style:normal;font-variant:normal;font-weight:normal;font-stretch:normal;font-family:'Roboto Condensed';-inkscape-font-specification:'Roboto Condensed, ';text-align:center;letter-spacing:-1.32575595px;text-anchor:middle;fill:#fffc32;fill-opacity:1;stroke-width:1.73465466px"
         id="path4552" />
      <path
         d="m 110.9762,257.82783 q -2.56641,0 -3.93855,-1.5246 -1.37214,-1.5373 -1.39755,-4.49757 v -1.66435 q 0,-3.07461 1.33402,-4.81519 1.34673,-1.75329 3.74798,-1.75329 2.41394,0 3.60821,1.5373 1.19427,1.53731 1.21968,4.78979 v 1.47377 h -7.67381 v 0.31763 q 0,2.21067 0.82582,3.21436 0.83853,1.0037 2.40125,1.0037 0.99099,0 1.74058,-0.36845 0.7623,-0.38115 1.42296,-1.19427 l 1.16886,1.42296 q -1.46108,2.05821 -4.45945,2.05821 z m -0.2541,-12.32384 q -1.39755,0 -2.07092,0.96558 -0.67336,0.95287 -0.7623,2.97297 h 5.41233 v -0.30492 q -0.0889,-1.95657 -0.71148,-2.7951 -0.60984,-0.83853 -1.86763,-0.83853 z"
         style="font-style:normal;font-variant:normal;font-weight:normal;font-stretch:normal;font-family:'Roboto Condensed';-inkscape-font-specification:'Roboto Condensed, ';text-align:center;letter-spacing:-1.32575595px;text-anchor:middle;fill:#fffc32;fill-opacity:1;stroke-width:1.73465466px"
         id="path4554" />
      <path
         d="m 127.18333,253.62248 2.08362,-9.79555 h 2.22338 l -3.36683,13.7468 h -1.7914 l -2.68075,-9.83366 -2.61723,9.83366 h -1.80411 l -3.34141,-13.7468 h 2.21066 l 2.13444,9.55415 2.55371,-9.55415 h 1.77869 z"
         style="font-style:normal;font-variant:normal;font-weight:normal;font-stretch:normal;font-family:'Roboto Condensed';-inkscape-font-specification:'Roboto Condensed, ';text-align:center;letter-spacing:-1.32575595px;text-anchor:middle;fill:#fffc32;fill-opacity:1;stroke-width:1.73465466px"
         id="path4556" />
    </g>
  </g>
</svg>
