<?xml version="1.0" encoding="UTF-8" standalone="no"?>
<!-- Created with Inkscape (http://www.inkscape.org/) -->

<svg
   xmlns:dc="http://purl.org/dc/elements/1.1/"
   xmlns:cc="http://creativecommons.org/ns#"
   xmlns:rdf="http://www.w3.org/1999/02/22-rdf-syntax-ns#"
   xmlns:svg="http://www.w3.org/2000/svg"
   xmlns="http://www.w3.org/2000/svg"
   xmlns:sodipodi="http://sodipodi.sourceforge.net/DTD/sodipodi-0.dtd"
   xmlns:inkscape="http://www.inkscape.org/namespaces/inkscape"
   width="600"
   height="60"
   viewBox="0 0 158.75 15.875001"
   version="1.1"
   id="svg8"
   inkscape:version="0.92.1 r15371"
   sodipodi:docname="publisher2.svg"
   inkscape:export-filename="G:\vytf\files\images\icons\publisher2.png"
   inkscape:export-xdpi="96"
   inkscape:export-ydpi="96">
  <defs
     id="defs2" />
  <sodipodi:namedview
     id="base"
     pagecolor="#ffffff"
     bordercolor="#666666"
     borderopacity="1.0"
     inkscape:pageopacity="0.0"
     inkscape:pageshadow="2"
     inkscape:zoom="0.64"
     inkscape:cx="48.118183"
     inkscape:cy="-74.43159"
     inkscape:document-units="mm"
     inkscape:current-layer="layer1"
     showgrid="false"
     units="px"
     inkscape:snap-page="true"
     inkscape:snap-bbox="true"
     inkscape:snap-bbox-edge-midpoints="true"
     inkscape:bbox-nodes="true"
     inkscape:snap-bbox-midpoints="true"
     inkscape:window-width="1920"
     inkscape:window-height="965"
     inkscape:window-x="-8"
     inkscape:window-y="-8"
     inkscape:window-maximized="1" />
  <metadata
     id="metadata5">
    <rdf:RDF>
      <cc:Work
         rdf:about="">
        <dc:format>image/svg+xml</dc:format>
        <dc:type
           rdf:resource="http://purl.org/dc/dcmitype/StillImage" />
        <dc:title />
      </cc:Work>
    </rdf:RDF>
  </metadata>
  <g
     inkscape:label="レイヤー 1"
     inkscape:groupmode="layer"
     id="layer1"
     transform="translate(0,-281.12498)">
    <rect
       style="opacity:1;fill:#ffffff;fill-opacity:1;fill-rule:nonzero;stroke:none;stroke-width:1;stroke-linecap:round;stroke-linejoin:miter;stroke-miterlimit:4;stroke-dasharray:none;stroke-dashoffset:0;stroke-opacity:1;paint-order:fill markers stroke"
       id="rect4500"
       width="158.75"
       height="15.87499"
       x="-6.0159282e-014"
       y="281.12497" />
    <g
       aria-label="Live Characters Wiki"
       style="font-style:normal;font-variant:normal;font-weight:200;font-stretch:normal;font-size:10.2599802px;line-height:34.67873764px;font-family:'Mgen+ 1c';-inkscape-font-specification:'Mgen+ 1c Ultra-Light';letter-spacing:0px;word-spacing:0px;fill:#000000;fill-opacity:1;stroke:none;stroke-width:0.6839987px;stroke-linecap:butt;stroke-linejoin:miter;stroke-opacity:1"
       id="text4504">
      <path
         d="m 32.438598,285.36505 v 7.04372 h 3.817434 v 0.45088 h -4.338449 v -7.4946 z"
         style="font-style:normal;font-variant:normal;font-weight:200;font-stretch:normal;font-family:'Mgen+ 1c';-inkscape-font-specification:'Mgen+ 1c Ultra-Light';stroke-width:0.6839987px"
         id="path4485" />
      <path
         d="m 38.169758,292.85965 v -5.33038 h 0.510996 v 5.33038 z m 0,-6.64294 v -1.05205 h 0.510996 v 1.05205 z"
         style="font-style:normal;font-variant:normal;font-weight:200;font-stretch:normal;font-family:'Mgen+ 1c';-inkscape-font-specification:'Mgen+ 1c Ultra-Light';stroke-width:0.6839987px"
         id="path4487" />
      <path
         d="m 40.885046,287.52927 1.833571,5.00976 h 0.03006 l 1.83357,-5.00976 h 0.521015 l -2.04398,5.33038 h -0.671308 l -2.04398,-5.33038 z"
         style="font-style:normal;font-variant:normal;font-weight:200;font-stretch:normal;font-family:'Mgen+ 1c';-inkscape-font-specification:'Mgen+ 1c Ultra-Light';stroke-width:0.6839987px"
         id="path4489" />
      <path
         d="m 46.285563,290.29465 q 0.03006,2.26441 2.033961,2.26441 0.791541,0 1.563044,-0.32062 v 0.44086 q -0.83162,0.29056 -1.593102,0.28054 -1.2324,0 -1.873649,-0.69134 -0.631229,-0.70137 -0.631229,-2.07404 0,-1.48289 0.641248,-2.12414 0.651269,-0.65127 1.663239,-0.65127 2.104098,0 2.104098,2.69525 v 0.18035 z m 0,-0.40078 h 3.426673 q -0.03006,-2.07403 -1.623161,-2.07403 -1.703317,0 -1.803512,2.07403 z"
         style="font-style:normal;font-variant:normal;font-weight:200;font-stretch:normal;font-family:'Mgen+ 1c';-inkscape-font-specification:'Mgen+ 1c Ultra-Light';stroke-width:0.6839987px"
         id="path4491" />
      <path
         d="m 56.966362,292.51899 q 0.881717,0 1.763434,-0.35069 v 0.49096 q -0.851658,0.3106 -1.793492,0.30058 -1.392712,0 -2.244371,-1.00195 -0.851659,-1.01197 -0.851659,-2.84554 0,-1.81353 0.811581,-2.8255 0.8216,-1.02199 2.224332,-1.02199 0.951853,0 1.803512,0.3106 v 0.47092 q -0.891737,-0.34066 -1.773454,-0.34066 -1.192322,0 -1.873649,0.90175 -0.671307,0.90176 -0.671307,2.50488 0,1.5931 0.701366,2.50488 0.701366,0.90176 1.903707,0.90176 z"
         style="font-style:normal;font-variant:normal;font-weight:200;font-stretch:normal;font-family:'Mgen+ 1c';-inkscape-font-specification:'Mgen+ 1c Ultra-Light';stroke-width:0.6839987px"
         id="path4493" />
      <path
         d="m 60.934089,285.16466 v 3.32648 h 0.02004 q 0.741444,-1.06207 1.823551,-1.07209 0.921795,0 1.342615,0.52102 0.430839,0.52101 0.430839,1.74339 v 3.17619 h -0.500976 v -3.10605 q 0,-1.1322 -0.320624,-1.51295 -0.310605,-0.39076 -1.052049,-0.39076 -0.581131,0 -1.162263,0.57112 -0.581132,0.56109 -0.581132,1.1322 v 3.30644 h -0.490956 v -7.69499 z"
         style="font-style:normal;font-variant:normal;font-weight:200;font-stretch:normal;font-family:'Mgen+ 1c';-inkscape-font-specification:'Mgen+ 1c Ultra-Light';stroke-width:0.6839987px"
         id="path4495" />
      <path
         d="m 69.420616,289.52315 v -0.39076 q 0,-0.71138 -0.320624,-0.99193 -0.310605,-0.29057 -1.102146,-0.29057 -0.961873,0 -1.883668,0.38075 v -0.47092 q 0.891736,-0.34067 1.883668,-0.34067 1.052049,0 1.482888,0.4108 0.430839,0.40079 0.430839,1.41276 v 3.61704 h -0.470918 v -1.04203 h -0.02004 q -0.280546,0.54105 -0.8216,0.84164 -0.531034,0.30058 -1.202341,0.30058 -0.711385,0 -1.132205,-0.42081 -0.420819,-0.43084 -0.420819,-1.14223 0,-0.38074 0.140273,-0.69135 0.140273,-0.32062 0.450878,-0.59115 0.310605,-0.28054 0.901756,-0.43084 0.591151,-0.16031 1.412751,-0.16031 z m 0,0.38074 h -0.671307 q -2.414702,0 -2.414702,1.44281 0,0.54106 0.310605,0.86168 0.320624,0.32063 0.841639,0.32063 0.801561,0 1.362653,-0.55108 0.571112,-0.56109 0.571112,-1.44281 z"
         style="font-style:normal;font-variant:normal;font-weight:200;font-stretch:normal;font-family:'Mgen+ 1c';-inkscape-font-specification:'Mgen+ 1c Ultra-Light';stroke-width:0.6839987px"
         id="path4497" />
      <path
         d="m 71.955552,287.52927 v 1.34261 h 0.02004 q 0.310605,-0.62121 0.921795,-0.98191 0.62121,-0.3607 1.43279,-0.3607 h 0.20039 v 0.44086 h -0.20039 q -1.03201,0 -1.703317,0.65127 -0.661288,0.65126 -0.661288,1.70331 v 2.53494 h -0.510995 v -5.33038 z"
         style="font-style:normal;font-variant:normal;font-weight:200;font-stretch:normal;font-family:'Mgen+ 1c';-inkscape-font-specification:'Mgen+ 1c Ultra-Light';stroke-width:0.6839987px"
         id="path4499" />
      <path
         d="m 78.939152,289.52315 v -0.39076 q 0,-0.71138 -0.320624,-0.99193 -0.310605,-0.29057 -1.102147,-0.29057 -0.961873,0 -1.883668,0.38075 v -0.47092 q 0.891737,-0.34067 1.883668,-0.34067 1.052049,0 1.482888,0.4108 0.430839,0.40079 0.430839,1.41276 v 3.61704 h -0.470917 v -1.04203 h -0.02004 q -0.280546,0.54105 -0.8216,0.84164 -0.531034,0.30058 -1.202341,0.30058 -0.711386,0 -1.132205,-0.42081 -0.42082,-0.43084 -0.42082,-1.14223 0,-0.38074 0.140273,-0.69135 0.140274,-0.32062 0.450879,-0.59115 0.310604,-0.28054 0.901756,-0.43084 0.591151,-0.16031 1.412751,-0.16031 z m 0,0.38074 h -0.671307 q -2.414703,0 -2.414703,1.44281 0,0.54106 0.310605,0.86168 0.320625,0.32063 0.841639,0.32063 0.801561,0 1.362654,-0.55108 0.571112,-0.56109 0.571112,-1.44281 z"
         style="font-style:normal;font-variant:normal;font-weight:200;font-stretch:normal;font-family:'Mgen+ 1c';-inkscape-font-specification:'Mgen+ 1c Ultra-Light';stroke-width:0.6839987px"
         id="path4501" />
      <path
         d="m 82.997053,287.83987 q -1.863629,0 -1.873649,2.35459 0,2.34457 1.973844,2.34457 0.731425,0 1.382693,-0.27053 v 0.4609 q -0.681327,0.24046 -1.402732,0.23044 -1.192322,0 -1.83357,-0.69134 -0.63123,-0.70137 -0.63123,-2.07404 0,-1.35263 0.611191,-2.06402 0.621209,-0.71139 1.753414,-0.71139 0.741444,0 1.452829,0.23045 v 0.45088 q -0.701366,-0.26051 -1.43279,-0.26051 z"
         style="font-style:normal;font-variant:normal;font-weight:200;font-stretch:normal;font-family:'Mgen+ 1c';-inkscape-font-specification:'Mgen+ 1c Ultra-Light';stroke-width:0.6839987px"
         id="path4503" />
      <path
         d="m 87.475776,285.77585 v 1.95381 h 2.013922 v 0.4108 h -2.013922 v 3.14613 q 0,0.78152 0.220429,1.02199 0.22043,0.24046 0.841639,0.24046 0.440859,0 0.841639,-0.15029 v 0.43084 q -0.4108,0.13025 -0.911775,0.13025 -0.851659,0 -1.172283,-0.35068 -0.320624,-0.35068 -0.320624,-1.29252 v -3.17618 H 85.76244 v -0.4108 h 1.212361 v -1.95381 z"
         style="font-style:normal;font-variant:normal;font-weight:200;font-stretch:normal;font-family:'Mgen+ 1c';-inkscape-font-specification:'Mgen+ 1c Ultra-Light';stroke-width:0.6839987px"
         id="path4505" />
      <path
         d="m 91.132897,290.29465 q 0.03006,2.26441 2.033961,2.26441 0.791541,0 1.563044,-0.32062 v 0.44086 q -0.83162,0.29056 -1.593103,0.28054 -1.2324,0 -1.873648,-0.69134 -0.63123,-0.70137 -0.63123,-2.07404 0,-1.48289 0.641249,-2.12414 0.651268,-0.65127 1.663239,-0.65127 2.104098,0 2.104098,2.69525 v 0.18035 z m 0,-0.40078 h 3.426673 q -0.03006,-2.07403 -1.623161,-2.07403 -1.703317,0 -1.803512,2.07403 z"
         style="font-style:normal;font-variant:normal;font-weight:200;font-stretch:normal;font-family:'Mgen+ 1c';-inkscape-font-specification:'Mgen+ 1c Ultra-Light';stroke-width:0.6839987px"
         id="path4507" />
      <path
         d="m 96.844021,287.52927 v 1.34261 h 0.02004 q 0.310605,-0.62121 0.921796,-0.98191 0.621209,-0.3607 1.43279,-0.3607 h 0.20039 v 0.44086 h -0.20039 q -1.03201,0 -1.703317,0.65127 -0.661288,0.65126 -0.661288,1.70331 v 2.53494 h -0.510995 v -5.33038 z"
         style="font-style:normal;font-variant:normal;font-weight:200;font-stretch:normal;font-family:'Mgen+ 1c';-inkscape-font-specification:'Mgen+ 1c Ultra-Light';stroke-width:0.6839987px"
         id="path4509" />
      <path
         d="m 102.33471,287.82985 q -0.6713,0 -1.03201,0.25049 -0.35068,0.25049 -0.35068,0.70137 0,0.4108 0.28055,0.68133 0.29056,0.2605 1.06206,0.42081 1.03201,0.23045 1.45283,0.60118 0.43084,0.3607 0.43084,1.02199 0,0.68132 -0.51099,1.07208 -0.50098,0.38074 -1.41275,0.38074 -0.91178,0 -1.7434,-0.38074 v -0.44086 q 0.83162,0.4108 1.70332,0.4108 0.71138,0 1.09213,-0.27052 0.38074,-0.28055 0.38074,-0.7715 0,-0.4108 -0.30059,-0.70137 -0.30058,-0.29057 -1.15224,-0.48094 -0.95186,-0.20039 -1.36266,-0.55107 -0.4108,-0.3607 -0.4108,-0.94183 0,-0.65127 0.48094,-1.03201 0.49096,-0.38075 1.36265,-0.38075 0.88172,0 1.70332,0.29057 v 0.44086 q -0.86168,-0.32063 -1.67326,-0.32063 z"
         style="font-style:normal;font-variant:normal;font-weight:200;font-stretch:normal;font-family:'Mgen+ 1c';-inkscape-font-specification:'Mgen+ 1c Ultra-Light';stroke-width:0.6839987px"
         id="path4511" />
      <path
         d="m 108.53679,285.36505 1.49291,6.97359 h 0.02 l 1.63318,-6.97359 h 0.69135 l 1.62316,6.97359 h 0.02 l 1.4929,-6.97359 h 0.511 l -1.68328,7.4946 h -0.69135 l -1.61314,-6.96356 h -0.0301 l -1.61314,6.96356 h -0.69134 l -1.68328,-7.4946 z"
         style="font-style:normal;font-variant:normal;font-weight:200;font-stretch:normal;font-family:'Mgen+ 1c';-inkscape-font-specification:'Mgen+ 1c Ultra-Light';stroke-width:0.6839987px"
         id="path4513" />
      <path
         d="m 117.7848,292.85965 v -5.33038 h 0.511 v 5.33038 z m 0,-6.64294 v -1.05205 h 0.511 v 1.05205 z"
         style="font-style:normal;font-variant:normal;font-weight:200;font-stretch:normal;font-family:'Mgen+ 1c';-inkscape-font-specification:'Mgen+ 1c Ultra-Light';stroke-width:0.6839987px"
         id="path4515" />
      <path
         d="m 120.92091,285.16466 v 4.75927 h 0.02 l 2.9257,-2.39466 h 0.66129 l -3.14613,2.56499 3.18621,2.76539 h -0.65127 l -2.9758,-2.60507 h -0.02 v 2.60507 h -0.50098 v -7.69499 z"
         style="font-style:normal;font-variant:normal;font-weight:200;font-stretch:normal;font-family:'Mgen+ 1c';-inkscape-font-specification:'Mgen+ 1c Ultra-Light';stroke-width:0.6839987px"
         id="path4517" />
      <path
         d="m 126.32142,292.85965 v -5.33038 h 0.511 v 5.33038 z m 0,-6.64294 v -1.05205 h 0.511 v 1.05205 z"
         style="font-style:normal;font-variant:normal;font-weight:200;font-stretch:normal;font-family:'Mgen+ 1c';-inkscape-font-specification:'Mgen+ 1c Ultra-Light';stroke-width:0.6839987px"
         id="path4519" />
    </g>
  </g>
</svg>
