<?xml version="1.0" encoding="UTF-8" standalone="no"?>
<!-- Created with Inkscape (http://www.inkscape.org/) -->

<svg
   xmlns:dc="http://purl.org/dc/elements/1.1/"
   xmlns:cc="http://creativecommons.org/ns#"
   xmlns:rdf="http://www.w3.org/1999/02/22-rdf-syntax-ns#"
   xmlns:svg="http://www.w3.org/2000/svg"
   xmlns="http://www.w3.org/2000/svg"
   xmlns:sodipodi="http://sodipodi.sourceforge.net/DTD/sodipodi-0.dtd"
   xmlns:inkscape="http://www.inkscape.org/namespaces/inkscape"
   width="1200"
   height="630"
   viewBox="0 0 317.49999 166.68751"
   version="1.1"
   id="svg8"
   inkscape:version="0.92.1 r15371"
   sodipodi:docname="banner2.svg"
   inkscape:export-filename="G:\suiranfesCOM\2018\files\images\icons\banner3.png"
   inkscape:export-xdpi="96"
   inkscape:export-ydpi="96">
  <defs
     id="defs2" />
  <sodipodi:namedview
     id="base"
     pagecolor="#ffffff"
     bordercolor="#666666"
     borderopacity="1.0"
     inkscape:pageopacity="0.0"
     inkscape:pageshadow="2"
     inkscape:zoom="0.32"
     inkscape:cx="54.40427"
     inkscape:cy="462.91215"
     inkscape:document-units="mm"
     inkscape:current-layer="layer1"
     showgrid="false"
     units="px"
     inkscape:snap-page="true"
     inkscape:snap-bbox="true"
     inkscape:snap-bbox-edge-midpoints="true"
     inkscape:bbox-nodes="true"
     inkscape:snap-bbox-midpoints="true"
     inkscape:window-width="1920"
     inkscape:window-height="965"
     inkscape:window-x="-8"
     inkscape:window-y="-8"
     inkscape:window-maximized="1"
     showguides="false" />
  <metadata
     id="metadata5">
    <rdf:RDF>
      <cc:Work
         rdf:about="">
        <dc:format>image/svg+xml</dc:format>
        <dc:type
           rdf:resource="http://purl.org/dc/dcmitype/StillImage" />
        <dc:title />
      </cc:Work>
    </rdf:RDF>
  </metadata>
  <g
     inkscape:label="レイヤー 1"
     inkscape:groupmode="layer"
     id="layer1"
     transform="translate(0,-130.31248)">
    <path
       style="opacity:1;fill:#00e0ed;fill-opacity:0.99164345;fill-rule:nonzero;stroke:none;stroke-width:7.9375;stroke-linecap:round;stroke-linejoin:round;stroke-miterlimit:4;stroke-dasharray:none;stroke-dashoffset:0;stroke-opacity:1;paint-order:stroke fill markers"
       d="m 0,130.31247 h 317.5 v 166.6875 H 0 Z"
       id="rect4601" />
    <path
       style="fill:none;fill-rule:evenodd;stroke:#ffffff;stroke-width:7.46500015;stroke-linecap:butt;stroke-linejoin:miter;stroke-miterlimit:4;stroke-dasharray:none;stroke-opacity:1"
       d="M -1.9274806e-6,187.02893 H 317.5"
       id="path4526"
       inkscape:connector-curvature="0" />
    <g
       transform="matrix(1.7267777,0,0,1.7050349,-2.9480503,-343.1913)"
       aria-label="第66回"
       style="font-style:normal;font-variant:normal;font-weight:900;font-stretch:normal;font-size:9.77194691px;line-height:16.28657532px;font-family:'Gen Shin Gothic';-inkscape-font-specification:'Gen Shin Gothic Heavy';letter-spacing:0px;word-spacing:0px;fill:#fffc32;fill-opacity:1;stroke:#02eaf7;stroke-width:0.46623531;stroke-linecap:butt;stroke-linejoin:round;stroke-miterlimit:4;stroke-dasharray:none;stroke-opacity:1;paint-order:stroke markers fill"
       id="text4489">
      <path
         inkscape:connector-curvature="0"
         d="m 13.505029,286.27397 h -0.381716 q -0.438974,0.69663 -0.925663,1.20241 -0.353088,-0.27675 -0.591661,-0.39126 0.935206,-0.84932 1.460066,-2.28076 l 0.68709,0.17177 q -0.07634,0.20995 -0.314916,0.71572 h 2.567045 v 0.58212 h -1.794069 q 0.276745,0.56303 0.353088,0.89703 l -0.620289,0.24812 q -0.08589,-0.41034 -0.438975,-1.14515 z m 2.280758,3.44499 h -2.185328 q -0.03817,0.16223 -0.114515,0.46761 -0.07634,0.29583 -0.104972,0.42943 h 2.404815 z m 0.706175,-1.60321 v 0.98292 h 2.433444 v -0.98292 z m 0,2.50025 h 3.712195 q -0.0095,0.19086 -0.01909,0.29583 -0.181315,1.85132 -0.515317,2.18533 -0.22903,0.22903 -0.62029,0.23857 -0.419888,0.0286 -1.231036,0 -0.01909,-0.41035 -0.190858,-0.668 0.477145,0.0382 1.106978,0.0382 0.267202,0 0.343545,-0.0668 0.209944,-0.20995 0.343545,-1.39327 h -2.929676 v 2.51933 h -0.706175 v -2.29984 q -0.677547,0.67754 -1.660468,1.25012 -0.973377,0.57257 -1.956298,0.88749 -0.200401,-0.334 -0.45806,-0.57257 0.91612,-0.25766 1.841783,-0.73481 0.935206,-0.47714 1.593667,-1.04972 h -1.927669 q -0.01909,0.0668 -0.05726,0.19086 -0.02863,0.11451 -0.03817,0.1336 l -0.706176,-0.10497 q 0.372174,-1.24058 0.601204,-2.36665 h 2.767446 v -0.98292 H 12.54119 v -0.62029 h 7.09993 v 2.2235 h -3.149163 z m 0.763434,-4.92415 h 3.282763 v 0.58212 h -2.175785 q 0.410346,0.54395 0.563032,0.91612 l -0.639375,0.24812 q -0.181316,-0.50578 -0.68709,-1.16424 h -0.696633 q -0.45806,0.668 -1.011549,1.16424 -0.286288,-0.25766 -0.582118,-0.41989 0.515317,-0.4008 0.925663,-0.98292 0.419888,-0.58212 0.658461,-1.23104 l 0.696633,0.17177 q -0.104972,0.28629 -0.334002,0.71572 z"
         style="font-style:normal;font-variant:normal;font-weight:normal;font-stretch:normal;font-family:'Gen Shin Gothic';-inkscape-font-specification:'Gen Shin Gothic';fill:#fffc32;fill-opacity:1;stroke:#02eaf7;stroke-width:0.46623531;stroke-linejoin:round;stroke-miterlimit:4;stroke-dasharray:none;stroke-opacity:1;paint-order:stroke markers fill"
         id="path4569" />
      <path
         inkscape:connector-curvature="0"
         d="m 24.522327,286.0688 v 0.74912 h -0.138372 q -0.844548,0.0191 -1.321694,0.57257 -0.477146,0.54872 -0.548718,1.6557 0.462831,-0.58212 1.183322,-0.58212 0.768205,0 1.216722,0.6346 0.453288,0.62984 0.453288,1.6557 0,1.09266 -0.501003,1.72727 -0.496232,0.6346 -1.336008,0.6346 -0.844548,0 -1.359866,-0.74912 -0.515318,-0.74912 -0.515318,-1.98969 v -0.33878 q 0,-1.43144 0.310145,-2.28076 0.310145,-0.84932 0.911349,-1.25966 0.605975,-0.41512 1.503009,-0.42943 z m -0.968606,3.13007 q -0.343545,0 -0.634604,0.26243 -0.291059,0.26244 -0.419888,0.66801 v 0.34832 q 0,0.84454 0.29583,1.37895 0.300602,0.52963 0.734805,0.52963 0.472374,0 0.739576,-0.4342 0.267201,-0.43898 0.267201,-1.1547 0,-0.70617 -0.267201,-1.14992 -0.267202,-0.44852 -0.715719,-0.44852 z"
         style="font-style:normal;font-variant:normal;font-weight:normal;font-stretch:normal;font-family:'Roboto Condensed';-inkscape-font-specification:'Roboto Condensed, ';fill:#fffc32;fill-opacity:1;stroke:#02eaf7;stroke-width:0.46623531;stroke-linejoin:round;stroke-miterlimit:4;stroke-dasharray:none;stroke-opacity:1;paint-order:stroke markers fill"
         id="path4571" />
      <path
         inkscape:connector-curvature="0"
         d="m 29.351042,286.0688 v 0.74912 H 29.21267 q -0.844548,0.0191 -1.321694,0.57257 -0.477146,0.54872 -0.548718,1.6557 0.462832,-0.58212 1.183322,-0.58212 0.768205,0 1.216722,0.6346 0.453288,0.62984 0.453288,1.6557 0,1.09266 -0.501003,1.72727 -0.496231,0.6346 -1.336008,0.6346 -0.844548,0 -1.359866,-0.74912 -0.515317,-0.74912 -0.515317,-1.98969 v -0.33878 q 0,-1.43144 0.310145,-2.28076 0.310144,-0.84932 0.911348,-1.25966 0.605975,-0.41512 1.50301,-0.42943 z m -0.968606,3.13007 q -0.343545,0 -0.634604,0.26243 -0.291059,0.26244 -0.419888,0.66801 v 0.34832 q 0,0.84454 0.29583,1.37895 0.300602,0.52963 0.734805,0.52963 0.472374,0 0.739576,-0.4342 0.267202,-0.43898 0.267202,-1.1547 0,-0.70617 -0.267202,-1.14992 -0.267202,-0.44852 -0.715719,-0.44852 z"
         style="font-style:normal;font-variant:normal;font-weight:normal;font-stretch:normal;font-family:'Roboto Condensed';-inkscape-font-specification:'Roboto Condensed, ';fill:#fffc32;fill-opacity:1;stroke:#02eaf7;stroke-width:0.46623531;stroke-linejoin:round;stroke-miterlimit:4;stroke-dasharray:none;stroke-opacity:1;paint-order:stroke markers fill"
         id="path4573" />
      <path
         inkscape:connector-curvature="0"
         d="m 36.722946,290.36788 v -2.2235 h -2.366643 v 2.2235 z m -3.063276,-2.88196 h 3.778995 v 3.53088 H 33.65967 Z m -1.402809,5.06729 h 6.594155 v -6.57507 h -6.594155 z m -0.734805,-7.30033 h 8.101937 v 8.51228 h -0.772977 v -0.52486 h -6.594155 v 0.52486 h -0.734805 z"
         style="font-style:normal;font-variant:normal;font-weight:normal;font-stretch:normal;font-family:'Gen Shin Gothic';-inkscape-font-specification:'Gen Shin Gothic';fill:#fffc32;fill-opacity:1;stroke:#02eaf7;stroke-width:0.46623531;stroke-linejoin:round;stroke-miterlimit:4;stroke-dasharray:none;stroke-opacity:1;paint-order:stroke markers fill"
         id="path4575" />
    </g>
    <g
       transform="matrix(2.7057291,0,0,2.7057291,-80.389941,-606.77875)"
       aria-label="翠巒祭"
       style="font-style:normal;font-variant:normal;font-weight:900;font-stretch:normal;font-size:12.15547562px;line-height:20.25912476px;font-family:'Gen Shin Gothic';-inkscape-font-specification:'Gen Shin Gothic Heavy';letter-spacing:0px;word-spacing:0px;fill:#fffc32;fill-opacity:1;stroke:#02eaf7;stroke-width:0.55437922;stroke-linecap:butt;stroke-linejoin:round;stroke-miterlimit:4;stroke-dasharray:none;stroke-opacity:1;paint-order:stroke markers fill"
       id="text4505">
      <path
         inkscape:connector-curvature="0"
         d="m 54.533192,287.2166 v -2.4216 h -3.739233 v -0.65288 h 4.48708 v 3.07448 q 0,0.28489 -0.07122,0.43921 -0.07122,0.15432 -0.273023,0.22554 -0.296765,0.095 -1.42447,0.095 -0.02374,-0.10684 -0.130576,-0.33238 -0.106836,-0.22554 -0.130577,-0.27302 0.8072,0.0356 1.103964,0.0119 0.178059,-0.0119 0.178059,-0.16619 z m -1.376987,-1.40073 -0.439212,0.48669 q -0.546047,-0.49856 -1.471952,-1.009 l 0.427341,-0.41547 q 0.878423,0.4036 1.483823,0.93778 z m 0.771587,0.36799 0.09497,0.55791 q -0.593529,0.22555 -1.709364,0.61727 -1.103964,0.39173 -1.23454,0.43922 l -0.344247,-0.6054 q 1.270152,-0.35612 3.193186,-1.009 z m -4.49895,1.009 V 284.795 h -3.67988 v -0.65288 h 4.415856 v 3.05074 q 0,0.54604 -0.367988,0.67662 -0.284894,0.095 -1.42447,0.095 -0.04748,-0.18992 -0.273023,-0.6054 0.914035,0.0356 1.139576,0 0.189929,0 0.189929,-0.16618 z m -1.376988,-1.37699 -0.451082,0.48669 q -0.474823,-0.48669 -1.400728,-1.009 l 0.439211,-0.41547 q 0.949647,0.51044 1.412599,0.93778 z m 0.676624,0.45108 0.09496,0.54605 q -0.735976,0.24928 -2.932033,0.94964 l -0.344247,-0.60539 q 0.890293,-0.22555 3.181316,-0.8903 z m 7.276666,5.78097 v 0.66476 h -5.021256 v 1.87555 h -0.807199 v -1.87555 h -4.938162 v -0.66476 h 4.938162 v -0.5223 h 0.783458 q -0.154318,-0.15432 -0.462953,-0.37986 1.507564,-0.66475 1.994258,-1.92303 h -3.798586 l 0.486694,0.10683 q -0.166188,0.36799 -0.39173,0.6885 1.115835,0.62914 1.483823,0.91403 l -0.510435,0.48669 q -0.367988,-0.30863 -1.365117,-0.91403 -0.724105,0.78346 -1.83994,1.37699 -0.189929,-0.22554 -0.569788,-0.47483 1.83994,-0.81907 2.469081,-2.18418 h -2.552175 v -0.65289 h 4.27341 v -0.86655 h 0.807199 v 0.86655 h 4.344633 v 0.65289 h -2.564046 l 0.462953,0.0831 q -0.142447,0.4036 -0.439212,0.84281 1.531306,0.77159 2.207929,1.28202 l -0.569788,0.4867 q -0.652882,-0.49857 -2.053611,-1.27015 -0.522305,0.55791 -1.305764,0.98525 l -0.08309,-0.0831 v 0.49856 z"
         style="font-style:normal;font-variant:normal;font-weight:300;font-stretch:normal;font-family:'Gen Shin Gothic';-inkscape-font-specification:'Gen Shin Gothic Light';fill:#fffc32;fill-opacity:1;stroke:#02eaf7;stroke-width:0.55437922;stroke-linejoin:round;stroke-miterlimit:4;stroke-dasharray:none;stroke-opacity:1;paint-order:stroke markers fill"
         id="path4562" />
      <path
         inkscape:connector-curvature="0"
         d="m 64.314551,287.08602 0.712235,-0.0119 q 0.581659,-0.64101 0.712235,-0.81907 -0.474823,-0.54605 -1.258282,-1.15145 l 0.379859,-0.46295 q 0.154318,0.095 0.320506,0.24928 0.486694,-0.66475 0.83094,-1.37698 l 0.629141,0.24928 q -0.522305,0.83094 -1.02087,1.47195 0.18993,0.16619 0.534176,0.51044 0.486694,-0.61727 0.747847,-1.08023 l 0.641011,0.29677 q -0.902164,1.18706 -1.744975,2.08922 0.629141,-0.0119 1.448211,-0.0356 -0.225541,-0.32051 -0.439212,-0.56979 l 0.498565,-0.27302 q 0.735976,0.84281 1.056482,1.51943 l -0.534177,0.30864 q -0.189929,-0.39173 -0.225541,-0.43922 l -0.961517,0.0475 v 3.05074 h -0.652882 v -3.00326 q -0.332376,0.0119 -0.902164,0.0475 -0.557917,0.0237 -0.700364,0.0356 z m 0.664753,1.03274 0.629141,0.11871 q -0.273024,1.27015 -0.842812,2.10109 -0.273023,-0.21367 -0.534176,-0.33238 0.486694,-0.66475 0.747847,-1.88742 z m -0.961517,-4.2378 v 0.52231 h -2.742105 v -0.52231 z m 0.427341,1.05649 v 0.55791 h -3.66801 v -0.55791 z m -2.64714,4.59391 h 1.685623 v -0.90216 h -1.685623 z m 2.338505,0.78346 h -0.652882 v -0.26115 h -1.685623 v 0.28489 h -0.61727 v -2.23167 h 2.955775 z m -2.884552,-2.73023 v -0.52231 h 2.813328 v 0.52231 z m 2.813328,-1.56692 v 0.5223 h -2.813328 v -0.5223 z m -6.849326,1.08022 0.724106,-0.0119 q 0.522306,-0.61727 0.629141,-0.77159 -0.593529,-0.67662 -1.293894,-1.2108 l 0.4036,-0.45108 q 0.166188,0.11871 0.379859,0.30864 0.474823,-0.6885 0.81907,-1.44821 l 0.629141,0.24928 q -0.617271,1.04461 -1.032741,1.54317 0.296765,0.2849 0.474823,0.4867 0.510435,-0.71224 0.747847,-1.11584 l 0.629141,0.2849 q -0.878423,1.24641 -1.63814,2.10109 l 1.305764,-0.0356 q -0.213671,-0.30864 -0.4036,-0.53418 l 0.498564,-0.27302 q 0.712235,0.84281 1.009,1.47195 l -0.510435,0.29677 q -0.02374,-0.0594 -0.237412,-0.41547 l -0.878423,0.0475 v 3.03887 h -0.664753 v -3.00326 l -1.519434,0.0831 z m 2.540305,1.16332 0.522306,-0.18993 q 0.451082,0.75972 0.641011,1.57879 l -0.546047,0.24928 q -0.178059,-0.8072 -0.61727,-1.63814 z m -1.875552,-0.15432 0.641011,0.13058 q -0.284894,1.42447 -0.795329,2.2198 -0.166188,-0.14245 -0.534176,-0.34425 0.451082,-0.70036 0.688494,-2.00613 z m 8.345019,5.29428 v -2.29102 h 0.783458 v 3.40686 h -0.783458 v -0.39173 h -6.920549 v 0.45108 h -0.747847 v -3.44247 h 0.747847 v 2.26728 h 3.038869 v -2.92016 h 0.771588 v 2.92016 z m 0.771588,-5.12809 0.546046,-0.2018 q 0.629141,1.18706 0.8072,1.92303 l -0.569788,0.24929 q -0.225541,-0.8903 -0.783458,-1.97052 z"
         style="font-style:normal;font-variant:normal;font-weight:300;font-stretch:normal;font-family:'Gen Shin Gothic';-inkscape-font-specification:'Gen Shin Gothic Light';fill:#fffc32;fill-opacity:1;stroke:#02eaf7;stroke-width:0.55437922;stroke-linejoin:round;stroke-miterlimit:4;stroke-dasharray:none;stroke-opacity:1;paint-order:stroke markers fill"
         id="path4564" />
      <path
         inkscape:connector-curvature="0"
         d="m 71.899853,291.56123 0.795329,0.22554 q -0.854682,1.42447 -2.44534,2.50469 -0.261153,-0.26115 -0.676623,-0.5223 1.543176,-0.91404 2.326634,-2.20793 z m 7.775231,-0.59353 h -4.320892 v 2.73024 q 0,0.35611 -0.106835,0.53417 -0.09496,0.17806 -0.367988,0.26115 -0.379859,0.11871 -1.946775,0.11871 -0.0831,-0.36799 -0.273024,-0.74785 1.2108,0.0356 1.63814,0.0119 0.154318,-0.0119 0.2018,-0.0475 0.04748,-0.0237 0.04748,-0.14245 v -2.71836 h -4.178445 v -0.73597 h 9.306536 z m -2.730234,1.02087 0.652882,-0.4036 q 0.688494,0.52231 1.412599,1.19893 0.735976,0.66475 1.115835,1.15145 l -0.676623,0.45108 q -0.379859,-0.49857 -1.103964,-1.18706 -0.712235,-0.68849 -1.400729,-1.2108 z m -5.555432,-6.30328 q -0.332376,0.4036 -0.700364,0.72411 1.115834,0.73597 1.614399,1.15144 0.41547,-0.41547 0.712235,-0.84281 -0.522306,-0.39173 -1.62627,-1.03274 z m 2.599657,-0.74784 h -1.994257 q -0.166189,0.21367 -0.249283,0.33237 0.985259,0.52231 1.614399,0.96152 0.427341,-0.72411 0.629141,-1.29389 z m 5.650397,-0.67663 0.534176,0.34425 q -0.878423,1.7331 -2.24354,2.96765 1.175188,1.10396 2.742105,1.62627 -0.261153,0.23741 -0.522306,0.68849 -1.531305,-0.58166 -2.682751,-1.68562 v 0.61727 h -4.712621 v -0.67663 q -1.258282,1.25828 -3.003257,1.95865 -0.2018,-0.39173 -0.451082,-0.62914 1.400728,-0.49857 2.552175,-1.48382 -0.771588,-0.65289 -1.614399,-1.18706 -0.178059,0.15432 -0.522306,0.4036 -0.261153,-0.36799 -0.534176,-0.52231 0.961517,-0.64101 1.685622,-1.48382 0.724106,-0.85468 1.127706,-1.67375 l 0.807199,0.13057 q -0.261153,0.46296 -0.391729,0.67663 h 1.887422 l 0.130577,-0.0475 0.486694,0.21367 q -0.6054,2.06549 -2.101093,3.58492 h 4.534562 q -1.578787,-1.6144 -2.338505,-4.2378 l 0.724106,-0.15431 q 0.569788,2.02986 1.721234,3.37124 0.902164,-0.84281 1.602529,-2.06548 h -2.587787 v -0.67662 h 3.015128 z"
         style="font-style:normal;font-variant:normal;font-weight:300;font-stretch:normal;font-family:'Gen Shin Gothic';-inkscape-font-specification:'Gen Shin Gothic Light';fill:#fffc32;fill-opacity:1;stroke:#02eaf7;stroke-width:0.55437922;stroke-linejoin:round;stroke-miterlimit:4;stroke-dasharray:none;stroke-opacity:1;paint-order:stroke markers fill"
         id="path4566" />
    </g>
    <g
       transform="matrix(2.7057291,0,0,2.7057291,-87.615819,-605.30585)"
       aria-label="Super Crew"
       style="font-style:normal;font-variant:normal;font-weight:normal;font-stretch:normal;font-size:12.64643764px;line-height:9.51019001px;font-family:'Noto Serif CJK JP';-inkscape-font-specification:'Noto Serif CJK JP';text-align:center;letter-spacing:0px;word-spacing:0px;text-anchor:middle;fill:#fffc32;fill-opacity:1;stroke:#02eaf7;stroke-width:0.55437922;stroke-linecap:butt;stroke-linejoin:round;stroke-miterlimit:4;stroke-dasharray:none;stroke-opacity:1;paint-order:stroke markers fill"
       id="text4515">
      <path
         inkscape:connector-curvature="0"
         d="m 98.814331,291.17111 q 0,-0.67308 -0.364326,-1.03123 -0.364326,-0.35815 -1.315279,-0.69778 -0.950953,-0.33963 -1.457304,-0.71013 -0.500177,-0.37667 -0.753352,-0.85215 -0.247001,-0.48165 -0.247001,-1.09915 0,-1.06828 0.710127,-1.75988 0.716302,-0.69161 1.871031,-0.69161 0.790402,0 1.407904,0.35816 0.617502,0.35197 0.950953,0.98182 0.333451,0.62986 0.333451,1.38321 h -1.136204 q 0,-0.83363 -0.401376,-1.29058 -0.401376,-0.45695 -1.154728,-0.45695 -0.685427,0 -1.062104,0.38285 -0.376676,0.38285 -0.376676,1.07445 0,0.5681 0.407551,0.95095 0.407552,0.38286 1.259704,0.68543 1.327629,0.43843 1.895731,1.08063 0.574277,0.6422 0.574277,1.67961 0,1.09297 -0.710128,1.7537 -0.710127,0.65455 -1.93278,0.65455 -0.784228,0 -1.45113,-0.33962 -0.660727,-0.3458 -1.043578,-0.96331 -0.376676,-0.62367 -0.376676,-1.42643 h 1.136204 q 0,0.83363 0.463126,1.29676 0.469301,0.46312 1.272054,0.46312 0.747177,0 1.123853,-0.38285 0.376676,-0.38285 0.376676,-1.04357 z"
         style="font-style:normal;font-variant:normal;font-weight:normal;font-stretch:normal;font-family:'Roboto Condensed';-inkscape-font-specification:'Roboto Condensed, ';text-align:center;letter-spacing:-0.6443584px;text-anchor:middle;fill:#fffc32;fill-opacity:1;stroke:#02eaf7;stroke-width:0.55437922;stroke-linejoin:round;stroke-miterlimit:4;stroke-dasharray:none;stroke-opacity:1;paint-order:stroke markers fill"
         id="path4543" />
      <path
         inkscape:connector-curvature="0"
         d="m 104.04242,292.85689 q -0.54341,0.71012 -1.58698,0.71012 -0.90773,0 -1.37086,-0.62367 -0.46312,-0.62986 -0.4693,-1.82781 v -4.35339 h 1.0868 v 4.27311 q 0,1.56228 0.93861,1.56228 0.99417,0 1.37085,-0.8892 v -4.94619 h 1.09298 v 6.68137 h -1.0374 z"
         style="font-style:normal;font-variant:normal;font-weight:normal;font-stretch:normal;font-family:'Roboto Condensed';-inkscape-font-specification:'Roboto Condensed, ';text-align:center;letter-spacing:-0.6443584px;text-anchor:middle;fill:#fffc32;fill-opacity:1;stroke:#02eaf7;stroke-width:0.55437922;stroke-linejoin:round;stroke-miterlimit:4;stroke-dasharray:none;stroke-opacity:1;paint-order:stroke markers fill"
         id="path4545" />
      <path
         inkscape:connector-curvature="0"
         d="m 110.94393,290.42393 q 0,1.58698 -0.57428,2.36503 -0.5681,0.77805 -1.61168,0.77805 -1.00652,0 -1.54993,-0.75952 v 3.20483 h -1.0868 v -9.25018 h 0.988 l 0.0556,0.741 q 0.54958,-0.8645 1.57463,-0.8645 1.09915,0 1.64255,0.7657 0.5434,0.76571 0.56193,2.29094 z m -1.0868,-0.62368 q 0,-1.12385 -0.3458,-1.6549 -0.34581,-0.53723 -1.11151,-0.53723 -0.78423,0 -1.19178,0.78423 v 3.47653 q 0.40138,0.7657 1.20413,0.7657 0.741,0 1.08681,-0.53105 0.35197,-0.53722 0.35815,-1.63638 z"
         style="font-style:normal;font-variant:normal;font-weight:normal;font-stretch:normal;font-family:'Roboto Condensed';-inkscape-font-specification:'Roboto Condensed, ';text-align:center;letter-spacing:-0.6443584px;text-anchor:middle;fill:#fffc32;fill-opacity:1;stroke:#02eaf7;stroke-width:0.55437922;stroke-linejoin:round;stroke-miterlimit:4;stroke-dasharray:none;stroke-opacity:1;paint-order:stroke markers fill"
         id="path4547" />
      <path
         inkscape:connector-curvature="0"
         d="m 114.10956,293.56701 q -1.24736,0 -1.91426,-0.741 -0.6669,-0.74718 -0.67925,-2.18596 v -0.80892 q 0,-1.49436 0.64838,-2.34034 0.65455,-0.85215 1.82163,-0.85215 1.17325,0 1.7537,0.74718 0.58045,0.74718 0.5928,2.32798 v 0.7163 h -3.72971 v 0.15438 q 0,1.07445 0.40138,1.56228 0.40755,0.48782 1.16708,0.48782 0.48165,0 0.84597,-0.17907 0.37051,-0.18525 0.69161,-0.58045 l 0.5681,0.6916 q -0.71013,1.00035 -2.16743,1.00035 z m -0.1235,-5.98977 q -0.67926,0 -1.00653,0.46931 -0.32728,0.46312 -0.3705,1.44495 h 2.63056 v -0.1482 q -0.0432,-0.95095 -0.34581,-1.3585 -0.2964,-0.40756 -0.90772,-0.40756 z"
         style="font-style:normal;font-variant:normal;font-weight:normal;font-stretch:normal;font-family:'Roboto Condensed';-inkscape-font-specification:'Roboto Condensed, ';text-align:center;letter-spacing:-0.6443584px;text-anchor:middle;fill:#fffc32;fill-opacity:1;stroke:#02eaf7;stroke-width:0.55437922;stroke-linejoin:round;stroke-miterlimit:4;stroke-dasharray:none;stroke-opacity:1;paint-order:stroke markers fill"
         id="path4549" />
      <path
         inkscape:connector-curvature="0"
         d="m 119.76372,287.7872 q -0.22848,-0.0432 -0.494,-0.0432 -0.83981,0 -1.17326,0.92008 v 4.77946 h -1.09298 v -6.68137 h 1.06211 l 0.0185,0.67925 q 0.43843,-0.80275 1.24118,-0.80275 0.25935,0 0.43225,0.0865 z"
         style="font-style:normal;font-variant:normal;font-weight:normal;font-stretch:normal;font-family:'Roboto Condensed';-inkscape-font-specification:'Roboto Condensed, ';text-align:center;letter-spacing:-0.6443584px;text-anchor:middle;fill:#fffc32;fill-opacity:1;stroke:#02eaf7;stroke-width:0.55437922;stroke-linejoin:round;stroke-miterlimit:4;stroke-dasharray:none;stroke-opacity:1;paint-order:stroke markers fill"
         id="path4551" />
      <path
         inkscape:connector-curvature="0"
         d="m 128.25006,290.59065 q -0.0741,1.44496 -0.81511,2.21066 -0.73482,0.7657 -2.08098,0.7657 -1.35233,0 -2.1489,-1.02505 -0.79658,-1.03123 -0.79658,-2.79111 v -1.6302 q 0,-1.75371 0.8151,-2.77259 0.82128,-1.01888 2.23536,-1.01888 1.30293,0 2.01305,0.78423 0.71631,0.77805 0.77806,2.22918 h -1.14238 q -0.0741,-1.09915 -0.46313,-1.56845 -0.38903,-0.4693 -1.1856,-0.4693 -0.92008,0 -1.41408,0.72247 -0.494,0.71631 -0.494,2.10569 v 1.64873 q 0,1.36468 0.45695,2.09333 0.46312,0.72865 1.34615,0.72865 0.88303,0 1.27206,-0.43843 0.38902,-0.43842 0.48165,-1.57463 z"
         style="font-style:normal;font-variant:normal;font-weight:normal;font-stretch:normal;font-family:'Roboto Condensed';-inkscape-font-specification:'Roboto Condensed, ';text-align:center;letter-spacing:-0.6443584px;text-anchor:middle;fill:#fffc32;fill-opacity:1;stroke:#02eaf7;stroke-width:0.55437922;stroke-linejoin:round;stroke-miterlimit:4;stroke-dasharray:none;stroke-opacity:1;paint-order:stroke markers fill"
         id="path4553" />
      <path
         inkscape:connector-curvature="0"
         d="m 131.73679,287.7872 q -0.22848,-0.0432 -0.49401,-0.0432 -0.8398,0 -1.17325,0.92008 v 4.77946 h -1.09298 v -6.68137 h 1.06211 l 0.0185,0.67925 q 0.43843,-0.80275 1.24118,-0.80275 0.25935,0 0.43225,0.0865 z"
         style="font-style:normal;font-variant:normal;font-weight:normal;font-stretch:normal;font-family:'Roboto Condensed';-inkscape-font-specification:'Roboto Condensed, ';text-align:center;letter-spacing:-0.6443584px;text-anchor:middle;fill:#fffc32;fill-opacity:1;stroke:#02eaf7;stroke-width:0.55437922;stroke-linejoin:round;stroke-miterlimit:4;stroke-dasharray:none;stroke-opacity:1;paint-order:stroke markers fill"
         id="path4555" />
      <path
         inkscape:connector-curvature="0"
         d="m 134.45163,293.56701 q -1.24735,0 -1.91425,-0.741 -0.6669,-0.74718 -0.67925,-2.18596 v -0.80892 q 0,-1.49436 0.64837,-2.34034 0.65456,-0.85215 1.82163,-0.85215 1.17326,0 1.75371,0.74718 0.58045,0.74718 0.5928,2.32798 v 0.7163 h -3.72971 v 0.15438 q 0,1.07445 0.40138,1.56228 0.40755,0.48782 1.16707,0.48782 0.48166,0 0.84598,-0.17907 0.3705,-0.18525 0.6916,-0.58045 l 0.56811,0.6916 q -0.71013,1.00035 -2.16744,1.00035 z m -0.1235,-5.98977 q -0.67925,0 -1.00652,0.46931 -0.32728,0.46312 -0.37051,1.44495 h 2.63056 v -0.1482 q -0.0432,-0.95095 -0.3458,-1.3585 -0.2964,-0.40756 -0.90773,-0.40756 z"
         style="font-style:normal;font-variant:normal;font-weight:normal;font-stretch:normal;font-family:'Roboto Condensed';-inkscape-font-specification:'Roboto Condensed, ';text-align:center;letter-spacing:-0.6443584px;text-anchor:middle;fill:#fffc32;fill-opacity:1;stroke:#02eaf7;stroke-width:0.55437922;stroke-linejoin:round;stroke-miterlimit:4;stroke-dasharray:none;stroke-opacity:1;paint-order:stroke markers fill"
         id="path4557" />
      <path
         inkscape:connector-curvature="0"
         d="m 142.3288,291.52308 1.01271,-4.76094 h 1.08062 l -1.63638,6.68137 h -0.87067 l -1.30293,-4.77946 -1.27206,4.77946 h -0.87685 l -1.62403,-6.68137 h 1.07445 l 1.03741,4.64362 1.24118,-4.64362 h 0.8645 z"
         style="font-style:normal;font-variant:normal;font-weight:normal;font-stretch:normal;font-family:'Roboto Condensed';-inkscape-font-specification:'Roboto Condensed, ';text-align:center;letter-spacing:-0.6443584px;text-anchor:middle;fill:#fffc32;fill-opacity:1;stroke:#02eaf7;stroke-width:0.55437922;stroke-linejoin:round;stroke-miterlimit:4;stroke-dasharray:none;stroke-opacity:1;paint-order:stroke markers fill"
         id="path4559" />
    </g>
    <g
       transform="matrix(2.7057291,0,0,2.7057291,-87.615819,-605.30585)"
       aria-label="スパークル"
       style="font-style:normal;font-variant:normal;font-weight:bold;font-stretch:normal;font-size:2.46537852px;line-height:8.33298111px;font-family:amemuchigothic-06;-inkscape-font-specification:'amemuchigothic-06 Bold';letter-spacing:4.78404236px;word-spacing:0px;fill:#ffffff;fill-opacity:1;stroke:none;stroke-width:0.09778633px;stroke-linecap:butt;stroke-linejoin:miter;stroke-opacity:1"
       id="text4530">
      <path
         inkscape:connector-curvature="0"
         d="m 112.4973,295.33057 v -0.71987 q 0.14445,0.14445 0.28891,0.14445 h 1.04971 q 0.14446,0 0.43337,-0.14445 -0.14446,0.28891 -0.14446,0.43336 v 0.14205 q -0.16131,0.33225 -0.42133,0.63802 0.32744,0.2865 0.64283,0.58263 l -0.32021,0.32021 q -0.30336,-0.29372 -0.6332,-0.58023 -0.40929,0.36837 -0.90766,0.58023 l -0.20946,-0.3828 q 0.87396,-0.41411 1.31936,-1.15806 h -0.80895 q -0.14446,0 -0.28891,0.14446 z"
         style="font-style:normal;font-variant:normal;font-weight:bold;font-stretch:normal;font-family:amemuchigothic-06;-inkscape-font-specification:'amemuchigothic-06 Bold';letter-spacing:4.78404236px;fill:#ffffff;fill-opacity:1;stroke-width:0.09778633px"
         id="path4532" />
      <path
         inkscape:connector-curvature="0"
         d="m 121.67039,296.62826 -0.5056,0.0987 q -0.1276,-0.63319 -0.29613,-1.20861 l 0.46948,-0.13482 q 0.18779,0.58986 0.33225,1.24472 z m -1.837,0.0987 -0.45744,-0.20946 q 0.21187,-0.36836 0.33225,-0.80654 0.12279,-0.44059 0.13723,-0.88118 l 0.49356,0.0241 q -0.01,0.48875 -0.14205,0.9799 -0.13242,0.49115 -0.36355,0.89321 z m 1.55531,-2.0609 q 0.10834,0.10834 0.10834,0.26243 0,0.15168 -0.10834,0.26002 -0.10834,0.10834 -0.26243,0.10834 -0.15168,0 -0.26002,-0.10834 -0.10834,-0.10834 -0.10834,-0.26002 0,-0.15409 0.10834,-0.26243 0.10834,-0.10834 0.26002,-0.10834 0.15409,0 0.26243,0.10834 z m -0.14686,0.37559 q 0.0457,-0.0481 0.0457,-0.11316 0,-0.0674 -0.0482,-0.11316 -0.0457,-0.0481 -0.11316,-0.0481 -0.065,0 -0.11315,0.0481 -0.0457,0.0457 -0.0457,0.11316 0,0.065 0.0457,0.11316 0.0481,0.0457 0.11315,0.0457 0.0674,0 0.11557,-0.0457 z"
         style="font-style:normal;font-variant:normal;font-weight:bold;font-stretch:normal;font-family:amemuchigothic-06;-inkscape-font-specification:'amemuchigothic-06 Bold';letter-spacing:4.78404236px;fill:#ffffff;fill-opacity:1;stroke-width:0.09778633px"
         id="path4534" />
      <path
         inkscape:connector-curvature="0"
         d="m 126.77464,296.09618 v -0.75839 q 0.14446,0.14446 0.28891,0.14446 h 1.49271 q 0.14446,0 0.28891,-0.14446 v 0.75839 q -0.14445,-0.14445 -0.28891,-0.14445 h -1.49271 q -0.14445,0 -0.28891,0.14445 z"
         style="font-style:normal;font-variant:normal;font-weight:bold;font-stretch:normal;font-family:amemuchigothic-06;-inkscape-font-specification:'amemuchigothic-06 Bold';letter-spacing:4.78404236px;fill:#ffffff;fill-opacity:1;stroke-width:0.09778633px"
         id="path4536" />
      <path
         inkscape:connector-curvature="0"
         d="m 134.33223,295.9758 -0.33224,-0.28409 q 0.20705,-0.20946 0.34428,-0.48634 0.13724,-0.27928 0.17335,-0.54893 l 0.45503,0.0241 q -0.012,0.10352 -0.0289,0.19742 h 0.76321 q 0.14446,0 0.28891,-0.14446 v 0.2191 q 0,0.60671 -0.17816,0.98711 -0.17575,0.37799 -0.5393,0.57301 -0.36355,0.19261 -0.95822,0.23835 l -0.0746,-0.41892 q 0.6332,-0.065 0.91007,-0.28891 0.27688,-0.22632 0.32984,-0.74636 h -0.67172 q -0.16131,0.36355 -0.48152,0.67894 z"
         style="font-style:normal;font-variant:normal;font-weight:bold;font-stretch:normal;font-family:amemuchigothic-06;-inkscape-font-specification:'amemuchigothic-06 Bold';letter-spacing:4.78404236px;fill:#ffffff;fill-opacity:1;stroke-width:0.09778633px"
         id="path4538" />
      <path
         inkscape:connector-curvature="0"
         d="m 143.04788,295.50632 0.44541,0.0626 q -0.0554,0.61635 -0.33466,0.88118 -0.27687,0.26484 -0.84988,0.26484 h -0.21909 q 0.14446,-0.14446 0.14446,-0.28892 v -1.43011 q 0,-0.14445 -0.14446,-0.28891 h 0.77043 q -0.14446,0.14446 -0.14446,0.28891 v 1.22065 q 0.15168,-0.0602 0.22391,-0.21909 0.0746,-0.16131 0.10834,-0.49115 z m -1.89718,0.85229 q 0.12278,-0.065 0.18779,-0.11556 0.065,-0.053 0.11797,-0.12279 0.053,-0.0722 0.0722,-0.19502 0.0217,-0.12278 0.0313,-0.27687 0.01,-0.15408 0.01,-0.42374 v -0.22872 q 0,-0.14445 -0.14446,-0.28891 h 0.75599 q -0.14446,0.14446 -0.14446,0.28891 v 0.22872 q 0,0.51523 -0.0578,0.80173 -0.0554,0.2841 -0.18539,0.443 -0.1276,0.1565 -0.38521,0.28169 z"
         style="font-style:normal;font-variant:normal;font-weight:bold;font-stretch:normal;font-family:amemuchigothic-06;-inkscape-font-specification:'amemuchigothic-06 Bold';letter-spacing:4.78404236px;fill:#ffffff;fill-opacity:1;stroke-width:0.09778633px"
         id="path4540" />
    </g>
    <g
       aria-label="テーマ"
       style="font-style:normal;font-variant:normal;font-weight:500;font-stretch:normal;font-size:13.27471542px;line-height:44.8685379px;font-family:'Gen Shin Gothic';-inkscape-font-specification:'Gen Shin Gothic Medium';letter-spacing:0px;word-spacing:0px;fill:#fffc32;fill-opacity:1;stroke:none;stroke-width:0.26458332px;stroke-linecap:butt;stroke-linejoin:miter;stroke-opacity:1"
       id="text4562">
      <path
         d="m 166.3809,146.09719 h -5.35396 q -0.72596,0 -1.29636,0.0389 v -1.36118 q 0.70004,0.0907 1.29636,0.0907 h 5.35396 q 0.72597,0 1.32229,-0.0907 v 1.36118 q -0.63522,-0.0389 -1.32229,-0.0389 z m -7.0133,2.11306 h 8.68561 q 0.55743,0 1.11487,-0.0648 v 1.37414 q -0.62226,-0.0519 -1.11487,-0.0519 h -3.40943 q -0.0778,2.1001 -0.82967,3.55203 -0.37594,0.68707 -1.08894,1.36117 -0.70003,0.67411 -1.54266,1.10191 l -1.23155,-0.89449 q 0.73893,-0.29816 1.40007,-0.82967 0.66114,-0.54447 1.06302,-1.15376 0.70003,-1.1019 0.79078,-3.13719 h -3.83723 q -0.45372,0 -1.20561,0.0519 v -1.37414 q 0.62225,0.0648 1.20561,0.0648 z"
         style="font-style:normal;font-variant:normal;font-weight:500;font-stretch:normal;font-family:'Gen Shin Gothic';-inkscape-font-specification:'Gen Shin Gothic Medium';fill:#fffc32;fill-opacity:1;stroke-width:0.26458332px"
         id="path4757" />
      <path
         d="m 171.52745,150.46592 v -1.63341 q 0.8556,0.0778 1.97047,0.0778 h 7.20775 q 0.51854,0 1.49081,-0.0778 v 1.63341 q -1.19265,-0.0519 -1.47785,-0.0519 h -7.22071 q -1.08895,0 -1.97047,0.0519 z"
         style="font-style:normal;font-variant:normal;font-weight:500;font-stretch:normal;font-family:'Gen Shin Gothic';-inkscape-font-specification:'Gen Shin Gothic Medium';fill:#fffc32;fill-opacity:1;stroke-width:0.26458332px"
         id="path4759" />
      <path
         d="m 194.92673,145.50086 1.05005,0.86856 q -0.25927,0.2852 -0.38891,0.46669 -0.80374,1.32229 -2.03528,2.76125 -1.23154,1.42599 -2.65754,2.54086 1.24451,1.24451 2.17788,2.35937 l -1.21857,0.97227 q -0.84264,-1.12783 -2.45012,-2.78717 -0.60929,-0.60929 -1.5297,-1.40007 -0.92042,-0.79077 -1.46489,-1.16672 l 1.08894,-0.89449 q 1.05005,0.77782 2.39827,1.97047 1.20561,-0.92042 2.21677,-2.1001 1.01116,-1.17969 1.56859,-2.16492 h -7.45406 q -0.58336,0 -1.43896,0.0778 v -1.49081 q 0.72596,0.10371 1.43896,0.10371 h 7.67444 q 0.70004,0 1.02413,-0.11668 z"
         style="font-style:normal;font-variant:normal;font-weight:500;font-stretch:normal;font-family:'Gen Shin Gothic';-inkscape-font-specification:'Gen Shin Gothic Medium';fill:#fffc32;fill-opacity:1;stroke-width:0.26458332px"
         id="path4761" />
    </g>
    <g
       aria-label="群馬県立高崎高等学校文化祭"
       style="font-style:normal;font-variant:normal;font-weight:500;font-stretch:normal;font-size:13.27471542px;line-height:44.8685379px;font-family:'Gen Shin Gothic';-inkscape-font-specification:'Gen Shin Gothic Medium';letter-spacing:0px;word-spacing:0px;fill:#fffc32;fill-opacity:1;stroke:none;stroke-width:0.26458332px;stroke-linecap:butt;stroke-linejoin:miter;stroke-opacity:1"
       id="text4566">
      <path
         d="m 113.38251,219.44328 h -2.07417 v 2.15196 h 2.07417 z m -0.14259,-4.43354 h -1.33525 q -0.013,0.0519 -0.19446,1.1019 h 1.52971 z m 0,-2.16492 h -1.11487 q -0.0259,0.35001 -0.10371,1.12783 h 1.21858 z m -2.17789,5.52249 h 3.51313 v 4.29094 h -3.26682 v 0.68707 h -1.12783 v -3.26682 q -0.33706,0.47965 -0.75189,0.90745 -0.19445,-0.40187 -0.79078,-0.97227 1.05005,-0.97227 1.63341,-2.83902 h -0.82967 v -1.06302 h 1.08894 q 0.15557,-0.75189 0.20742,-1.1019 h -1.91861 v -1.03709 h 2.03528 q 0.0389,-0.4278 0.0907,-1.12783 h -1.43896 v -1.05005 h 4.88727 v 2.17788 h 0.713 v 1.03709 h -0.713 v 2.16492 h -2.92977 q -0.11667,0.41483 -0.40187,1.19265 z m 8.25781,-7.22072 1.17969,0.27223 q -0.82967,1.86676 -1.05006,2.26863 l -1.01116,-0.27224 q 0.53151,-1.05005 0.88153,-2.26862 z m 1.68526,8.03742 v 1.15376 h -2.50197 v 3.00755 h -1.19265 v -3.00755 h -2.35937 v -1.15376 h 2.35937 v -1.69823 h -1.89268 v -1.12783 h 1.89268 v -1.54267 h -2.06121 v -1.12783 h 0.94634 q -0.20741,-1.05005 -0.85559,-2.1001 l 0.99819,-0.33706 q 0.72596,1.08895 0.92042,2.139 l -0.82967,0.29816 h 4.30391 v 1.12783 h -2.22974 v 1.54267 h 1.97047 v 1.12783 h -1.97047 v 1.69823 z"
         style="font-style:normal;font-variant:normal;font-weight:500;font-stretch:normal;font-family:'Gen Shin Gothic';-inkscape-font-specification:'Gen Shin Gothic Medium';fill:#fffc32;fill-opacity:1;stroke-width:0.26458332px"
         id="path4730" />
      <path
         d="m 123.0015,223.22865 -1.02413,-0.62225 q 1.10191,-0.95931 1.45193,-3.00755 l 1.08894,0.31112 q -0.47966,2.42419 -1.51674,3.31868 z m 2.32048,-3.11126 1.05005,-0.15556 q 0.41484,1.41303 0.47965,2.65753 l -1.11486,0.18149 q 0,-1.05005 -0.41484,-2.68346 z m 2.26863,-0.0648 0.9593,-0.20742 q 0.58337,1.12784 0.81671,2.33345 l -1.03709,0.2852 q -0.15556,-1.10191 -0.73892,-2.41123 z m -2.68346,-3.08533 v 1.08894 h 2.78717 v -1.08894 z m 2.78717,-4.14835 h -2.78717 v 1.1019 h 2.78717 z m 0,3.17608 v -1.08894 h -2.78717 v 1.08894 z m 1.21857,2.06121 h 5.00395 q -0.013,0.35002 -0.0389,0.51854 -0.12964,2.11307 -0.2852,3.05941 -0.15556,0.93338 -0.44076,1.2445 -0.29816,0.36298 -0.90745,0.4278 -0.53151,0.0519 -1.65934,0.013 -0.0389,-0.58337 -0.32409,-1.1408 0.59632,0.0648 1.3871,0.0648 0.31113,0 0.45373,-0.1426 0.32409,-0.32409 0.51854,-2.9557 h -8.91895 v -7.40221 h 9.32082 v 1.07598 h -4.10946 v 1.1019 h 3.65574 v 0.98524 h -3.65574 v 1.08894 h 3.65574 v 0.97227 h -3.65574 z m 2.77421,3.26682 -0.94634,0.38891 q -0.29816,-0.84263 -1.03709,-1.85379 l 0.88153,-0.33706 q 0.80374,0.95931 1.1019,1.80194 z"
         style="font-style:normal;font-variant:normal;font-weight:500;font-stretch:normal;font-family:'Gen Shin Gothic';-inkscape-font-specification:'Gen Shin Gothic Medium';fill:#fffc32;fill-opacity:1;stroke-width:0.26458332px"
         id="path4732" />
      <path
         d="m 144.65069,213.40225 v -0.88152 h -4.88727 v 0.88152 z m 0,1.71119 v -0.89448 h -4.88727 v 0.89448 z m 0,1.72416 v -0.89449 h -4.88727 v 0.89449 z m 1.19265,-5.18543 v 6.06696 h -7.24664 v -6.06696 z m -7.50592,8.46522 1.29636,0.47965 q -1.32228,1.54267 -3.202,2.60568 -0.62226,-0.58336 -0.9982,-0.8167 0.81671,-0.41484 1.63341,-1.05005 0.81671,-0.63522 1.27043,-1.21858 z m 8.99673,-0.46669 h -5.25025 v 3.68166 h -1.29636 v -3.68166 h -3.35757 v 0.32409 h -1.23154 v -7.62259 h 1.23154 v 6.20956 h 9.90418 z m -4.09649,1.07598 1.05005,-0.66114 q 2.13899,1.45192 3.12423,2.3853 l -1.11487,0.76485 q -1.06302,-1.08894 -3.05941,-2.48901 z"
         style="font-style:normal;font-variant:normal;font-weight:500;font-stretch:normal;font-family:'Gen Shin Gothic';-inkscape-font-specification:'Gen Shin Gothic Medium';fill:#fffc32;fill-opacity:1;stroke-width:0.26458332px"
         id="path4734" />
      <path
         d="m 160.24589,213.60967 v 1.23154 h -11.03201 v -1.23154 h 4.80949 v -2.45012 h 1.28339 v 2.45012 z m -6.84478,7.07812 -1.27043,0.33705 q -0.0648,-1.07598 -0.3889,-2.55383 -0.32409,-1.49081 -0.79078,-2.72235 l 1.16672,-0.31113 q 0.49262,1.24451 0.84263,2.69643 0.35002,1.45192 0.44076,2.55383 z m 3.31868,0.88152 h 3.92797 v 1.23154 h -11.86168 v -1.23154 h 6.62439 q 0.46669,-1.21858 0.93338,-2.96866 0.46669,-1.75008 0.73892,-3.2409 l 1.41304,0.27224 q -0.81671,3.42239 -1.77602,5.93732 z"
         style="font-style:normal;font-variant:normal;font-weight:500;font-stretch:normal;font-family:'Gen Shin Gothic';-inkscape-font-specification:'Gen Shin Gothic Medium';fill:#fffc32;fill-opacity:1;stroke-width:0.26458332px"
         id="path4736" />
      <path
         d="m 169.38522,221.31004 v -1.12783 h -2.85199 v 1.12783 z m 3.86315,-3.7724 v 4.40762 q 0,0.47965 -0.12964,0.75188 -0.12963,0.27224 -0.46669,0.41484 -0.5315,0.20742 -2.17788,0.20742 -0.0648,-0.47966 -0.38891,-1.1408 h -3.55202 v 0.63522 h -1.07598 v -3.50017 h 5.02988 v 2.86495 q 1.02412,0.0259 1.2445,-0.013 0.27224,0 0.27224,-0.23335 v -3.35757 h -7.99854 v 4.7706 h -1.20561 v -5.80768 z m -2.9557,-1.55564 v -1.07597 h -4.69282 v 1.07597 z m -5.88547,-1.93157 h 7.12998 v 2.77421 h -7.12998 z m 4.12242,-1.71119 h 5.15951 v 1.07597 h -11.44685 v -1.07597 h 5.02988 v -1.19265 h 1.25746 z"
         style="font-style:normal;font-variant:normal;font-weight:500;font-stretch:normal;font-family:'Gen Shin Gothic';-inkscape-font-specification:'Gen Shin Gothic Medium';fill:#fffc32;fill-opacity:1;stroke-width:0.26458332px"
         id="path4738" />
      <path
         d="m 178.83568,219.58588 v -6.17067 h 0.8556 v 7.98558 h -0.8556 v -0.81671 h -2.39826 v 1.21858 h -0.88153 v -8.38745 h 0.88153 v 6.17067 h 0.68707 v -8.14113 h 0.98523 v 8.14113 z m 4.42058,-0.84263 h -1.60748 v 1.37414 h 1.60748 z m 0.9982,2.26863 h -2.60568 v 0.72596 h -0.98523 v -3.87611 h 3.59091 z m -3.60388,-5.0558 h 5.4836 q -0.9593,-0.62225 -2.6705,-1.51674 -0.79078,1.06301 -2.8131,1.51674 z m 6.71514,0 v 1.02412 h -0.88152 v 5.02987 q 0,0.47966 -0.12964,0.73893 -0.12963,0.27223 -0.45372,0.40187 -0.50558,0.19445 -2.139,0.19445 -0.0907,-0.50558 -0.42779,-1.11487 1.2445,0.0389 1.72415,0.013 0.15557,0 0.20742,-0.0519 0.0648,-0.0648 0.0648,-0.20741 v -5.00395 h -5.50953 v -1.02412 h 0.76486 q -0.1815,-0.49262 -0.58337,-0.89449 1.25747,-0.24631 1.89269,-0.66114 0.64818,-0.4278 0.90745,-1.15376 h -2.59272 v -1.01116 h 2.8131 q 0.0648,-0.49262 0.0778,-1.07598 h 1.1408 q -0.013,0.41483 -0.0648,1.07598 h 2.78717 v 1.01116 h -2.96866 q -0.013,0.0519 -0.0389,0.15556 -0.0259,0.0907 -0.0389,0.1426 1.97046,0.92041 3.08533,1.62045 l -0.70003,0.79078 z"
         style="font-style:normal;font-variant:normal;font-weight:500;font-stretch:normal;font-family:'Gen Shin Gothic';-inkscape-font-specification:'Gen Shin Gothic Medium';fill:#fffc32;fill-opacity:1;stroke-width:0.26458332px"
         id="path4740" />
      <path
         d="m 195.93465,221.31004 v -1.12783 h -2.85199 v 1.12783 z m 3.86315,-3.7724 v 4.40762 q 0,0.47965 -0.12964,0.75188 -0.12963,0.27224 -0.46668,0.41484 -0.53151,0.20742 -2.17789,0.20742 -0.0648,-0.47966 -0.38891,-1.1408 h -3.55202 v 0.63522 h -1.07598 v -3.50017 h 5.02988 v 2.86495 q 1.02412,0.0259 1.2445,-0.013 0.27224,0 0.27224,-0.23335 v -3.35757 h -7.99854 v 4.7706 h -1.20561 v -5.80768 z m -2.9557,-1.55564 v -1.07597 h -4.69282 v 1.07597 z m -5.88547,-1.93157 h 7.12998 v 2.77421 h -7.12998 z m 4.12242,-1.71119 h 5.15951 v 1.07597 h -11.44685 v -1.07597 h 5.02988 v -1.19265 h 1.25746 z"
         style="font-style:normal;font-variant:normal;font-weight:500;font-stretch:normal;font-family:'Gen Shin Gothic';-inkscape-font-specification:'Gen Shin Gothic Medium';fill:#fffc32;fill-opacity:1;stroke-width:0.26458332px"
         id="path4742" />
      <path
         d="m 213.79847,218.09507 h -2.73531 v 0.9982 h 2.35937 v 1.06301 h -2.35937 v 1.82787 q 0,0.50558 -0.1426,0.76485 -0.1426,0.27223 -0.50558,0.40187 -0.53151,0.19445 -2.26863,0.19445 -0.0908,-0.47965 -0.45373,-1.15376 1.29636,0.0389 1.80194,0.013 0.18149,-0.013 0.23335,-0.0648 0.0648,-0.0519 0.0648,-0.18149 v -1.80194 h -4.56318 q 1.3871,0.97227 1.9575,1.78898 l -0.9593,0.79077 q -0.2852,-0.44076 -0.88153,-0.99819 -0.59632,-0.5704 -1.23154,-1.03709 l 0.72596,-0.54447 h -2.56679 v -1.06301 h 7.51888 v -0.9982 h -7.95964 v -1.03709 h 5.31507 v -1.01116 h -3.99278 v -1.02412 h 3.99278 v -0.80374 h 0.31113 q -0.24631,-0.16853 -0.51855,-0.32409 0.44077,-0.37595 0.67411,-0.66115 h -2.16492 q 0.37595,0.84264 0.4278,1.02413 l -1.06301,0.41483 q -0.1426,-0.49261 -0.58337,-1.43896 h -0.37594 q -0.60929,0.93338 -1.2445,1.5686 -0.45373,-0.40187 -1.02413,-0.70004 1.29636,-1.11486 2.03529,-3.00755 l 1.19265,0.29816 q -0.0907,0.23335 -0.37595,0.81671 h 3.21497 v 0.98523 q 0.82967,-1.01116 1.19265,-2.1001 l 1.19265,0.27224 q -0.0648,0.18149 -0.36298,0.84263 h 4.01871 v 1.02412 h -2.54086 q 0.50558,0.77782 0.62225,1.05005 l -1.06301,0.4278 q -0.24631,-0.60929 -0.88153,-1.47785 h -0.73892 q -0.20742,0.32409 -0.75189,0.98524 h 0.0778 v 0.80374 h 4.14835 v 1.02412 h -4.14835 v 1.01116 h 5.37989 z"
         style="font-style:normal;font-variant:normal;font-weight:500;font-stretch:normal;font-family:'Gen Shin Gothic';-inkscape-font-specification:'Gen Shin Gothic Medium';fill:#fffc32;fill-opacity:1;stroke-width:0.26458332px"
         id="path4744" />
      <path
         d="m 216.65047,214.40045 v 1.94454 h -1.15376 v -3.03348 h 1.90564 q -0.37594,-0.77782 -1.02412,-1.52971 l 1.05005,-0.47965 q 0.90745,1.01116 1.24451,1.77601 l -0.47966,0.23335 h 2.45012 q -0.29816,-0.86857 -0.92041,-1.82787 l 1.06301,-0.38891 q 0.77782,1.02413 1.07598,1.9575 l -0.64818,0.25928 h 2.2427 q 0.75189,-0.97227 1.29636,-2.07418 l 1.29636,0.41484 q -0.63522,0.93337 -1.23154,1.65934 h 1.91861 v 3.03348 h -1.21858 v -1.94454 z m 10.29309,4.18724 v 1.14079 h -5.23729 v 2.21678 q 0,0.51854 -0.15557,0.80374 -0.15556,0.2852 -0.55743,0.41483 -0.58336,0.18149 -2.48901,0.18149 -0.10371,-0.3889 -0.51854,-1.19265 0.63521,0.0259 1.30932,0.0389 0.68707,0 0.81671,-0.013 0.19445,-0.013 0.25927,-0.0648 0.0778,-0.0648 0.0778,-0.20741 v -2.17789 h -5.17247 v -1.14079 h 5.17247 v -0.90745 h 0.62225 q 0.81671,-0.45373 1.50378,-0.9982 h -5.04284 v -1.07598 h 6.22252 l 0.25928,-0.0648 0.80374,0.59633 q -1.20562,1.30932 -3.11126,2.28159 v 0.16853 z"
         style="font-style:normal;font-variant:normal;font-weight:500;font-stretch:normal;font-family:'Gen Shin Gothic';-inkscape-font-specification:'Gen Shin Gothic Medium';fill:#fffc32;fill-opacity:1;stroke-width:0.26458332px"
         id="path4746" />
      <path
         d="m 240.30902,213.03927 v 1.1408 h -7.24665 v -1.1408 h 2.96867 v -1.87972 h 1.23154 v 1.87972 z m -2.86495,1.91861 0.94634,-0.53151 q 1.51674,1.5686 2.13899,2.78718 l -1.03709,0.59632 q -0.58336,-1.2445 -2.04824,-2.85199 z m -2.73532,-0.49262 1.11487,0.46669 q -0.93338,1.84083 -2.26863,2.98163 -0.2852,-0.36298 -0.84263,-0.77782 0.58336,-0.47965 1.12783,-1.21857 0.54447,-0.73893 0.86856,-1.45193 z m -1.62045,3.90205 -0.70003,0.92041 q -0.35002,-0.80374 -0.98523,-1.85379 v 5.89843 h -1.15376 v -5.65212 q -0.72597,2.19084 -1.50378,3.26682 -0.1426,-0.44076 -0.59633,-1.10191 0.58337,-0.80374 1.12784,-2.12602 0.54447,-1.32229 0.85559,-2.64458 h -1.71119 v -1.14079 h 1.82787 v -2.77421 h 1.15376 v 2.77421 h 1.51674 v 1.14079 h -1.51674 v 0.84264 q 0.25927,0.32409 0.86856,1.21857 0.60928,0.89449 0.8167,1.23155 z m 4.60208,-1.55564 1.2445,0.25928 q -0.5704,1.80194 -1.5297,3.13718 1.34821,1.426 3.15015,2.07418 -0.47965,0.38891 -0.8556,1.08894 -1.75008,-0.73892 -3.0983,-2.20381 -1.43895,1.46489 -3.46127,2.21677 -0.22038,-0.49261 -0.63522,-0.98523 1.99639,-0.70003 3.35757,-2.16492 -0.95931,-1.34821 -1.56859,-3.03348 l 1.06301,-0.31112 q 0.49262,1.36117 1.25747,2.3853 0.73892,-1.10191 1.07598,-2.46309 z"
         style="font-style:normal;font-variant:normal;font-weight:500;font-stretch:normal;font-family:'Gen Shin Gothic';-inkscape-font-specification:'Gen Shin Gothic Medium';fill:#fffc32;fill-opacity:1;stroke-width:0.26458332px"
         id="path4748" />
      <path
         d="m 250.20024,214.53008 h -5.23729 q 0.93338,2.50198 2.64458,4.25206 1.65933,-1.69823 2.59271,-4.25206 z m 3.42239,0 h -1.98343 q -1.11487,3.0983 -3.05941,5.12062 2.15196,1.77601 5.21137,2.47605 -0.49262,0.49261 -0.88153,1.21857 -3.16311,-0.82967 -5.36692,-2.73531 -2.12603,1.76304 -5.27618,2.76124 -0.18149,-0.45372 -0.77782,-1.20561 3.08534,-0.84264 5.10766,-2.47605 -1.87972,-2.07417 -2.98163,-5.15951 h -1.93157 v -1.19265 h 5.3021 v -2.17788 h 1.25747 v 2.17788 h 5.37989 z"
         style="font-style:normal;font-variant:normal;font-weight:500;font-stretch:normal;font-family:'Gen Shin Gothic';-inkscape-font-specification:'Gen Shin Gothic Medium';fill:#fffc32;fill-opacity:1;stroke-width:0.26458332px"
         id="path4750" />
      <path
         d="m 258.27655,211.354 1.20561,0.40187 q -0.63521,1.46489 -1.42599,2.72236 v 8.84117 h -1.23154 v -7.10405 q -0.72596,0.92041 -1.54267,1.6723 -0.22038,-0.55743 -0.73893,-1.28339 1.10191,-0.92042 2.08714,-2.32049 0.9982,-1.40006 1.64638,-2.92977 z m 4.44651,10.64311 h 2.30752 q 0.50558,0 0.66114,-0.44076 0.15556,-0.45373 0.23335,-1.91861 0.57039,0.40187 1.15376,0.5315 -0.11668,1.7112 -0.51855,2.34641 -0.38891,0.64818 -1.43896,0.64818 h -2.51493 q -1.12784,0 -1.52971,-0.4278 -0.40187,-0.42779 -0.40187,-1.63341 v -9.63194 h 1.23154 v 4.75763 q 2.2427,-1.2445 3.68166,-2.56679 l 0.89449,1.07598 q -1.55563,1.19265 -4.57615,2.74828 v 3.62981 q 0,0.55743 0.1426,0.72596 0.15557,0.15556 0.67411,0.15556 z"
         style="font-style:normal;font-variant:normal;font-weight:500;font-stretch:normal;font-family:'Gen Shin Gothic';-inkscape-font-specification:'Gen Shin Gothic Medium';fill:#fffc32;fill-opacity:1;stroke-width:0.26458332px"
         id="path4752" />
      <path
         d="m 270.63085,219.96183 1.23154,0.36298 q -0.45372,0.77781 -1.16672,1.5297 -0.713,0.73893 -1.46489,1.24451 -0.5315,-0.50558 -1.02412,-0.80375 1.63341,-0.93338 2.42419,-2.33344 z m 8.64672,-0.46669 h -4.45948 v 2.59272 q 0,0.47965 -0.12963,0.72596 -0.12964,0.2463 -0.47966,0.36298 -0.47965,0.18149 -2.19084,0.18149 -0.10371,-0.51855 -0.41484,-1.10191 1.21858,0.0389 1.69823,0.013 0.2852,0 0.2852,-0.20742 v -2.56679 h -4.38169 v -1.11487 h 10.07271 z m -3.03348,1.08894 1.01116,-0.60929 q 0.72596,0.55743 1.49081,1.27043 0.77781,0.713 1.17969,1.24451 l -1.07598,0.68707 q -0.38891,-0.53151 -1.15376,-1.2834 -0.75189,-0.75189 -1.45192,-1.30932 z m -5.87251,-6.83181 q -0.31113,0.35001 -0.59632,0.62225 0.99819,0.68707 1.43895,1.05005 0.31113,-0.29816 0.62226,-0.713 -0.44077,-0.33705 -1.46489,-0.9593 z m 2.54086,-0.90745 h -1.8149 q -0.0389,0.0389 -0.10371,0.1426 -0.0648,0.1037 -0.10371,0.1426 0.88153,0.51854 1.43896,0.88152 0.40187,-0.68707 0.58336,-1.16672 z m 6.30031,-0.93338 0.8167,0.54447 q -0.93337,1.78897 -2.3464,3.13719 1.17968,1.07598 2.80013,1.59452 -0.46669,0.40187 -0.77782,1.03709 -1.65933,-0.62226 -2.87791,-1.80194 v 0.6741 h -5.04284 v -0.64818 q -1.36117,1.27044 -3.16311,1.95751 -0.25928,-0.55744 -0.66115,-0.97227 1.426,-0.47966 2.57976,-1.40007 -0.60929,-0.54447 -1.41303,-1.10191 -0.15557,0.12964 -0.49262,0.36298 -0.32409,-0.49261 -0.79078,-0.79077 1.03709,-0.67411 1.78898,-1.55564 0.76485,-0.89448 1.19265,-1.78897 l 1.17968,0.20742 -0.35001,0.62225 h 1.6723 l 0.20742,-0.0389 0.75188,0.31112 q -0.62225,2.19085 -2.06121,3.73352 h 4.17428 q -1.49081,-1.68527 -2.25566,-4.44651 l 1.06301,-0.23335 q 0.58336,2.06121 1.73712,3.48721 0.73893,-0.76485 1.34821,-1.80194 H 275.92 v -1.02412 h 3.07237 z"
         style="font-style:normal;font-variant:normal;font-weight:500;font-stretch:normal;font-family:'Gen Shin Gothic';-inkscape-font-specification:'Gen Shin Gothic Medium';fill:#fffc32;fill-opacity:1;stroke-width:0.26458332px"
         id="path4754" />
    </g>
    <text
       xml:space="preserve"
       style="font-style:normal;font-variant:normal;font-weight:normal;font-stretch:normal;font-size:16.76965904px;line-height:56.68144608px;font-family:'Gen Shin Gothic';-inkscape-font-specification:'Gen Shin Gothic';letter-spacing:0px;word-spacing:0px;fill:#fffc32;fill-opacity:1;stroke:none;stroke-width:0.26458332px;stroke-linecap:butt;stroke-linejoin:miter;stroke-opacity:1"
       x="12.467895"
       y="245.61456"
       id="text4570"><tspan
         sodipodi:role="line"
         id="tspan4568"
         x="12.467895"
         y="279.99826"
         style="font-style:normal;font-variant:normal;font-weight:normal;font-stretch:normal;font-family:MgC;-inkscape-font-specification:MgC;fill:#fffc32;fill-opacity:1;stroke-width:0.26458332px" /></text>
    <g
       aria-label="2018年 6月2･3日"
       style="font-style:normal;font-variant:normal;font-weight:normal;font-stretch:normal;font-size:16.77000809px;line-height:56.68261719px;font-family:MgC;-inkscape-font-specification:MgC;letter-spacing:0px;word-spacing:0px;fill:#fffc32;fill-opacity:1;stroke:none;stroke-width:0.26458329px;stroke-linecap:butt;stroke-linejoin:miter;stroke-opacity:1"
       id="text4578">
      <path
         d="m 113.97909,231.80755 q 1.80146,0 2.78408,0.91711 0.999,0.91711 0.999,2.57118 0,1.6377 -1.19552,3.30815 -1.19552,1.67045 -4.45454,4.45453 v 0.0328 h 5.69919 v 1.13001 h -7.54978 v -1.13001 q 3.57018,-2.94785 4.84758,-4.60192 1.2774,-1.65408 1.2774,-3.11163 0,-1.19551 -0.65508,-1.80146 -0.65508,-0.62233 -1.9161,-0.62233 -1.60494,0 -3.30815,0.96624 v -1.31015 q 1.55581,-0.80247 3.47192,-0.80247 z"
         style="font-style:normal;font-variant:normal;font-weight:normal;font-stretch:normal;font-family:MgC;-inkscape-font-specification:MgC;fill:#fffc32;fill-opacity:1;stroke-width:0.26458329px"
         id="path4707" />
      <path
         d="m 121.20133,233.2651 q 1.14639,-1.45755 3.24264,-1.45755 2.09625,0 3.25901,1.45755 1.16277,1.45755 1.16277,4.8312 0,3.37365 -1.16277,4.8312 -1.16276,1.45755 -3.25901,1.45755 -2.09625,0 -3.25902,-1.45755 -1.14639,-1.45755 -1.14639,-4.8312 0,-3.37365 1.16277,-4.8312 z m 0.94986,8.79442 q 0.75334,1.24465 2.29278,1.24465 1.55581,0 2.30915,-1.22827 0.76972,-1.24465 0.76972,-3.9796 0,-2.73495 -0.76972,-3.96323 -0.75334,-1.22827 -2.30915,-1.22827 -1.53944,0 -2.30915,1.22827 -0.75335,1.22828 -0.75335,3.96323 0,2.73495 0.76972,3.96322 z"
         style="font-style:normal;font-variant:normal;font-weight:normal;font-stretch:normal;font-family:MgC;-inkscape-font-specification:MgC;fill:#fffc32;fill-opacity:1;stroke-width:0.26458329px"
         id="path4709" />
      <path
         d="M 134.99073,244.22128 V 233.478 h -0.0328 l -3.43917,2.78408 v -1.4903 l 3.47192,-2.80046 h 1.34291 v 12.24996 z"
         style="font-style:normal;font-variant:normal;font-weight:normal;font-stretch:normal;font-family:MgC;-inkscape-font-specification:MgC;fill:#fffc32;fill-opacity:1;stroke-width:0.26458329px"
         id="path4711" />
      <path
         d="m 149.22231,234.73902 q 0,2.03075 -2.3419,2.88235 v 0.0327 q 2.78408,0.81885 2.78408,3.25902 0,1.58856 -1.17914,2.53843 -1.17914,0.93348 -3.24264,0.93348 -2.0635,0 -3.24264,-0.93348 -1.16276,-0.93349 -1.16276,-2.53843 0,-1.08088 0.72058,-1.91611 0.72059,-0.83522 2.0635,-1.24465 v -0.0327 q -1.13001,-0.4258 -1.73596,-1.19552 -0.60595,-0.76972 -0.60595,-1.78509 0,-1.32653 1.06451,-2.129 1.0645,-0.80247 2.89872,-0.80247 1.8506,0 2.9151,0.81884 1.0645,0.80248 1.0645,2.11263 z m -3.9796,2.44017 q 1.29378,-0.26203 1.99799,-0.86798 0.72058,-0.62232 0.72058,-1.44117 0,-0.91711 -0.72058,-1.44117 -0.70421,-0.54044 -1.99799,-0.54044 -1.2774,0 -1.98161,0.52406 -0.68784,0.52406 -0.68784,1.45755 0,0.83522 0.68784,1.45755 0.70421,0.60595 1.98161,0.8516 z m -0.0491,1.04813 q -1.52306,0.29478 -2.30915,0.99899 -0.76972,0.68783 -0.76972,1.6377 0,1.14638 0.83522,1.80146 0.83523,0.65508 2.29278,0.65508 1.47393,0 2.29277,-0.65508 0.81885,-0.67145 0.81885,-1.80146 0,-2.03075 -3.16075,-2.63669 z"
         style="font-style:normal;font-variant:normal;font-weight:normal;font-stretch:normal;font-family:MgC;-inkscape-font-specification:MgC;fill:#fffc32;fill-opacity:1;stroke-width:0.26458329px"
         id="path4713" />
      <path
         d="m 155.28178,240.47096 h 3.75033 v -3.32452 h -3.75033 z m 11.08721,0 v 1.19552 h -6.07586 v 3.84858 h -1.26102 v -3.84858 h -7.7463 v -1.19552 h 2.75133 v -4.50367 h 4.99497 v -2.53842 h -4.07786 q -1.13001,1.93248 -2.53843,3.29176 -0.65508,-0.55681 -1.08088,-0.78609 1.17914,-1.03175 2.17813,-2.57118 1.01537,-1.53944 1.60494,-3.20989 l 1.24465,0.29479 q -0.22927,0.57319 -0.76971,1.76871 h 10.00632 v 1.2119 h -5.30614 v 2.53842 h 4.91309 v 1.17915 h -4.91309 v 3.32452 z"
         style="font-style:normal;font-variant:normal;font-weight:normal;font-stretch:normal;font-family:MgC;-inkscape-font-specification:MgC;fill:#fffc32;fill-opacity:1;stroke-width:0.26458329px"
         id="path4715" />
      <path
         d="m 180.14201,232.20059 v 1.17914 q -1.16276,-0.45855 -2.45654,-0.44217 -1.53944,0 -2.50568,1.16276 -0.96624,1.16277 -1.09725,3.37366 l 0.0327,0.0164 q 1.03175,-1.44117 3.25902,-1.44117 1.81784,0 2.88234,1.09726 1.08088,1.09725 1.08088,2.93147 0,2.01437 -1.17914,3.16076 -1.16276,1.14638 -3.11162,1.14638 -4.35627,0 -4.37265,-5.53541 0,-3.53742 1.29378,-5.28976 1.31016,-1.75233 3.71757,-1.75233 1.34291,0 2.45654,0.39304 z m -3.09524,11.07083 q 1.39204,0 2.16176,-0.81885 0.78609,-0.83522 0.78609,-2.37466 0,-1.35929 -0.80247,-2.16176 -0.7861,-0.81885 -2.09625,-0.81885 -1.32654,0 -2.17814,0.81885 -0.8516,0.80247 -0.8516,2.0635 0,1.26103 0.73696,2.2764 0.75334,1.01537 2.24365,1.01537 z"
         style="font-style:normal;font-variant:normal;font-weight:normal;font-stretch:normal;font-family:MgC;-inkscape-font-specification:MgC;fill:#fffc32;fill-opacity:1;stroke-width:0.26458329px"
         id="path4717" />
      <path
         d="m 186.72555,239.09529 h 7.84456 v -2.81683 h -7.66441 q 0,1.45755 -0.18015,2.81683 z m 7.84456,-6.79643 h -7.66441 v 2.78408 h 7.66441 z m 1.29378,-1.22828 v 12.61026 q 0,1.22828 -0.88435,1.50668 -0.73697,0.24566 -3.53743,0.24566 -0.14739,-0.65508 -0.52406,-1.29378 0.93349,0.0327 3.128,0.0327 0.29479,-0.0164 0.40942,-0.11464 0.11464,-0.11464 0.11464,-0.39304 v -3.35728 h -8.05746 q -0.75334,3.35728 -2.88235,5.22425 -0.26203,-0.4258 -0.91711,-0.90073 0.94987,-0.83523 1.57219,-1.88335 0.62233,-1.06451 0.90073,-2.24365 0.27841,-1.17914 0.3603,-2.129 0.0983,-0.96624 0.0983,-2.16176 v -5.14237 z"
         style="font-style:normal;font-variant:normal;font-weight:normal;font-stretch:normal;font-family:MgC;-inkscape-font-specification:MgC;fill:#fffc32;fill-opacity:1;stroke-width:0.26458329px"
         id="path4719" />
      <path
         d="m 204.01962,231.80755 q 1.80147,0 2.78409,0.91711 0.99899,0.91711 0.99899,2.57118 0,1.6377 -1.19552,3.30815 -1.19552,1.67045 -4.45453,4.45453 v 0.0328 h 5.69918 v 1.13001 h -7.54978 v -1.13001 q 3.57018,-2.94785 4.84758,-4.60192 1.27741,-1.65408 1.27741,-3.11163 0,-1.19551 -0.65508,-1.80146 -0.65508,-0.62233 -1.91611,-0.62233 -1.60494,0 -3.30814,0.96624 v -1.31015 q 1.55581,-0.80247 3.47191,-0.80247 z"
         style="font-style:normal;font-variant:normal;font-weight:normal;font-stretch:normal;font-family:MgC;-inkscape-font-specification:MgC;fill:#fffc32;fill-opacity:1;stroke-width:0.26458329px"
         id="path4721" />
      <path
         d="m 212.48651,238.84964 q -0.40942,-0.4258 -0.40942,-0.99899 0,-0.5732 0.40942,-0.98262 0.40943,-0.4258 0.98262,-0.4258 0.5732,0 0.98262,0.4258 0.4258,0.40942 0.4258,0.98262 0,0.57319 -0.4258,0.99899 -0.40942,0.40942 -0.98262,0.40942 -0.57319,0 -0.98262,-0.40942 z"
         style="font-style:normal;font-variant:normal;font-weight:normal;font-stretch:normal;font-family:MgC;-inkscape-font-specification:MgC;fill:#fffc32;fill-opacity:1;stroke-width:0.26458329px"
         id="path4723" />
      <path
         d="m 219.1028,231.97132 h 7.35326 v 1.13001 l -4.01236,3.94684 v 0.0328 h 0.50769 q 1.78509,0 2.71858,0.8516 0.94986,0.8516 0.94986,2.4893 0,1.9161 -1.13001,2.94785 -1.13001,1.01537 -3.22626,1.01537 -1.70321,0 -3.04612,-0.6387 v -1.29378 q 1.40842,0.80247 3.04612,0.81885 1.47392,0 2.24364,-0.72059 0.76972,-0.72058 0.76972,-2.129 0,-1.19552 -0.80247,-1.76871 -0.7861,-0.58957 -2.53843,-0.58957 h -1.22827 v -1.03175 l 4.01235,-3.89772 v -0.0328 h -5.6173 z"
         style="font-style:normal;font-variant:normal;font-weight:normal;font-stretch:normal;font-family:MgC;-inkscape-font-specification:MgC;fill:#fffc32;fill-opacity:1;stroke-width:0.26458329px"
         id="path4725" />
      <path
         d="m 232.33539,242.99301 h 8.3195 v -4.66743 h -8.3195 z m 8.3195,-10.43212 h -8.3195 v 4.53641 h 8.3195 z m -9.58052,-1.2119 h 10.89067 v 13.88766 h -1.31015 v -1.01537 h -8.3195 v 1.09726 h -1.26102 z"
         style="font-style:normal;font-variant:normal;font-weight:normal;font-stretch:normal;font-family:MgC;-inkscape-font-specification:MgC;fill:#fffc32;fill-opacity:1;stroke-width:0.26458329px"
         id="path4727" />
    </g>
    <g
       aria-label="各種展示 イベント 食べ物"
       style="font-style:normal;font-variant:normal;font-weight:normal;font-stretch:normal;font-size:15.89470482px;line-height:17.82553482px;font-family:'Gen Shin Gothic';-inkscape-font-specification:'Gen Shin Gothic';letter-spacing:0px;word-spacing:0px;fill:#fffc32;fill-opacity:1;stroke:none;stroke-width:0.26458332px;stroke-linecap:butt;stroke-linejoin:miter;stroke-opacity:1"
       id="text4632">
      <path
         d="m 35.033156,231.91023 h -6.938411 v 2.82504 h 6.938411 z m -8.118097,4.62561 v -5.72768 h 9.344348 v 5.68111 h -1.226251 v -0.68297 h -6.938411 v 0.72954 z m 1.986839,-11.87446 -0.124178,0.1397 q 1.164163,1.36595 2.902646,2.43698 1.92475,-1.17969 3.088913,-2.57668 z m 6.938411,-1.1176 0.822675,0.5588 q -1.257296,2.00236 -3.865021,3.78741 2.809513,1.53669 6.193347,2.20415 -0.35701,0.35701 -0.760587,1.08655 -3.554577,-0.82268 -6.534834,-2.62325 -3.135479,1.78505 -6.938412,2.68534 -0.170744,-0.57432 -0.57432,-1.07103 3.523533,-0.76059 6.457224,-2.31281 -1.56774,-1.11759 -2.607725,-2.3128 -1.21073,1.13312 -2.530114,1.95579 -0.419099,-0.49671 -0.915809,-0.86924 1.521173,-0.8382 2.85608,-2.09549 1.350429,-1.27282 2.173104,-2.71638 l 1.133119,0.38805 q -0.403576,0.68298 -0.962375,1.397 h 5.851859 z"
         style="font-style:normal;font-variant:normal;font-weight:normal;font-stretch:normal;font-family:'Gen Shin Gothic';-inkscape-font-specification:'Gen Shin Gothic';text-align:center;text-anchor:middle;fill:#fffc32;fill-opacity:1;stroke-width:0.26458332px"
         id="path4684" />
      <path
         d="m 46.271209,230.65293 -0.71402,0.93133 q -0.372532,-0.66745 -1.443562,-1.95579 v 6.79871 h -1.148641 v -7.03154 q -1.133119,2.76295 -2.297282,4.15994 -0.108655,-0.35701 -0.589842,-1.07103 0.745064,-0.82267 1.490128,-2.20415 0.745065,-1.38147 1.241774,-2.77847 h -2.436981 v -1.10207 h 2.592203 v -2.42146 q -1.164163,0.23283 -2.312804,0.40358 -0.09313,-0.40358 -0.372532,-0.93133 3.383834,-0.52776 5.044706,-1.27282 l 0.807153,0.90028 q -0.993419,0.40358 -2.017882,0.63641 v 2.68534 h 1.986838 v 1.10207 h -1.986838 v 0.9779 q 0.35701,0.29492 1.133118,1.08655 0.776109,0.79163 1.024464,1.08655 z m 1.226251,0.2794 h 2.219671 v -1.25729 H 47.49746 Z m 0,-3.27517 v 1.22625 h 2.219671 v -1.22625 z m 5.650071,0 H 50.85025 v 1.22625 h 2.297281 z m 0,3.27517 v -1.25729 H 50.85025 v 1.25729 z m -2.297281,4.22203 h 3.973676 v 0.9779 h -9.453003 v -0.9779 h 4.346208 v -1.24177 h -3.445922 v -0.94685 h 3.445922 v -1.13312 h -3.275178 v -5.07575 h 3.275178 v -1.05551 h -3.942632 v -0.9779 h 3.942632 v -1.0555 q -1.474606,0.0931 -3.383834,0.15522 -0.03104,-0.4191 -0.263877,-0.90029 5.21545,-0.21731 7.698998,-0.77611 l 0.729542,0.90029 q -1.443562,0.31044 -3.64771,0.51223 v 1.16416 h 3.678755 v 0.9779 H 50.85025 v 1.05551 h 3.352789 v 5.07575 H 50.85025 v 1.13312 h 3.4304 v 0.94685 h -3.4304 z"
         style="font-style:normal;font-variant:normal;font-weight:normal;font-stretch:normal;font-family:'Gen Shin Gothic';-inkscape-font-specification:'Gen Shin Gothic';text-align:center;text-anchor:middle;fill:#fffc32;fill-opacity:1;stroke-width:0.26458332px"
         id="path4686" />
      <path
         d="m 62.910978,229.05415 v 1.61431 h 3.182045 v -1.61431 z m 0,-2.46802 v 1.44356 h 3.182045 v -1.44356 z m -4.004721,-2.84056 v 1.80057 h 9.49957 v -1.80057 z m 9.85658,8.04048 0.884764,0.62089 q -1.148641,0.86924 -2.530114,1.59878 1.474606,1.10208 3.539055,1.49013 -0.481187,0.48119 -0.698498,0.99342 -4.315164,-1.07103 -5.944992,-4.79635 h -1.955794 v 3.02682 q 0.155222,-0.031 3.35279,-0.54327 l 0.04657,1.03998 q -1.303862,0.21731 -3.663233,0.62089 -2.343848,0.40358 -2.468025,0.4191 l -0.186266,-1.10208 q 0.232832,-0.031 1.816094,-0.27939 v -3.18205 h -2.00236 v -1.02446 h 2.85608 v -1.61431 h -2.374893 v -1.02446 h 2.374893 v -1.44356 h -2.902647 v 0.74506 q 0,6.17782 -1.878183,9.14256 -0.43462,-0.37253 -1.024463,-0.60537 0.558798,-0.88476 0.93133,-1.98683 0.372532,-1.10208 0.527754,-2.31281 0.155222,-1.21073 0.201788,-2.12654 0.04657,-0.93133 0.04657,-2.11101 v -4.62561 h 11.843418 v 3.88055 h -2.359371 v 1.44356 h 2.669814 v 1.02446 h -2.669814 v 1.61431 h 3.306223 v 1.02446 h -5.386194 q 0.512232,0.94685 1.272819,1.69192 1.443562,-0.82268 2.374892,-1.59879 z"
         style="font-style:normal;font-variant:normal;font-weight:normal;font-stretch:normal;font-family:'Gen Shin Gothic';-inkscape-font-specification:'Gen Shin Gothic';text-align:center;text-anchor:middle;fill:#fffc32;fill-opacity:1;stroke-width:0.26458332px"
         id="path4688" />
      <path
         d="m 84.843806,223.1402 v 1.14864 H 73.760975 v -1.14864 z m -9.732402,6.53484 1.210729,0.31044 q -1.241774,3.08891 -3.2907,5.04471 -0.450144,-0.38806 -1.07103,-0.71402 2.033404,-1.76953 3.151001,-4.64113 z m 7.062588,0.45014 1.086552,-0.43462 q 0.900286,1.13312 1.707439,2.49907 0.807153,1.35043 1.148641,2.32833 l -1.148641,0.51223 q -0.341488,-0.9779 -1.133118,-2.35937 -0.791631,-1.397 -1.660873,-2.54564 z m -9.825535,-3.16652 h 13.907867 v 1.16416 h -6.317525 v 6.81423 q 0,0.5588 -0.170744,0.85372 -0.155221,0.29492 -0.57432,0.43462 -0.651931,0.21731 -2.871602,0.21731 -0.09313,-0.4967 -0.434621,-1.22625 1.769528,0.0466 2.390415,0.0155 0.403576,0 0.403576,-0.34149 v -6.76767 h -6.333046 z"
         style="font-style:normal;font-variant:normal;font-weight:normal;font-stretch:normal;font-family:'Gen Shin Gothic';-inkscape-font-specification:'Gen Shin Gothic';text-align:center;text-anchor:middle;fill:#fffc32;fill-opacity:1;stroke-width:0.26458332px"
         id="path4690" />
      <path
         d="m 36.290452,240.65529 1.055507,0.96238 q -1.924749,1.94027 -4.268597,3.44592 v 6.79871 q 0,1.24178 0.09313,1.70744 h -1.552217 q 0.09313,-0.58984 0.09313,-1.70744 v -6.00708 q -2.840558,1.55222 -5.976037,2.48355 L 25.005832,247.097 q 1.909227,-0.45015 3.802932,-1.24178 1.909228,-0.80715 3.306223,-1.67639 1.241774,-0.77611 2.374893,-1.72296 1.14864,-0.96238 1.800572,-1.80058 z"
         style="font-style:normal;font-variant:normal;font-weight:normal;font-stretch:normal;font-family:'Gen Shin Gothic';-inkscape-font-specification:'Gen Shin Gothic';text-align:center;text-anchor:middle;fill:#fffc32;fill-opacity:1;stroke-width:0.26458332px"
         id="path4692" />
      <path
         d="m 49.623998,242.6887 0.915808,-0.38806 q 0.807153,1.14865 1.490129,2.5146 l -0.931331,0.41909 q -0.760586,-1.58326 -1.474606,-2.54563 z m 2.048927,-0.79163 0.900286,-0.40358 q 0.822675,1.10208 1.552217,2.46803 l -0.915808,0.45014 q -0.71402,-1.44356 -1.536695,-2.51459 z m -10.104935,8.16466 -1.164163,-1.16416 q 0.543276,-0.48119 1.117597,-1.05551 0.341488,-0.34149 0.884764,-0.9779 0.543276,-0.65193 1.226251,-1.49013 0.682976,-0.83819 1.039986,-1.25729 0.636409,-0.77611 1.195207,-0.80715 0.574321,-0.0466 1.443562,0.65193 0.977897,0.80715 3.290701,3.2907 2.436981,2.60772 3.833977,4.25307 l -1.024464,1.1176 q -1.164163,-1.49013 -3.5701,-4.22203 -2.281759,-2.53012 -3.104434,-3.22861 -0.49671,-0.4191 -0.760587,-0.38806 -0.263876,0.0155 -0.667453,0.51223 -0.403576,0.48119 -1.459084,1.8161 -1.039986,1.3349 -1.365951,1.73848 -0.09313,0.12418 -0.915809,1.21073 z"
         style="font-style:normal;font-variant:normal;font-weight:normal;font-stretch:normal;font-family:'Gen Shin Gothic';-inkscape-font-specification:'Gen Shin Gothic';text-align:center;text-anchor:middle;fill:#fffc32;fill-opacity:1;stroke-width:0.26458332px"
         id="path4694" />
      <path
         d="m 58.145671,242.39378 0.900286,-0.9779 q 0.853719,0.5588 2.126537,1.59878 1.272819,1.02447 1.940272,1.69192 l -1.008941,1.00894 q -0.620887,-0.65193 -1.862661,-1.69191 -1.241774,-1.05551 -2.095493,-1.62983 z m 0.388054,10.97417 -0.853719,-1.30386 q 3.476966,-0.52775 6.36409,-2.3128 1.754006,-1.10208 3.166524,-2.70086 1.412517,-1.59878 2.142059,-3.151 l 0.760587,1.35043 q -0.884764,1.59878 -2.266237,3.10443 -1.365951,1.49013 -3.07339,2.54564 -2.825036,1.83161 -6.239914,2.46802 z"
         style="font-style:normal;font-variant:normal;font-weight:normal;font-stretch:normal;font-family:'Gen Shin Gothic';-inkscape-font-specification:'Gen Shin Gothic';text-align:center;text-anchor:middle;fill:#fffc32;fill-opacity:1;stroke-width:0.26458332px"
         id="path4696" />
      <path
         d="m 84.797239,247.64027 -0.527753,1.35043 q -2.669814,-1.42804 -6.255436,-2.56116 l 0.01552,5.2465 q 0,1.08655 0.09313,1.87818 h -1.521173 q 0.09313,-0.76059 0.09313,-1.87818 v -9.25122 q 0,-0.99342 -0.124177,-1.66087 h 1.552217 q -0.108655,1.16416 -0.108655,1.66087 v 2.5922 q 1.598784,0.48119 3.554577,1.24178 1.971316,0.76058 3.228612,1.38147 z"
         style="font-style:normal;font-variant:normal;font-weight:normal;font-stretch:normal;font-family:'Gen Shin Gothic';-inkscape-font-specification:'Gen Shin Gothic';text-align:center;text-anchor:middle;fill:#fffc32;fill-opacity:1;stroke-width:0.26458332px"
         id="path4698" />
      <path
         d="m 35.553714,267.51473 h -4.051287 q 0.57432,0.86924 1.443562,1.5367 1.474606,-0.74507 2.607725,-1.5367 z m -7.730042,-2.37489 v 1.397 h 6.690057 v -1.397 z m 0,-2.23519 v 1.3349 h 6.690057 v -1.3349 z m 3.896065,-0.9779 h 3.430401 q -2.623248,-1.62983 -4.051287,-3.2907 -1.288341,1.59878 -3.849499,3.2907 h 3.275178 v -1.56774 h 1.195207 z m 4.827396,4.87396 0.884764,0.68298 q -1.598784,1.13312 -3.616666,2.15758 1.831616,1.07103 4.50143,1.44356 -0.341488,0.32597 -0.71402,1.02447 -5.339628,-0.91581 -7.295421,-4.59457 h -2.483548 v 3.10444 l 4.082332,-0.38806 0.01552,1.05551 q -4.579041,0.48119 -6.876323,0.68298 l -0.186266,-1.10208 q 0.155222,-0.0155 0.776109,-0.0621 0.636409,-0.0621 1.024463,-0.0931 v -8.41302 q -0.838197,0.52776 -2.126538,1.14864 -0.294921,-0.55879 -0.698497,-0.96237 2.017882,-0.86924 3.833976,-2.21967 1.816095,-1.35043 2.778469,-2.68534 h 1.164163 q 1.288341,1.47461 3.182046,2.76295 1.893705,1.27282 3.756365,1.97132 -0.263877,0.29492 -0.760586,1.03998 -0.884764,-0.38805 -2.111016,-1.10207 v 5.1844 q 0.310444,-0.21731 0.869242,-0.63641 z"
         style="font-style:normal;font-variant:normal;font-weight:normal;font-stretch:normal;font-family:'Gen Shin Gothic';-inkscape-font-specification:'Gen Shin Gothic';text-align:center;letter-spacing:8.38916874px;text-anchor:middle;fill:#fffc32;fill-opacity:1;stroke-width:0.26458332px"
         id="path4700" />
      <path
         d="m 57.571351,260.5608 0.931331,-0.38805 q 0.807153,1.1952 1.50565,2.54563 l -0.946852,0.40358 q -0.807153,-1.64535 -1.490129,-2.56116 z m 2.079972,-0.79163 0.900286,-0.40358 q 0.93133,1.24178 1.552217,2.48355 l -0.900286,0.45014 q -0.791631,-1.53669 -1.552217,-2.53011 z m -10.182546,8.22675 -1.164163,-1.21073 q 0.450143,-0.32596 1.133119,-1.05551 0.372532,-0.37253 0.900286,-0.99342 0.527754,-0.6364 1.241774,-1.53669 0.71402,-0.91581 0.946852,-1.19521 0.698498,-0.8382 1.350429,-0.90028 0.651932,-0.0621 1.443562,0.71402 0.465666,0.48118 1.56774,1.78505 1.117596,1.30386 1.614306,1.83161 2.095493,2.34385 3.911587,3.97368 l -1.008941,1.11759 q -1.272818,-1.21072 -3.725321,-3.97367 -0.450143,-0.51223 -1.505651,-1.78505 -1.039986,-1.27282 -1.443562,-1.69192 -0.512232,-0.51223 -0.807153,-0.48119 -0.279399,0.0155 -0.682976,0.52776 -0.310443,0.40357 -1.365951,1.754 -1.055508,1.35043 -1.474606,1.87819 -0.186266,0.23283 -0.512232,0.68297 -0.310444,0.43462 -0.419099,0.5588 z"
         style="font-style:normal;font-variant:normal;font-weight:normal;font-stretch:normal;font-family:'Gen Shin Gothic';-inkscape-font-specification:'Gen Shin Gothic';text-align:center;letter-spacing:8.38916874px;text-anchor:middle;fill:#fffc32;fill-opacity:1;stroke-width:0.26458332px"
         id="path4702" />
      <path
         d="m 78.440348,265.69864 -2.00236,0.63641 v 5.78977 h -1.102075 v -5.43276 q -0.481187,0.1397 -1.365951,0.4191 -0.884764,0.2794 -1.257296,0.38805 l -0.310443,-1.13312 q 1.971316,-0.52775 2.93369,-0.83819 v -3.53906 h -1.443562 q -0.294921,1.397 -0.698497,2.34385 -0.605365,-0.4191 -0.900286,-0.52776 0.729542,-1.64535 1.086552,-5.29306 l 1.039985,0.18627 q -0.09313,0.82267 -0.294921,2.14206 h 1.210729 v -3.22861 h 1.102075 v 3.22861 h 1.64535 v 1.14864 h -1.64535 v 3.22861 l 1.847138,-0.5588 z m 7.279899,-5.44828 1.117596,0.0155 q 0,0.45014 -0.01552,0.58984 -0.263877,5.33963 -0.558798,7.60587 -0.294921,2.25071 -0.776109,2.85608 -0.372532,0.52775 -1.102074,0.60536 -0.57432,0.0776 -1.816094,0 -0.03105,-0.71402 -0.325966,-1.16416 0.900286,0.0776 1.660873,0.0776 0.35701,0 0.589842,-0.2794 0.403577,-0.43462 0.667454,-2.51459 0.279399,-2.07997 0.512231,-6.67454 h -0.760586 q -0.636409,3.33727 -1.971316,6.16231 -1.334907,2.82503 -3.21309,4.31516 -0.372532,-0.4191 -0.977897,-0.71402 1.862661,-1.33491 3.166524,-3.94263 1.303862,-2.62325 1.971316,-5.82082 h -1.303863 q -0.558798,2.14206 -1.614306,4.1289 -1.039986,1.97132 -2.297282,3.05787 -0.372532,-0.40358 -0.93133,-0.68298 1.226252,-0.94685 2.235193,-2.71638 1.024463,-1.78505 1.598784,-3.78741 h -1.365951 q -0.838198,1.86266 -1.816095,3.0113 -0.248354,-0.24835 -0.900286,-0.68297 1.893705,-2.04893 2.778469,-6.10022 l 1.07103,0.21732 q -0.279399,1.22625 -0.71402,2.4525 h 5.091273 z"
         style="font-style:normal;font-variant:normal;font-weight:normal;font-stretch:normal;font-family:'Gen Shin Gothic';-inkscape-font-specification:'Gen Shin Gothic';text-align:center;letter-spacing:8.38916874px;text-anchor:middle;fill:#fffc32;fill-opacity:1;stroke-width:0.26458332px"
         id="path4704" />
    </g>
    <g
       aria-label="高崎駅より"
       style="font-style:normal;font-variant:normal;font-weight:500;font-stretch:normal;font-size:13.27471542px;line-height:44.8685379px;font-family:'Gen Shin Gothic';-inkscape-font-specification:'Gen Shin Gothic Medium';letter-spacing:0px;word-spacing:0px;fill:#fffc32;fill-opacity:1;stroke:none;stroke-width:0.26458332px;stroke-linecap:butt;stroke-linejoin:miter;stroke-opacity:1"
       id="text4640">
      <path
         d="m 115.78078,262.89987 v -1.12783 h -2.85199 v 1.12783 z m 3.86315,-3.77241 v 4.40762 q 0,0.47966 -0.12963,0.75189 -0.12964,0.27224 -0.46669,0.41484 -0.53151,0.20741 -2.17789,0.20741 -0.0648,-0.47965 -0.3889,-1.14079 h -3.55203 v 0.63521 h -1.07598 v -3.50016 h 5.02988 v 2.86495 q 1.02412,0.0259 1.2445,-0.013 0.27224,0 0.27224,-0.23335 v -3.35757 h -7.99854 v 4.7706 h -1.20561 v -5.80769 z m -2.9557,-1.55563 v -1.07597 h -4.69282 v 1.07597 z m -5.88547,-1.93157 h 7.12998 v 2.77421 h -7.12998 z m 4.12242,-1.7112 h 5.15951 v 1.07598 h -11.44685 v -1.07598 h 5.02988 v -1.19265 h 1.25746 z"
         style="font-style:normal;font-variant:normal;font-weight:500;font-stretch:normal;font-family:'Gen Shin Gothic';-inkscape-font-specification:'Gen Shin Gothic Medium';fill:#fffc32;fill-opacity:1;stroke-width:0.26458332px"
         id="path4673" />
      <path
         d="m 125.23124,261.17571 v -6.17067 h 0.85559 v 7.98557 h -0.85559 v -0.8167 h -2.39827 v 1.21857 h -0.88152 v -8.38744 h 0.88152 v 6.17067 h 0.68707 v -8.14113 h 0.98524 v 8.14113 z m 4.42058,-0.84263 h -1.60748 v 1.37414 h 1.60748 z m 0.9982,2.26863 h -2.60568 v 0.72596 h -0.98524 v -3.87612 h 3.59092 z m -3.60388,-5.0558 h 5.4836 q -0.95931,-0.62226 -2.6705,-1.51674 -0.79078,1.06301 -2.8131,1.51674 z m 6.71514,0 v 1.02412 h -0.88152 v 5.02987 q 0,0.47966 -0.12964,0.73893 -0.12964,0.27223 -0.45373,0.40187 -0.50558,0.19445 -2.13899,0.19445 -0.0907,-0.50558 -0.4278,-1.11487 1.24451,0.0389 1.72416,0.013 0.15556,0 0.20742,-0.0519 0.0648,-0.0648 0.0648,-0.20741 v -5.00395 h -5.50953 v -1.02412 h 0.76485 q -0.18149,-0.49262 -0.58336,-0.89449 1.25747,-0.24631 1.89269,-0.66114 0.64817,-0.4278 0.90745,-1.15376 h -2.59272 v -1.01116 h 2.8131 q 0.0648,-0.49262 0.0778,-1.07598 h 1.14079 q -0.013,0.41483 -0.0648,1.07598 h 2.78717 v 1.01116 h -2.96866 q -0.013,0.0519 -0.0389,0.15556 -0.0259,0.0907 -0.0389,0.1426 1.97047,0.92041 3.08534,1.62045 l -0.70003,0.79078 z"
         style="font-style:normal;font-variant:normal;font-weight:500;font-stretch:normal;font-family:'Gen Shin Gothic';-inkscape-font-specification:'Gen Shin Gothic Medium';fill:#fffc32;fill-opacity:1;stroke-width:0.26458332px"
         id="path4675" />
      <path
         d="m 135.34284,264.24808 -0.66115,-0.37594 q 0.59633,-0.8556 0.68707,-2.99459 l 0.70004,0.12963 q -0.12964,2.39827 -0.72596,3.2409 z m 0.97227,-3.0983 0.59632,-0.0648 q 0.20742,1.20561 0.18149,2.39826 l -0.62225,0.0908 q 0.0389,-1.10191 -0.15556,-2.4242 z m 0.16852,-2.94273 v 1.02412 h 1.08894 v -1.02412 z m 1.08894,-3.92797 h -1.08894 v 0.97227 h 1.08894 z m 0,2.9557 v -1.01116 h -1.08894 v 1.01116 z m 1.02413,1.99639 h 1.94454 q -0.013,0.31113 -0.0259,0.45373 -0.11667,2.45012 -0.25927,3.4872 -0.12964,1.02413 -0.37595,1.33525 -0.29816,0.35002 -0.73892,0.38891 -0.41484,0.0519 -1.20561,0.013 -0.0259,-0.5315 -0.27224,-0.98523 0.41483,0.0519 0.95931,0.0519 0.2463,0 0.37594,-0.1426 0.18149,-0.22038 0.31113,-1.46489 l -0.44077,0.18149 q -0.19445,-0.88152 -0.68707,-1.72416 l 0.53151,-0.18149 q 0.37594,0.63522 0.62225,1.34822 0.0648,-0.86856 0.10371,-1.78898 h -4.00575 v -6.94848 h 4.93913 v 1.02412 h -1.77601 v 0.97227 h 1.54267 v 0.97227 h -1.54267 v 1.01116 h 1.54267 v 0.97227 h -1.54267 z m -0.25927,3.79833 -0.60929,0.1426 q -0.0648,-0.89448 -0.46669,-2.13899 l 0.5704,-0.11667 q 0.4278,1.19265 0.50558,2.11306 z m 7.10404,-8.64671 h -2.94273 v 3.31868 h 2.94273 z m 1.11487,4.45948 h -2.00935 q 0.66114,3.87611 2.59271,5.13358 -0.19445,0.15556 -0.44076,0.45372 -0.23334,0.31113 -0.35002,0.54447 -1.19265,-0.84263 -1.86675,-2.37233 -0.67411,-1.52971 -1.03709,-3.75944 h -0.94634 q -0.0778,4.17427 -1.43896,6.11881 -0.4278,-0.40187 -0.9982,-0.63522 0.79078,-1.12783 1.03709,-2.64457 0.24631,-1.5297 0.24631,-3.40942 v -5.01691 h 5.21136 z"
         style="font-style:normal;font-variant:normal;font-weight:500;font-stretch:normal;font-family:'Gen Shin Gothic';-inkscape-font-specification:'Gen Shin Gothic Medium';fill:#fffc32;fill-opacity:1;stroke-width:0.26458332px"
         id="path4677" />
      <path
         d="m 153.6215,261.94056 q 0,-0.40187 -0.013,-0.66114 -0.58336,-0.11667 -1.19265,-0.11667 -0.89448,0 -1.41303,0.2852 -0.50558,0.2852 -0.50558,0.77781 0,0.50558 0.47966,0.76485 0.49261,0.25928 1.33525,0.25928 0.68707,0 0.99819,-0.31113 0.31113,-0.32409 0.31113,-0.9982 z m 5.36692,0.63522 -0.80374,1.2445 q -1.41303,-1.41303 -3.18904,-2.13899 0.013,0.2852 0.013,0.70003 0,0.93338 -0.60929,1.52971 -0.60928,0.59632 -1.97046,0.59632 -1.47785,0 -2.37234,-0.5315 -0.89449,-0.53151 -0.89449,-1.68527 0,-1.01116 0.86856,-1.64638 0.88153,-0.64818 2.55383,-0.64818 0.32409,0 0.97227,0.0519 -0.0907,-2.42419 -0.0907,-2.94274 0,-0.41483 -0.013,-1.21857 0,-0.81671 0,-1.06302 -0.0259,-0.93338 -0.12963,-1.41303 h 1.58155 q -0.0519,0.35002 -0.11667,1.41303 v 1.15376 q 2.08714,-0.0259 3.79833,-0.22038 l 0.0519,1.25747 q -1.52971,0.1426 -3.85019,0.19445 0,0.4278 0.12964,3.12423 2.34641,0.66114 4.07056,2.2427 z"
         style="font-style:normal;font-variant:normal;font-weight:500;font-stretch:normal;font-family:'Gen Shin Gothic';-inkscape-font-specification:'Gen Shin Gothic Medium';fill:#fffc32;fill-opacity:1;stroke-width:0.26458332px"
         id="path4679" />
      <path
         d="m 164.04422,253.31978 1.426,0.0519 q -0.40187,1.40007 -0.5704,3.25386 0.49262,-1.03709 1.41303,-1.82786 0.93338,-0.79078 2.02232,-0.79078 1.36118,0 2.22974,1.25746 0.88152,1.24451 0.88152,3.33165 0,4.93912 -5.63916,5.96325 l -0.79078,-1.19265 q 1.16673,-0.18149 2.00936,-0.47966 0.8556,-0.31112 1.56859,-0.84263 0.713,-0.54447 1.07598,-1.40007 0.37595,-0.86856 0.37595,-2.04824 0,-1.55563 -0.50558,-2.46309 -0.50558,-0.92041 -1.43896,-0.92041 -0.76485,0 -1.49082,0.67411 -0.72596,0.66114 -1.17968,1.60748 -0.44076,0.94634 -0.49262,1.8149 -0.0648,0.55744 0.0519,1.50378 l -1.29636,0.10371 q -0.15557,-1.17969 -0.15557,-2.12603 0,-1.40007 0.40188,-4.23909 0.0907,-0.72596 0.1037,-1.23154 z"
         style="font-style:normal;font-variant:normal;font-weight:500;font-stretch:normal;font-family:'Gen Shin Gothic';-inkscape-font-specification:'Gen Shin Gothic Medium';fill:#fffc32;fill-opacity:1;stroke-width:0.26458332px"
         id="path4681" />
    </g>
    <g
       aria-label="無料シャトルバス運行！"
       style="font-style:normal;font-variant:normal;font-weight:normal;font-stretch:normal;font-size:18.0583992px;line-height:61.03739166px;font-family:'Gen Shin Gothic';-inkscape-font-specification:'Gen Shin Gothic';letter-spacing:0px;word-spacing:0px;fill:#fffc32;fill-opacity:1;stroke:none;stroke-width:0.26458332px;stroke-linecap:butt;stroke-linejoin:miter;stroke-opacity:1"
       id="text4648">
      <path
         d="m 121.08826,272.31486 v -3.05088 h -2.11622 v 3.05088 z m 0,4.28535 v -3.08615 h -2.11622 v 3.08615 z m -8.51778,-3.08615 v 3.08615 h 2.01041 v -3.08615 z m 5.23764,0 h -2.09858 v 3.08615 h 2.09858 z m -2.09858,-1.1992 h 2.09858 v -3.05088 h -2.09858 z m -3.13906,-3.05088 v 3.05088 h 2.01041 v -3.05088 z m -1.19919,3.05088 v -2.32784 q -0.82885,0.93467 -1.62244,1.6048 -0.59959,-0.59959 -1.11101,-0.88175 1.18155,-0.86413 2.18676,-2.09859 1.02284,-1.25209 1.6577,-2.61 l 1.28737,0.37034 q -0.3527,0.79358 -0.9523,1.71061 h 11.39231 v 1.18155 h -1.86933 v 3.05088 h 2.53947 v 1.1992 h -2.53947 v 3.08615 h 2.27494 v 1.21682 h -15.46603 v -1.21682 h 2.22203 v -3.08615 h -2.52183 v -1.1992 z m -1.37554,10.19312 -1.26974,-0.52905 q 0.68778,-0.54669 1.28737,-1.46372 0.5996,-0.93466 0.9523,-1.93987 l 1.2521,0.2998 q -0.77595,2.36311 -2.22203,3.63284 z m 4.09135,-3.49176 1.23446,-0.12344 q 0.42325,2.08095 0.44088,3.24487 l -1.28736,0.19398 q -0.0353,-1.49899 -0.38798,-3.31541 z m 3.65048,0.0176 1.2521,-0.22926 q 0.82885,1.69298 1.14628,3.26251 l -1.28737,0.28216 q -0.29979,-1.44608 -1.11101,-3.31541 z m 3.66811,-0.12345 1.23446,-0.40561 q 1.67534,2.01041 2.45129,3.52704 l -1.34027,0.49378 q -0.74068,-1.58716 -2.34548,-3.61521 z"
         style="font-style:normal;font-variant:normal;font-weight:normal;font-stretch:normal;font-family:'Gen Shin Gothic';-inkscape-font-specification:'Gen Shin Gothic';fill:#fffc32;fill-opacity:1;stroke-width:0.26458332px"
         id="path4650" />
      <path
         d="m 138.72341,269.49324 -0.68777,1.02284 q -0.88175,-1.05811 -2.83926,-2.32784 l 0.68777,-0.89939 q 1.97514,1.21682 2.83926,2.20439 z m -0.79358,4.30298 -0.67013,1.09338 q -0.98757,-1.04048 -2.98034,-2.16913 l 0.63486,-0.93466 q 2.15149,1.14628 3.01561,2.01041 z m -5.20237,-6.719 1.16392,0.2998 q -0.98757,3.06852 -1.48135,4.05609 l -0.86412,-0.28217 q 0.6525,-1.62243 1.18155,-4.07372 z m -3.75629,4.03845 -1.05811,0.26453 q -0.14108,-1.74588 -0.98756,-3.98554 l 0.98756,-0.2469 q 0.82886,1.93987 1.05811,3.96791 z m 1.97514,2.18676 v 0.2469 q 0.37034,0.4056 1.35791,1.74588 1.0052,1.32263 1.34027,1.81642 l -0.88176,1.04047 q -0.47615,-1.0052 -1.81642,-3.06852 v 7.40677 h -1.2521 v -7.4244 q -1.16392,3.35068 -2.48655,5.14946 -0.19399,-0.51142 -0.67014,-1.305 0.75831,-0.9523 1.53426,-2.50419 0.79358,-1.56953 1.26973,-3.10379 h -2.53946 v -1.26973 h 2.89216 v -5.96068 h 1.2521 v 5.96068 h 2.94507 v 1.26973 z m 12.30934,3.70339 -2.32784,0.4056 v 5.07893 h -1.26973 v -4.84967 l -5.59035,1.02284 -0.21162,-1.2521 5.80197,-1.02283 v -10.36948 h 1.26973 v 10.12258 l 2.13385,-0.37033 z"
         style="font-style:normal;font-variant:normal;font-weight:normal;font-stretch:normal;font-family:'Gen Shin Gothic';-inkscape-font-specification:'Gen Shin Gothic';fill:#fffc32;fill-opacity:1;stroke-width:0.26458332px"
         id="path4652" />
      <path
         d="m 148.56383,268.45277 0.81122,-1.1992 q 2.16912,1.23447 3.915,2.53947 l -0.84648,1.23446 q -1.81643,-1.37554 -3.87974,-2.57473 z m -1.05811,13.17346 -0.82885,-1.48136 q 3.36831,-0.56432 6.04886,-2.09858 2.22203,-1.26973 3.96791,-2.98034 1.76351,-1.71061 2.87453,-3.63284 l 0.86412,1.48135 q -1.18155,1.83406 -2.98034,3.52703 -1.79879,1.67534 -3.95028,2.94507 -1.305,0.74068 -2.98034,1.35791 -1.67534,0.61723 -3.01561,0.88176 z m -1.64007,-9.08211 0.79358,-1.23446 q 2.46893,1.34027 3.96791,2.43365 l -0.82885,1.26973 q -1.88696,-1.39317 -3.93264,-2.46892 z"
         style="font-style:normal;font-variant:normal;font-weight:normal;font-stretch:normal;font-family:'Gen Shin Gothic';-inkscape-font-specification:'Gen Shin Gothic';fill:#fffc32;fill-opacity:1;stroke-width:0.26458332px"
         id="path4654" />
      <path
         d="m 176.72717,271.90926 0.8994,0.63486 q -0.56433,1.14629 -1.74588,2.75109 -1.16392,1.60479 -2.09859,2.52182 l -1.28736,-0.63486 q 0.81121,-0.72304 1.71061,-1.79879 0.91703,-1.09338 1.39317,-1.92223 -1.25209,0.21162 -5.46689,1.07574 0.26452,0.91703 0.7054,2.57474 0.45852,1.64007 0.74068,2.64527 0.28216,1.0052 0.38797,1.35791 0.10581,0.33507 0.40561,1.23446 l -1.53426,0.38797 q -0.0705,-0.56432 -0.28216,-1.305 -0.10581,-0.3527 -0.38797,-1.41081 -0.28217,-1.05811 -0.70541,-2.59237 -0.42324,-1.55189 -0.70541,-2.59237 -2.76872,0.54669 -3.66811,0.74068 l -0.3527,-1.37554 q 0.51142,-0.0353 1.49899,-0.19399 0.10581,-0.0176 0.40561,-0.0705 0.31743,-0.0529 0.82885,-0.14108 0.51142,-0.10581 0.96993,-0.19399 -0.42324,-1.51662 -0.59959,-2.08095 -0.15872,-0.56432 -0.42325,-1.07574 l 1.53426,-0.38798 q 0.0176,0.0705 0.26453,1.16392 l 0.56432,2.13386 q 5.53744,-1.07575 6.26048,-1.23446 0.52906,-0.14108 0.68777,-0.21162 z"
         style="font-style:normal;font-variant:normal;font-weight:normal;font-stretch:normal;font-family:'Gen Shin Gothic';-inkscape-font-specification:'Gen Shin Gothic';fill:#fffc32;fill-opacity:1;stroke-width:0.26458332px"
         id="path4656" />
      <path
         d="m 195.3499,274.9425 -0.5996,1.53426 q -3.03324,-1.62243 -7.10696,-2.9098 l 0.0176,5.96068 q 0,1.23446 0.10581,2.13386 h -1.72824 q 0.10581,-0.86413 0.10581,-2.13386 v -10.51055 q 0,-1.12865 -0.14108,-1.88696 h 1.76351 q -0.12344,1.32264 -0.12344,1.88696 v 2.94507 q 1.81642,0.54669 4.03845,1.41081 2.23966,0.86413 3.66811,1.56953 z"
         style="font-style:normal;font-variant:normal;font-weight:normal;font-stretch:normal;font-family:'Gen Shin Gothic';-inkscape-font-specification:'Gen Shin Gothic';fill:#fffc32;fill-opacity:1;stroke-width:0.26458332px"
         id="path4658" />
      <path
         d="m 200.65808,281.55569 -1.34028,-0.91703 q 2.23967,-1.58717 3.13906,-4.44406 0.52906,-1.65771 0.52906,-7.24805 0,-0.63487 -0.12345,-1.32264 h 1.67534 q -0.10581,1.26973 -0.10581,1.305 0,5.67852 -0.54669,7.6713 -0.84649,2.98034 -3.22723,4.95548 z m 7.88291,-0.0176 -0.9523,-0.81122 q 0.12345,-0.49378 0.12345,-1.0052 v -10.81035 q 0,-0.49378 -0.10581,-1.34027 h 1.6577 q -0.0705,0.56432 -0.0705,1.34027 v 10.42238 q 1.35791,-0.61723 2.82163,-1.79879 1.46371,-1.19919 2.43365,-2.64527 l 0.86412,1.21682 q -1.11101,1.51663 -2.78635,2.8569 -1.67534,1.32263 -3.36832,2.15149 -0.26453,0.14108 -0.61723,0.42324 z"
         style="font-style:normal;font-variant:normal;font-weight:normal;font-stretch:normal;font-family:'Gen Shin Gothic';-inkscape-font-specification:'Gen Shin Gothic';fill:#fffc32;fill-opacity:1;stroke-width:0.26458332px"
         id="path4660" />
      <path
         d="m 229.03305,267.44756 0.95229,-0.40561 q 0.86413,1.21683 1.48136,2.48656 l -0.96994,0.42324 q -0.6525,-1.37554 -1.46371,-2.50419 z m 1.99277,-0.72304 0.9523,-0.40561 q 0.82885,1.09338 1.51662,2.46892 l -0.96993,0.42325 q -0.81122,-1.6048 -1.49899,-2.48656 z m -10.91616,8.95866 q 1.41081,-3.38595 1.78115,-6.68372 l 1.6048,0.31743 q -0.31744,1.21682 -0.33507,1.32263 -0.81122,3.63285 -1.64007,5.64325 -1.11102,2.75109 -2.64527,4.95548 l -1.53426,-0.6525 q 1.58716,-2.06331 2.76872,-4.90257 z m 8.88812,-0.68777 q -1.49899,-3.82683 -2.61001,-5.71379 l 1.46372,-0.47615 q 1.32264,2.38074 2.62764,5.69615 1.21682,2.92744 2.16912,6.17231 l -1.6048,0.52905 q -0.67013,-2.69818 -2.04567,-6.20757 z"
         style="font-style:normal;font-variant:normal;font-weight:normal;font-stretch:normal;font-family:'Gen Shin Gothic';-inkscape-font-specification:'Gen Shin Gothic';fill:#fffc32;fill-opacity:1;stroke-width:0.26458332px"
         id="path4662" />
      <path
         d="m 247.76158,268.32932 0.91703,0.70541 q -0.22925,0.31743 -0.44088,0.79358 -1.16392,2.94507 -3.03324,5.29054 1.32263,1.12865 2.78635,2.64528 1.46372,1.51662 2.48656,2.73345 l -1.26973,1.11101 q -2.22203,-2.9098 -4.97312,-5.36109 -3.35068,3.59758 -7.03642,5.27292 l -1.16392,-1.21683 q 2.08094,-0.81122 4.02081,-2.23966 1.93987,-1.44609 3.42122,-3.12143 0.93466,-1.05811 1.79879,-2.48655 0.86412,-1.44609 1.19919,-2.53947 h -7.03643 q -0.86412,0 -1.83406,0.0882 v -1.64007 q 0.86413,0.12345 1.83406,0.12345 h 6.96589 q 0.84648,0 1.3579,-0.15872 z"
         style="font-style:normal;font-variant:normal;font-weight:normal;font-stretch:normal;font-family:'Gen Shin Gothic';-inkscape-font-specification:'Gen Shin Gothic';fill:#fffc32;fill-opacity:1;stroke-width:0.26458332px"
         id="path4664" />
      <path
         d="m 259.11862,267.65918 v 1.32264 h -1.19919 v -2.34548 h 11.11015 v 2.34548 h -1.23446 v -1.32264 z m 0.91703,7.98873 h 2.73345 v -1.21683 h -2.73345 z m 0,-3.28014 v 1.18156 h 2.73345 v -1.18156 z m 6.8248,0 h -2.76872 v 1.18156 h 2.76872 z m 0,3.28014 v -1.21683 h -2.76872 v 1.21683 z m -4.09135,4.76149 v -1.71061 h -5.14947 v -1.04047 h 5.14947 v -1.09338 h -3.89737 v -5.1142 h 3.89737 V 270.375 h -4.4617 v -1.02284 h 4.4617 v -1.23446 h 1.32263 v 1.23446 h 4.5146 v 1.02284 h -4.5146 v 1.07574 h 3.98555 v 5.1142 h -3.98555 v 1.09338 h 5.27292 v 1.04047 h -5.27292 v 1.71061 z m -5.4669,-11.02197 -1.09338,0.84649 q -0.40561,-0.6525 -1.21683,-1.49899 -0.79358,-0.84649 -1.64007,-1.51663 l 1.04048,-0.75831 q 2.01041,1.53426 2.9098,2.92744 z m -0.54669,3.68575 v 5.80196 q 1.21683,1.92223 4.54987,2.02805 1.49899,0.0705 4.09136,0.0353 2.59236,-0.0353 4.2148,-0.14109 -0.3527,0.67014 -0.44088,1.30501 -4.32061,0.19398 -7.84764,0.0353 -1.79879,-0.0705 -3.05089,-0.58196 -1.25209,-0.49379 -2.06331,-1.53426 -1.09338,1.05811 -2.50419,2.3102 l -0.70541,-1.28736 q 1.26973,-0.9523 2.48656,-2.08095 v -4.62041 h -2.29257 v -1.26973 z"
         style="font-style:normal;font-variant:normal;font-weight:normal;font-stretch:normal;font-family:'Gen Shin Gothic';-inkscape-font-specification:'Gen Shin Gothic';fill:#fffc32;fill-opacity:1;stroke-width:0.26458332px"
         id="path4666" />
      <path
         d="m 287.01743,267.09486 v 1.26973 h -8.81757 v -1.26973 z m -11.83319,-1.09338 1.28737,0.51142 q -0.86412,1.16392 -2.13385,2.38074 -1.2521,1.21683 -2.48656,2.09859 -0.58196,-0.84649 -0.79358,-1.07575 1.12865,-0.75831 2.29257,-1.85169 1.16392,-1.11101 1.83405,-2.06331 z m 0.74068,3.84446 1.2521,0.47615 q -0.79359,1.28737 -1.99278,2.71582 v 9.50534 h -1.32263 v -8.02399 q -1.14629,1.18155 -2.04568,1.88696 -0.52906,-0.72304 -0.93466,-1.12865 1.39317,-1.0052 2.75108,-2.45129 1.35791,-1.46371 2.29257,-2.98034 z m 11.62157,2.18676 v 1.28737 h -2.73345 v 7.45967 q 0,0.63486 -0.17635,0.9523 -0.17635,0.33507 -0.61723,0.49378 -0.67014,0.21162 -3.38595,0.21162 -0.0882,-0.59959 -0.44088,-1.305 2.08095,0.0529 2.82162,0.0176 0.26453,-0.0176 0.35271,-0.0882 0.0882,-0.0882 0.0882,-0.2998 v -7.44203 h -6.03122 v -1.28737 z"
         style="font-style:normal;font-variant:normal;font-weight:normal;font-stretch:normal;font-family:'Gen Shin Gothic';-inkscape-font-specification:'Gen Shin Gothic';fill:#fffc32;fill-opacity:1;stroke-width:0.26458332px"
         id="path4668" />
      <path
         d="m 296.84021,276.74129 -0.42324,-7.00116 -0.0529,-2.13385 h 2.15149 l -0.0353,2.13385 -0.44088,7.00116 z m 1.62244,4.07372 q -0.40561,0.38797 -1.02284,0.38797 -0.61723,0 -1.04048,-0.38797 -0.40561,-0.38797 -0.40561,-1.04047 0,-0.61724 0.42325,-1.00521 0.42324,-0.40561 1.02284,-0.40561 0.59959,0 1.02284,0.40561 0.42324,0.38797 0.42324,1.00521 0,0.6525 -0.42324,1.04047 z"
         style="font-style:normal;font-variant:normal;font-weight:normal;font-stretch:normal;font-family:'Gen Shin Gothic';-inkscape-font-specification:'Gen Shin Gothic';fill:#fffc32;fill-opacity:1;stroke-width:0.26458332px"
         id="path4670" />
    </g>
  </g>
</svg>
