<svg xmlns="http://www.w3.org/2000/svg" width="13.989" height="18.5" viewBox="0 0 3.701 4.895"><g fill="#3350aa" stroke-width="1.001"><path d="M.305.359a.069.069 0 0 0-.08.056L.189.631a.07.07 0 0 0 .056.08l3.162.56a.07.07 0 0 0 .08-.057l.038-.216a.07.07 0 0 0-.057-.08L2.371.722l.036-.208a.115.115 0 0 0-.092-.133L2.124.348l.002-.01a.115.115 0 0 0-.092-.132L1.878.178a.113.113 0 0 0-.13.093l-.002.01-.191-.034a.113.113 0 0 0-.131.094l-.037.208zM.312 1.344h3.042c.075 0 .136.06.136.135l-.46 3.104c0 .075-.06.135-.136.135H.772a.135.135 0 0 1-.135-.135L.177 1.48c0-.075.06-.135.135-.135" fill-rule="evenodd" paint-order="markers stroke fill" stroke="#fff" stroke-width=".3531327799999999"/><path d="M.305.359a.069.069 0 0 0-.08.056L.189.631a.07.07 0 0 0 .056.08l3.162.56a.07.07 0 0 0 .08-.057l.038-.216a.07.07 0 0 0-.057-.08L2.371.722l.036-.208a.115.115 0 0 0-.092-.133L2.124.348l.002-.01a.115.115 0 0 0-.092-.132L1.878.178a.113.113 0 0 0-.13.093l-.002.01-.191-.034a.113.113 0 0 0-.131.094l-.037.208z" fill-rule="evenodd" paint-order="markers stroke fill"/></g><path d="M1.158 1.727c.077 0 .138.062.138.138v2.332a.138.138 0 0 1-.276 0V1.865c0-.076.062-.138.138-.138M1.833 1.727c.076 0 .138.062.138.138v2.332a.138.138 0 0 1-.276 0V1.865c0-.076.062-.138.138-.138M2.462 1.727c.076 0 .138.062.138.138v2.332a.138.138 0 0 1-.276 0V1.865c0-.076.061-.138.138-.138" fill="#fff" fill-rule="evenodd"/></svg>