<svg xmlns="http://www.w3.org/2000/svg" width="600" height="600" viewBox="0 0 158.75 158.75"><g transform="translate(0 -138.25)"><path fill="#00e0ed" fill-opacity=".748" paint-order="stroke fill markers" d="M0 138.25h158.75V297H0z"/><path d="M0 138.25V297h158.75V138.25zm79.427 25.458l19.846 19.847H59.58zm-34.963 24.338h69.766v36.779l-14.194-12.618 8.403-8.403H90.582l-11.234-9.987-11.235 9.987H50.311l8.378 8.377-14.225 12.644zm14.128 19.188h41.566l-20.783 20.782-20.783-20.782zm-14.104 17.685h26.939l6.857 6.858-6.94 6.94H50.328l10.508 10.508-16.348 16.347v-5.77zm42.835 0h26.932v40.653l-16.328-16.327 10.53-10.528H87.398l-6.937-6.937 6.86-6.86zm-28.714 17.228h41.566L79.392 262.93 58.61 242.147z" fill="#00e0ed" paint-order="stroke fill markers"/><circle cx="79.375" cy="217.625" r="68.672" fill="none" stroke="#fff" stroke-width="8.349" stroke-linecap="round" stroke-linejoin="round" paint-order="stroke fill markers"/><g aria-label="第66回" style="line-height:47.37103271px;-inkscape-font-specification:'Gen Shin Gothic Heavy'" font-weight="400" font-size="28.423" font-family="Gen Shin Gothic" letter-spacing="0" word-spacing="0" fill="#fffc32" stroke-width="1.895"><path d="M44.203 174.042h-1.11q-1.277 2.026-2.692 3.497-1.027-.805-1.721-1.138 2.72-2.47 4.247-6.633l1.998.5q-.222.61-.916 2.081h7.467v1.693h-5.219q.805 1.638 1.027 2.61l-1.804.72q-.25-1.193-1.277-3.33zm6.634 10.02h-6.356q-.111.472-.333 1.36-.222.86-.305 1.25h6.994zm2.054-4.663v2.859h7.078v-2.859zm0 7.272H63.69q-.028.555-.056.86-.527 5.385-1.499 6.357-.666.666-1.804.694-1.221.083-3.58 0-.056-1.194-.556-1.943 1.388.111 3.22.111.777 0 1-.194.61-.611.998-4.053h-8.52v7.328h-2.055v-6.69q-1.97 1.971-4.83 3.637-2.83 1.665-5.69 2.581-.582-.971-1.332-1.665 2.665-.75 5.357-2.138 2.72-1.387 4.636-3.053H43.37q-.056.195-.167.555-.083.333-.11.389l-2.055-.305q1.083-3.609 1.749-6.884h8.05v-2.859H41.4v-1.804h20.65v6.467h-9.159zm2.22-14.322h9.549v1.693h-6.328q1.193 1.582 1.637 2.665l-1.86.721q-.527-1.47-1.998-3.386h-2.026q-1.333 1.943-2.942 3.386-.833-.749-1.694-1.22 1.5-1.167 2.693-2.86 1.221-1.693 1.915-3.58l2.026.5q-.305.832-.971 2.081z" style="-inkscape-font-specification:'Gen Shin Gothic'"/><path d="M76.248 173.445v2.18h-.402q-2.457.055-3.844 1.665-1.388 1.596-1.596 4.815 1.346-1.693 3.441-1.693 2.235 0 3.54 1.846 1.318 1.832 1.318 4.816 0 3.178-1.457 5.024-1.444 1.845-3.886 1.845-2.457 0-3.956-2.178-1.499-2.18-1.499-5.788v-.985q0-4.163.903-6.634.902-2.47 2.65-3.664 1.763-1.207 4.372-1.249zm-2.817 9.104q-1 0-1.846.764-.846.763-1.221 1.943v1.013q0 2.456.86 4.01.875 1.541 2.138 1.541 1.374 0 2.15-1.263.778-1.277.778-3.358 0-2.054-.777-3.345-.777-1.305-2.082-1.305zM90.293 173.445v2.18h-.402q-2.457.055-3.845 1.665-1.387 1.596-1.596 4.815 1.347-1.693 3.442-1.693 2.235 0 3.54 1.846 1.318 1.832 1.318 4.816 0 3.178-1.458 5.024-1.443 1.845-3.886 1.845-2.456 0-3.955-2.178-1.499-2.18-1.499-5.788v-.985q0-4.163.902-6.634.902-2.47 2.651-3.664 1.763-1.207 4.372-1.249zm-2.817 9.104q-1 0-1.846.764-.847.763-1.221 1.943v1.013q0 2.456.86 4.01.874 1.541 2.137 1.541 1.374 0 2.152-1.263.777-1.277.777-3.358 0-2.054-.777-3.345-.778-1.305-2.082-1.305z" style="-inkscape-font-specification:'Roboto Condensed, '" font-family="Roboto Condensed"/><path d="M111.735 185.95v-6.468h-6.884v6.468zm-8.91-8.383h10.992v10.27h-10.992zm-4.08 14.739h19.18v-19.124h-19.18zm-2.137-21.234h23.565v24.759h-2.248v-1.527h-19.18v1.527h-2.137z" style="-inkscape-font-specification:'Gen Shin Gothic'"/></g><g aria-label="翠巒祭" style="line-height:64.96945953px;-inkscape-font-specification:'Gen Shin Gothic Heavy'" font-weight="300" font-size="38.982" font-family="Gen Shin Gothic" letter-spacing="0" word-spacing="0" fill="#fffc32" stroke-width="2.599"><path d="M52.366 211.705v-7.765H40.374v-2.094h14.39v9.86q0 .913-.228 1.408-.229.495-.876.723-.952.305-4.568.305-.076-.343-.419-1.066-.342-.723-.419-.876 2.589.115 3.54.038.572-.038.572-.533zm-4.416-4.492l-1.409 1.561q-1.75-1.599-4.72-3.236l1.37-1.332q2.817 1.294 4.759 3.007zm2.474 1.18l.305 1.79q-1.904.723-5.482 1.98-3.54 1.255-3.96 1.408l-1.103-1.942q4.073-1.142 10.24-3.236zm-14.428 3.236v-7.69h-11.8v-2.093h14.16v9.783q0 1.751-1.18 2.17-.913.305-4.568.305-.152-.61-.875-1.942 2.931.114 3.654 0 .61 0 .61-.533zm-4.415-4.416l-1.447 1.561q-1.523-1.56-4.492-3.236l1.408-1.332q3.046 1.637 4.53 3.007zm2.17 1.447l.304 1.751q-2.36.8-9.403 3.046l-1.104-1.942q2.855-.723 10.202-2.855zm23.335 18.54v2.13H40.983v6.016h-2.588v-6.015H22.558v-2.132h15.837v-1.675h2.512q-.495-.495-1.484-1.218 4.834-2.132 6.395-6.167H33.636l1.561.343q-.533 1.18-1.256 2.207 3.578 2.018 4.758 2.932l-1.637 1.56q-1.18-.99-4.377-2.93-2.323 2.512-5.901 4.415-.61-.723-1.827-1.523 5.9-2.626 7.918-7.004H24.69v-2.094h13.705v-2.779h2.588v2.78h13.933v2.093h-8.222l1.484.266q-.457 1.295-1.408 2.703 4.91 2.475 7.08 4.112l-1.827 1.56q-2.094-1.598-6.586-4.073-1.675 1.79-4.187 3.16l-.267-.267v1.6zM83.734 211.287l2.284-.038q1.865-2.056 2.284-2.627-1.523-1.751-4.035-3.693l1.218-1.484q.495.304 1.028.799 1.56-2.132 2.665-4.416l2.017.8q-1.675 2.664-3.274 4.72.61.533 1.713 1.637 1.561-1.98 2.399-3.464l2.055.951q-2.893 3.807-5.596 6.7 2.018-.038 4.645-.114-.724-1.028-1.409-1.827l1.599-.876q2.36 2.703 3.388 4.873l-1.713.99q-.61-1.256-.723-1.409l-3.084.153v9.783h-2.094v-9.631q-1.066.038-2.893.152-1.789.076-2.246.114zm2.132 3.312l2.017.38q-.875 4.074-2.703 6.738-.875-.685-1.713-1.066 1.561-2.131 2.399-6.052zm-3.084-13.59v1.674h-8.794v-1.675zm1.37 3.387v1.79H72.39v-1.79zm-8.489 14.733h5.406v-2.893h-5.406zm7.5 2.512h-2.094v-.837h-5.406v.913h-1.98v-7.156h9.48zm-9.25-8.755v-1.675h9.021v1.675zm9.021-5.025v1.675h-9.022v-1.675zm-21.965 3.464l2.322-.038q1.675-1.98 2.018-2.475-1.904-2.17-4.15-3.883l1.295-1.446q.533.38 1.218.99 1.523-2.208 2.627-4.645l2.017.8q-1.98 3.35-3.312 4.948.952.914 1.523 1.561 1.637-2.284 2.398-3.578l2.018.913q-2.817 3.998-5.253 6.739l4.187-.115q-.685-.99-1.294-1.713l1.599-.875q2.284 2.702 3.235 4.72l-1.637.952q-.076-.19-.76-1.333l-2.818.153v9.745H66.07v-9.631l-4.872.266zm8.147 3.73l1.675-.609q1.446 2.437 2.055 5.063l-1.75.8q-.572-2.589-1.98-5.254zm-6.015-.494l2.056.418q-.914 4.568-2.551 7.119-.533-.457-1.713-1.104 1.447-2.246 2.208-6.433zm26.762 16.978v-7.347h2.512v10.925h-2.512v-1.256H67.669v1.447h-2.398v-11.04h2.398v7.27h9.745v-9.364h2.475v9.365zm2.474-16.446l1.751-.647q2.018 3.807 2.589 6.167l-1.827.8q-.724-2.855-2.513-6.32zM108.06 225.638l2.55.724q-2.741 4.568-7.842 8.032-.838-.838-2.17-1.675 4.949-2.931 7.461-7.08zm24.934-1.903h-13.857v8.756q0 1.142-.343 1.713-.304.57-1.18.837-1.218.38-6.243.38-.266-1.18-.875-2.397 3.883.114 5.253.038.495-.038.647-.153.152-.076.152-.456v-8.718h-13.4v-2.36h29.846zm-8.756 3.274l2.094-1.295q2.208 1.675 4.53 3.845 2.36 2.132 3.578 3.693l-2.17 1.447q-1.218-1.6-3.54-3.807-2.284-2.208-4.492-3.883zm-17.816-20.214q-1.066 1.294-2.246 2.322 3.579 2.36 5.178 3.692 1.332-1.332 2.284-2.702-1.675-1.257-5.216-3.312zm8.337-2.399h-6.395q-.533.686-.8 1.066 3.16 1.675 5.178 3.084 1.37-2.322 2.017-4.15zm18.12-2.17l1.714 1.104q-2.817 5.558-7.195 9.517 3.769 3.54 8.794 5.216-.838.761-1.675 2.208-4.911-1.866-8.604-5.406v1.98H110.8v-2.17q-4.035 4.035-9.631 6.28-.647-1.255-1.447-2.017 4.492-1.599 8.185-4.758-2.474-2.094-5.177-3.807-.571.495-1.675 1.294-.838-1.18-1.713-1.675 3.083-2.055 5.405-4.758 2.322-2.741 3.617-5.368l2.588.419q-.837 1.485-1.256 2.17h6.053l.419-.152 1.56.685q-1.94 6.624-6.737 11.496h14.542q-5.064-5.177-7.5-13.59l2.322-.495q1.828 6.51 5.52 10.812 2.893-2.703 5.14-6.624h-8.3v-2.17h9.67z" style="-inkscape-font-specification:'Gen Shin Gothic Light'"/></g><g aria-label="Super Crew" style="line-height:19.56704712px;-inkscape-font-specification:'Noto Serif CJK JP';text-align:center" font-weight="400" font-size="26.02" font-family="Roboto Condensed" letter-spacing="-1.326" word-spacing="0" text-anchor="middle" fill="#fffc32" stroke-width="1.735"><path d="M37.653 252.898q0-1.385-.75-2.121-.75-.737-2.706-1.436T31.2 247.88q-1.03-.775-1.55-1.753-.508-.991-.508-2.262 0-2.198 1.46-3.62 1.475-1.424 3.85-1.424 1.627 0 2.897.737 1.27.724 1.957 2.02.686 1.296.686 2.846h-2.338q0-1.715-.826-2.655-.826-.94-2.376-.94-1.41 0-2.185.787-.775.788-.775 2.21 0 1.17.839 1.957.838.788 2.592 1.41 2.731.903 3.9 2.224 1.181 1.321 1.181 3.456 0 2.249-1.46 3.608-1.462 1.347-3.977 1.347-1.614 0-2.986-.699-1.36-.711-2.147-1.982-.775-1.283-.775-2.935h2.338q0 1.715.953 2.668.965.953 2.617.953 1.537 0 2.312-.788.775-.787.775-2.147zM48.41 256.367q-1.118 1.46-3.265 1.46-1.868 0-2.82-1.282-.954-1.296-.967-3.761v-8.957h2.237v8.792q0 3.214 1.93 3.214 2.046 0 2.821-1.83v-10.176h2.249v13.747h-2.134zM62.61 251.361q0 3.265-1.182 4.866-1.169 1.6-3.316 1.6-2.071 0-3.189-1.562v6.594h-2.236v-19.032h2.033l.114 1.525q1.13-1.78 3.24-1.78 2.261 0 3.38 1.576 1.117 1.576 1.156 4.714zm-2.237-1.283q0-2.313-.711-3.405-.712-1.105-2.287-1.105-1.613 0-2.452 1.613v7.153q.826 1.575 2.477 1.575 1.525 0 2.237-1.092.724-1.106.736-3.367zM69.123 257.828q-2.567 0-3.939-1.525-1.372-1.537-1.397-4.497v-1.665q0-3.074 1.334-4.815 1.346-1.753 3.748-1.753 2.414 0 3.608 1.537t1.22 4.79v1.474h-7.674v.317q0 2.211.826 3.215.838 1.003 2.4 1.003.992 0 1.741-.368.763-.381 1.423-1.194l1.17 1.423q-1.462 2.058-4.46 2.058zm-.254-12.324q-1.398 0-2.071.966-.674.952-.763 2.973h5.413v-.305q-.09-1.957-.712-2.795-.61-.839-1.867-.839zM80.756 245.936q-.47-.089-1.016-.089-1.728 0-2.414 1.893v9.834h-2.25v-13.747h2.186l.038 1.398q.902-1.652 2.554-1.652.534 0 .89.178zM98.217 251.704q-.153 2.973-1.678 4.548-1.511 1.576-4.281 1.576-2.782 0-4.421-2.11-1.64-2.12-1.64-5.742v-3.354q0-3.608 1.678-5.705 1.69-2.096 4.599-2.096 2.68 0 4.142 1.614 1.474 1.6 1.6 4.586h-2.35q-.152-2.261-.953-3.227-.8-.965-2.44-.965-1.892 0-2.909 1.486-1.016 1.474-1.016 4.332v3.393q0 2.807.94 4.307.953 1.499 2.77 1.499 1.817 0 2.617-.902t.991-3.24zM105.39 245.936q-.47-.089-1.016-.089-1.728 0-2.414 1.893v9.834h-2.249v-13.747h2.186l.038 1.398q.902-1.652 2.553-1.652.534 0 .89.178zM110.976 257.828q-2.566 0-3.938-1.525-1.372-1.537-1.398-4.497v-1.665q0-3.074 1.334-4.815 1.347-1.753 3.748-1.753 2.414 0 3.608 1.537 1.195 1.537 1.22 4.79v1.474h-7.674v.317q0 2.211.826 3.215.839 1.003 2.401 1.003.991 0 1.74-.368.763-.381 1.424-1.194l1.169 1.423q-1.461 2.058-4.46 2.058zm-.254-12.324q-1.397 0-2.07.966-.674.952-.763 2.973h5.412v-.305q-.089-1.957-.711-2.795-.61-.839-1.868-.839zM127.183 253.622l2.084-9.795h2.223l-3.367 13.747h-1.79l-2.682-9.834-2.617 9.834h-1.804l-3.341-13.747h2.21l2.135 9.554 2.553-9.554h1.78z" style="-inkscape-font-specification:'Roboto Condensed, ';text-align:center"/></g></g></svg>