<svg xmlns="http://www.w3.org/2000/svg" width="1200" height="630" viewBox="0 0 317.5 166.688"><path d="M0 0h317.5v166.687H0z" fill="#00e0ed" fill-opacity=".992" paint-order="stroke fill markers"/><path d="M0 56.716h317.5" fill="none" stroke="#fff" stroke-width="7.465"/><g aria-label="第66回" style="line-height:16.28657532px;-inkscape-font-specification:'Gen Shin Gothic Heavy'" font-weight="400" font-size="9.772" font-family="Gen Shin Gothic" letter-spacing="0" word-spacing="0" fill="#fffc32" stroke="#02eaf7" stroke-width=".466" stroke-linejoin="round" paint-order="stroke markers fill"><path d="M13.505 286.274h-.382q-.439.697-.925 1.202-.353-.276-.592-.39.935-.85 1.46-2.282l.687.172q-.076.21-.315.716h2.567v.582h-1.794q.277.563.353.897l-.62.248q-.086-.41-.439-1.145zm2.28 3.445H13.6q-.038.162-.114.468-.076.295-.105.429h2.405zm.707-1.603v.983h2.433v-.983zm0 2.5h3.712q-.01.19-.019.296-.181 1.851-.515 2.185-.23.23-.62.239-.42.028-1.232 0-.019-.41-.19-.668.477.038 1.107.038.267 0 .343-.067.21-.21.344-1.393h-2.93v2.52h-.706v-2.3q-.678.677-1.66 1.25-.974.572-1.957.887-.2-.334-.458-.573.916-.257 1.842-.734.935-.478 1.593-1.05H13.22l-.058.19q-.028.115-.038.134l-.706-.105q.372-1.24.601-2.366h2.768v-.983H12.54v-.62h7.1v2.223h-3.149zm.763-4.924h3.283v.582h-2.176q.41.544.563.916l-.639.248q-.181-.506-.687-1.164h-.697q-.458.668-1.011 1.164-.287-.257-.582-.42.515-.4.925-.983.42-.582.659-1.23l.696.171q-.105.286-.334.716z" style="-inkscape-font-specification:'Gen Shin Gothic'" paint-order="stroke markers fill" transform="matrix(1.72678 0 0 1.70503 -2.948 -473.504)"/><path d="M24.522 286.069v.749h-.138q-.845.019-1.322.572-.477.55-.548 1.656.462-.582 1.183-.582.768 0 1.217.635.453.63.453 1.655 0 1.093-.501 1.728-.496.634-1.336.634-.845 0-1.36-.749-.515-.749-.515-1.99v-.338q0-1.432.31-2.281.31-.85.911-1.26.606-.415 1.503-.43zm-.968 3.13q-.344 0-.635.262-.29.263-.42.668v.349q0 .844.296 1.379.3.53.735.53.472 0 .74-.435.267-.439.267-1.155 0-.706-.268-1.15-.267-.448-.715-.448zM29.351 286.069v.749h-.138q-.845.019-1.322.572-.477.55-.549 1.656.463-.582 1.184-.582.768 0 1.216.635.454.63.454 1.655 0 1.093-.501 1.728-.497.634-1.336.634-.845 0-1.36-.749-.516-.749-.516-1.99v-.338q0-1.432.31-2.281.31-.85.912-1.26.606-.415 1.503-.43zm-.969 3.13q-.343 0-.634.262-.291.263-.42.668v.349q0 .844.296 1.379.3.53.735.53.472 0 .74-.435.266-.439.266-1.155 0-.706-.267-1.15-.267-.448-.716-.448z" style="-inkscape-font-specification:'Roboto Condensed, '" font-family="Roboto Condensed" paint-order="stroke markers fill" transform="matrix(1.72678 0 0 1.70503 -2.948 -473.504)"/><path d="M36.723 290.368v-2.224h-2.367v2.224zm-3.063-2.882h3.779v3.53h-3.78zm-1.403 5.067h6.594v-6.575h-6.594zm-.735-7.3h8.102v8.512h-.773v-.525h-6.594v.525h-.735z" style="-inkscape-font-specification:'Gen Shin Gothic'" paint-order="stroke markers fill" transform="matrix(1.72678 0 0 1.70503 -2.948 -473.504)"/></g><g aria-label="翠巒祭" style="line-height:20.25912476px;-inkscape-font-specification:'Gen Shin Gothic Heavy'" font-weight="300" font-size="12.155" font-family="Gen Shin Gothic" letter-spacing="0" word-spacing="0" fill="#fffc32" stroke="#02eaf7" stroke-width=".554" stroke-linejoin="round" paint-order="stroke markers fill"><path d="M67.162 40.04v-6.553H57.045V31.72h12.14v8.32q0 .77-.192 1.187-.193.418-.739.61-.803.258-3.854.258-.064-.29-.353-.9-.29-.61-.354-.738 2.184.096 2.987.032.482-.032.482-.45zm-3.726-3.79l-1.188 1.316q-1.477-1.349-3.983-2.73l1.157-1.124q2.376 1.092 4.014 2.537zm2.088.995l.257 1.51q-1.606.61-4.625 1.67-2.987 1.06-3.34 1.188l-.932-1.638q3.437-.964 8.64-2.73zm-12.173 2.73v-6.488h-9.957V31.72h11.948v8.255q0 1.477-.995 1.83-.771.258-3.854.258-.129-.514-.74-1.638 2.474.096 3.084 0 .514 0 .514-.45zm-3.726-3.726l-1.22 1.317q-1.285-1.317-3.79-2.73l1.188-1.124q2.57 1.38 3.822 2.537zm1.831 1.22l.257 1.478q-1.991.675-7.933 2.57l-.932-1.639q2.41-.61 8.608-2.408zm19.689 15.642v1.799H57.559v5.075h-2.184V54.91H42.013v-1.799h13.362v-1.413h2.12q-.418-.417-1.253-1.028 4.079-1.798 5.396-5.203H51.36l1.317.29q-.45.995-1.06 1.862 3.019 1.702 4.015 2.473L54.25 51.41q-.995-.835-3.693-2.473-1.96 2.12-4.979 3.726-.513-.61-1.541-1.285 4.978-2.216 6.68-5.91h-6.905v-1.766h11.563v-2.345h2.184V43.7h11.755v1.766h-6.938l1.253.225q-.385 1.092-1.188 2.28 4.143 2.088 5.974 3.47l-1.542 1.316q-1.766-1.349-5.556-3.437-1.414 1.51-3.534 2.666l-.224-.225v1.35zM93.628 39.686l1.927-.032q1.574-1.735 1.927-2.217-1.285-1.477-3.405-3.115l1.028-1.253q.418.257.867.675 1.317-1.799 2.249-3.726l1.702.674q-1.413 2.249-2.762 3.983.514.45 1.445 1.381 1.317-1.67 2.024-2.923l1.734.803q-2.44 3.212-4.721 5.653 1.702-.032 3.918-.096-.61-.867-1.188-1.542l1.349-.738q1.991 2.28 2.858 4.11l-1.445.836q-.514-1.06-.61-1.189l-2.602.129v8.254h-1.766v-8.126q-.9.033-2.441.129-1.51.064-1.895.096zm1.798 2.794l1.703.321q-.739 3.437-2.28 5.685-.74-.578-1.446-.9 1.317-1.798 2.023-5.106zm-2.601-11.466v1.413h-7.42v-1.413zm1.156 2.858v1.51h-9.925v-1.51zm-7.162 12.43h4.56v-2.44h-4.56zm6.327 2.12H91.38v-.707h-4.561v.771h-1.67v-6.038h7.997zm-7.805-7.387v-1.413h7.612v1.413zm7.612-4.24v1.413h-7.612v-1.413zm-18.532 2.923l1.96-.032q1.412-1.67 1.701-2.088-1.606-1.83-3.5-3.276l1.092-1.22q.45.32 1.027.834 1.285-1.862 2.217-3.918l1.702.674q-1.67 2.827-2.795 4.176.803.77 1.285 1.317 1.381-1.927 2.024-3.02l1.702.771q-2.377 3.373-4.432 5.685l3.533-.096q-.578-.835-1.092-1.445l1.349-.739q1.927 2.28 2.73 3.983l-1.381.803q-.065-.161-.643-1.124l-2.377.128v8.222h-1.798v-8.126l-4.111.225zm6.873 3.148l1.413-.514q1.221 2.055 1.735 4.271l-1.478.675q-.481-2.184-1.67-4.432zm-5.074-.418l1.734.353q-.77 3.855-2.152 6.006-.45-.385-1.445-.931 1.22-1.895 1.863-5.428zm22.579 14.325v-6.199h2.12v9.218h-2.12v-1.06H80.074v1.22H78.05v-9.314h2.024v6.135h8.222v-7.901h2.088v7.9zm2.088-13.875l1.477-.546q1.702 3.211 2.184 5.203l-1.542.674q-.61-2.409-2.12-5.331zM114.152 51.794l2.152.61q-2.313 3.855-6.617 6.778-.707-.707-1.83-1.413 4.175-2.474 6.295-5.975zm21.037-1.605H123.5v7.387q0 .963-.29 1.445-.257.482-.996.707-1.027.321-5.267.321-.225-.996-.739-2.024 3.276.097 4.433.033.417-.033.546-.129.128-.064.128-.385v-7.355h-11.306v-1.992h25.181zm-7.387 2.762l1.767-1.092q1.862 1.413 3.822 3.244 1.991 1.798 3.019 3.115l-1.831 1.22q-1.028-1.348-2.987-3.211-1.927-1.863-3.79-3.276zM112.77 35.896q-.899 1.092-1.895 1.959 3.02 1.991 4.369 3.116 1.124-1.125 1.927-2.28-1.413-1.06-4.4-2.795zm7.034-2.024h-5.395q-.45.578-.675.9 2.666 1.413 4.368 2.601 1.156-1.959 1.702-3.5zm15.289-1.83l1.445.931q-2.377 4.69-6.07 8.03 3.18 2.987 7.42 4.4-.707.642-1.414 1.863-4.143-1.574-7.259-4.561v1.67h-12.75v-1.83q-3.405 3.404-8.127 5.299-.546-1.06-1.22-1.702 3.79-1.35 6.905-4.015-2.088-1.767-4.368-3.212-.482.417-1.413 1.092-.707-.996-1.446-1.413 2.602-1.735 4.561-4.015 1.96-2.313 3.052-4.529l2.184.353q-.707 1.253-1.06 1.831h5.107l.353-.128 1.317.578q-1.638 5.589-5.685 9.7h12.269q-4.272-4.368-6.327-11.467l1.959-.417q1.542 5.492 4.657 9.122 2.441-2.28 4.336-5.59h-7.002v-1.83h8.158z" style="-inkscape-font-specification:'Gen Shin Gothic Light'" paint-order="stroke markers fill" stroke-width="1.4989744200000001"/></g><g aria-label="Super Crew" style="line-height:9.51019001px;-inkscape-font-specification:'Noto Serif CJK JP';text-align:center" font-weight="400" font-size="12.646" font-family="Roboto Condensed" letter-spacing="-.644" word-spacing="0" text-anchor="middle" fill="#fffc32" stroke="#02eaf7" stroke-width=".554" stroke-linejoin="round" paint-order="stroke markers fill"><path d="M179.749 52.212q0-1.821-.986-2.79-.986-.97-3.559-1.888-2.573-.92-3.943-1.922-1.353-1.019-2.038-2.306-.668-1.303-.668-2.974 0-2.89 1.921-4.761 1.938-1.872 5.063-1.872 2.138 0 3.809.97 1.67.952 2.573 2.656.902 1.704.902 3.743h-3.074q0-2.256-1.086-3.492-1.086-1.237-3.124-1.237-1.855 0-2.874 1.036-1.02 1.036-1.02 2.907 0 1.537 1.103 2.573t3.409 1.855q3.592 1.186 5.13 2.924 1.553 1.737 1.553 4.544 0 2.958-1.921 4.745-1.922 1.771-5.23 1.771-2.122 0-3.926-.918-1.788-.936-2.824-2.607-1.02-1.687-1.02-3.86h3.075q0 2.256 1.253 3.51 1.27 1.252 3.442 1.252 2.022 0 3.04-1.036 1.02-1.035 1.02-2.823zM193.895 56.773q-1.47 1.921-4.294 1.921-2.456 0-3.71-1.687-1.252-1.704-1.27-4.946V40.282h2.941v11.562q0 4.227 2.54 4.227 2.69 0 3.71-2.406V40.282h2.957V58.36h-2.807zM212.568 50.19q0 4.294-1.553 6.4-1.538 2.104-4.361 2.104-2.724 0-4.194-2.055v8.672h-2.94V40.282h2.673l.15 2.005q1.487-2.339 4.26-2.339 2.975 0 4.445 2.072 1.47 2.072 1.52 6.199zm-2.94-1.687q0-3.041-.936-4.478-.935-1.454-3.007-1.454-2.122 0-3.225 2.122V54.1q1.086 2.072 3.258 2.072 2.005 0 2.94-1.437.953-1.454.97-4.428zM221.134 58.694q-3.375 0-5.18-2.004-1.804-2.022-1.838-5.915v-2.189q0-4.043 1.755-6.332 1.77-2.306 4.929-2.306 3.174 0 4.745 2.022 1.57 2.022 1.604 6.299v1.938h-10.092v.418q0 2.907 1.086 4.227 1.103 1.32 3.158 1.32 1.303 0 2.289-.485 1.002-.501 1.871-1.57l1.537 1.87q-1.921 2.707-5.864 2.707zm-.334-16.206q-1.838 0-2.724 1.27-.885 1.253-1.002 3.91h7.117v-.402q-.117-2.573-.935-3.675-.802-1.103-2.456-1.103zM236.432 43.056q-.618-.117-1.336-.117-2.273 0-3.175 2.49V58.36h-2.957V40.282h2.874l.05 1.838q1.186-2.172 3.358-2.172.702 0 1.17.234zM259.394 50.641q-.2 3.91-2.205 5.982-1.989 2.071-5.63 2.071-3.66 0-5.815-2.773-2.156-2.79-2.156-7.552v-4.41q0-4.746 2.206-7.503 2.222-2.757 6.048-2.757 3.525 0 5.447 2.122 1.938 2.106 2.105 6.032h-3.09q-.201-2.974-1.254-4.244-1.053-1.27-3.208-1.27-2.49 0-3.826 1.955-1.337 1.938-1.337 5.698v4.46q0 3.693 1.237 5.665 1.253 1.971 3.642 1.971 2.39 0 3.442-1.186t1.303-4.26zM268.828 43.056q-.618-.117-1.336-.117-2.273 0-3.175 2.49V58.36h-2.957V40.282h2.874l.05 1.838q1.186-2.172 3.358-2.172.702 0 1.17.234zM276.174 58.694q-3.375 0-5.18-2.004-1.804-2.022-1.837-5.915v-2.189q0-4.043 1.754-6.332 1.77-2.306 4.929-2.306 3.174 0 4.745 2.022 1.57 2.022 1.604 6.299v1.938h-10.092v.418q0 2.907 1.086 4.227 1.103 1.32 3.158 1.32 1.303 0 2.289-.485 1.002-.501 1.871-1.57l1.537 1.87q-1.921 2.707-5.864 2.707zm-.334-16.206q-1.838 0-2.724 1.27-.885 1.253-1.002 3.91h7.117v-.402q-.116-2.573-.935-3.675-.802-1.103-2.456-1.103zM297.487 53.164l2.74-12.882h2.924l-4.427 18.078h-2.356l-3.525-12.932L289.4 58.36h-2.373l-4.394-18.078h2.907l2.807 12.565 3.358-12.565h2.34z" style="-inkscape-font-specification:'Roboto Condensed, ';text-align:center" paint-order="stroke markers fill" stroke-width="1.4989744200000001"/></g><g aria-label="スパークル" style="line-height:8.33298111px;-inkscape-font-specification:'amemuchigothic-06 Bold'" font-weight="700" font-size="2.465" font-family="amemuchigothic-06" letter-spacing="4.784" word-spacing="0" fill="#fff" stroke-width=".098"><path d="M216.771 63.466v-1.948q.391.391.782.391h2.84q.391 0 1.173-.39-.39.781-.39 1.172v.384q-.437.9-1.141 1.727.886.775 1.74 1.576l-.867.866q-.82-.794-1.713-1.57-1.108.997-2.456 1.57l-.567-1.035q2.365-1.12 3.57-3.134h-2.189q-.39 0-.782.391zM241.591 66.977l-1.368.267q-.345-1.713-.801-3.27l1.27-.365q.508 1.596.9 3.368zm-4.97.267l-1.238-.566q.573-.997.9-2.183.331-1.192.37-2.384l1.336.065q-.027 1.323-.384 2.652-.359 1.329-.984 2.417zm4.208-5.576q.293.293.293.71 0 .41-.293.704-.293.293-.71.293-.41 0-.703-.293-.294-.293-.294-.704 0-.417.294-.71.293-.293.703-.293.417 0 .71.293zm-.397 1.016q.123-.13.123-.306 0-.182-.13-.306-.124-.13-.306-.13-.176 0-.306.13-.124.124-.124.306 0 .176.124.306.13.124.306.124.182 0 .313-.124zM255.402 65.538v-2.052q.39.39.782.39h4.039q.39 0 .781-.39v2.052q-.39-.391-.781-.391h-4.04q-.39 0-.781.39zM275.85 65.212l-.898-.769q.56-.566.931-1.316.372-.755.47-1.485l1.23.065q-.032.28-.078.535h2.065q.391 0 .782-.391v.593q0 1.641-.482 2.67-.475 1.023-1.46 1.55-.983.522-2.592.646l-.202-1.134q1.714-.176 2.463-.782.749-.612.892-2.019h-1.817q-.437.984-1.303 1.837zM299.433 63.942l1.205.17q-.15 1.667-.905 2.383-.75.717-2.3.717h-.593q.391-.391.391-.782v-3.87q0-.39-.39-.781h2.084q-.391.39-.391.782v3.302q.41-.162.606-.592.202-.437.293-1.33zm-5.133 2.306q.332-.176.508-.313.176-.143.319-.332.143-.195.195-.528.06-.332.085-.749.027-.417.027-1.146v-.62q0-.39-.39-.781h2.045q-.391.39-.391.782v.619q0 1.394-.156 2.169-.15.769-.502 1.198-.345.424-1.042.763z" style="-inkscape-font-specification:'amemuchigothic-06 Bold'"/></g><g aria-label="テーマ" style="line-height:44.8685379px;-inkscape-font-specification:'Gen Shin Gothic Medium'" font-weight="500" font-size="13.275" font-family="Gen Shin Gothic" letter-spacing="0" word-spacing="0" fill="#fffc32" stroke-width=".265"><path d="M166.38 15.785h-5.353q-.726 0-1.296.039v-1.362q.7.091 1.296.091h5.354q.726 0 1.322-.09v1.36q-.635-.038-1.322-.038zm-7.012 2.113h8.685q.558 0 1.115-.065v1.374q-.622-.052-1.115-.052h-3.41q-.077 2.1-.829 3.552-.376.687-1.089 1.361-.7.675-1.542 1.102l-1.232-.894q.739-.298 1.4-.83.661-.544 1.063-1.154.7-1.101.79-3.137h-3.836q-.454 0-1.206.052v-1.374q.622.065 1.206.065zM171.527 20.153V18.52q.856.078 1.97.078h7.209q.518 0 1.49-.078v1.633q-1.192-.051-1.477-.051h-7.221q-1.089 0-1.97.051zM194.927 15.188l1.05.869q-.26.285-.39.467-.803 1.322-2.034 2.76-1.232 1.427-2.658 2.542 1.245 1.244 2.178 2.36l-1.219.971q-.842-1.127-2.45-2.787-.61-.61-1.53-1.4-.92-.79-1.464-1.167l1.089-.894q1.05.778 2.398 1.97 1.205-.92 2.217-2.1 1.01-1.18 1.568-2.165h-7.454q-.583 0-1.439.078v-1.49q.726.103 1.44.103h7.674q.7 0 1.024-.117z" style="-inkscape-font-specification:'Gen Shin Gothic Medium'"/></g><g aria-label="群馬県立高崎高等学校文化祭" style="line-height:44.8685379px;-inkscape-font-specification:'Gen Shin Gothic Medium'" font-weight="500" font-size="13.275" font-family="Gen Shin Gothic" letter-spacing="0" word-spacing="0" fill="#fffc32" stroke-width=".265"><path d="M113.383 89.13h-2.075v2.153h2.075zm-.143-4.433h-1.335q-.013.052-.195 1.102h1.53zm0-2.165h-1.115q-.026.35-.104 1.128h1.219zm-2.178 5.523h3.513v4.29h-3.267v.688h-1.127v-3.267q-.338.48-.752.907-.195-.401-.791-.972 1.05-.972 1.633-2.839h-.83V85.8h1.09q.155-.752.207-1.102h-1.919V83.66h2.036q.039-.428.09-1.128h-1.439v-1.05h4.888v2.178h.713v1.037h-.713v2.165h-2.93q-.117.415-.402 1.193zm8.258-7.22l1.18.271q-.83 1.867-1.05 2.269l-1.012-.272q.532-1.05.882-2.269zm1.685 8.037v1.153h-2.502v3.008h-1.193v-3.008h-2.359v-1.153h2.36v-1.699h-1.893v-1.128h1.892v-1.542h-2.06v-1.128h.946q-.208-1.05-.856-2.1l.998-.337q.726 1.089.92 2.139l-.829.298h4.304v1.128h-2.23v1.542h1.97v1.128h-1.97v1.699zM123.001 92.916l-1.024-.622q1.102-.96 1.452-3.008l1.09.311q-.48 2.425-1.518 3.32zm2.321-3.111l1.05-.156q.415 1.413.48 2.658l-1.115.181q0-1.05-.415-2.683zm2.269-.065l.959-.207q.583 1.128.817 2.333l-1.037.285q-.156-1.102-.74-2.41zm-2.684-3.085v1.089h2.787v-1.09zm2.787-4.149h-2.787v1.102h2.787zm0 3.177v-1.09h-2.787v1.09zm1.219 2.06h5.004q-.013.35-.04.52-.129 2.112-.284 3.059-.156.933-.441 1.244-.298.363-.907.428-.532.052-1.66.013-.039-.583-.324-1.14.596.064 1.387.064.311 0 .454-.143.324-.324.518-2.955h-8.918V81.43h9.32v1.076h-4.11v1.102h3.657v.986h-3.656v1.089h3.656v.972h-3.656zm2.774 3.268l-.946.388q-.298-.842-1.037-1.853l.881-.337q.804.959 1.102 1.802zM144.65 83.09v-.882h-4.887v.882zm0 1.711v-.895h-4.887v.895zm0 1.724v-.894h-4.887v.894zm1.193-5.185v6.067h-7.246V81.34zm-7.506 8.465l1.297.48q-1.323 1.542-3.202 2.605-.622-.583-.998-.816.816-.415 1.633-1.05.817-.636 1.27-1.22zm8.997-.467h-5.25v3.682h-1.296v-3.682h-3.358v.324h-1.232V82.04h1.232v6.21h9.904zm-4.096 1.076l1.05-.66q2.139 1.451 3.124 2.384l-1.115.765q-1.063-1.089-3.06-2.489zM160.246 83.297v1.232h-11.032v-1.232h4.81v-2.45h1.283v2.45zm-6.845 7.078l-1.27.337q-.065-1.076-.39-2.553-.323-1.491-.79-2.723l1.167-.311q.492 1.245.842 2.696.35 1.452.441 2.554zm3.319.882h3.928v1.231h-11.862v-1.231h6.624q.467-1.219.934-2.969.467-1.75.739-3.24l1.413.272q-.817 3.422-1.776 5.937zM169.385 90.998V89.87h-2.852v1.128zm3.863-3.773v4.408q0 .48-.13.752-.129.272-.466.414-.531.208-2.178.208-.065-.48-.389-1.14h-3.552v.634h-1.076v-3.5h5.03v2.865q1.024.026 1.245-.013.272 0 .272-.233v-3.358h-7.999v4.77H162.8v-5.807zm-2.955-1.555v-1.076H165.6v1.076zm-5.886-1.932h7.13v2.774h-7.13zm4.123-1.711h5.16v1.076h-11.448v-1.076h5.03v-1.193h1.258zM178.836 89.273v-6.17h.855v7.985h-.855v-.816h-2.399v1.218h-.881v-8.387h.881v6.17h.687v-8.14h.986v8.14zm4.42-.842h-1.607v1.374h1.607zm.998 2.268h-2.605v.726h-.985V87.55h3.59zm-3.603-5.055h5.483q-.96-.623-2.67-1.517-.791 1.063-2.813 1.517zm6.715 0v1.024h-.882v5.03q0 .48-.13.739-.13.272-.453.401-.506.195-2.14.195-.09-.506-.427-1.115 1.245.039 1.724.013.156 0 .208-.052.064-.065.064-.207v-5.004h-5.51v-1.024h.766q-.182-.493-.584-.895 1.258-.246 1.893-.661.648-.428.908-1.154h-2.593v-1.011h2.813q.065-.493.078-1.076h1.14q-.013.415-.064 1.076h2.787v1.011h-2.969l-.039.156q-.026.09-.039.142 1.97.92 3.086 1.62l-.7.792zM195.935 90.998V89.87h-2.852v1.128zm3.863-3.773v4.408q0 .48-.13.752t-.467.414q-.531.208-2.177.208-.065-.48-.39-1.14h-3.551v.634h-1.076v-3.5h5.03v2.865q1.024.026 1.244-.013.272 0 .272-.233v-3.358h-7.998v4.77h-1.206v-5.807zm-2.956-1.555v-1.076h-4.693v1.076zm-5.885-1.932h7.13v2.774h-7.13zm4.122-1.711h5.16v1.076h-11.447v-1.076h5.03v-1.193h1.257zM213.798 87.783h-2.735v.998h2.36v1.063h-2.36v1.828q0 .505-.142.765-.143.272-.506.401-.532.195-2.269.195-.09-.48-.453-1.154 1.296.039 1.802.013.181-.013.233-.065.065-.052.065-.181v-1.802h-4.563q1.387.972 1.957 1.789l-.96.79q-.284-.44-.88-.998-.597-.57-1.232-1.037l.726-.544h-2.567V88.78h7.519v-.998h-7.96v-1.037h5.315v-1.012h-3.993V84.71h3.993v-.803h.311q-.246-.169-.518-.325.44-.376.674-.66h-2.165q.376.842.428 1.023l-1.063.415q-.143-.492-.584-1.439h-.376q-.609.934-1.244 1.569-.454-.402-1.024-.7 1.296-1.115 2.035-3.008l1.193.298q-.091.234-.376.817h3.215v.985q.83-1.01 1.192-2.1l1.193.273q-.065.181-.363.842h4.019v1.024h-2.541q.505.778.622 1.05l-1.063.428q-.246-.61-.881-1.478h-.74q-.207.324-.751.986h.078v.803h4.148v1.024h-4.148v1.012h5.38zM216.65 84.088v1.945h-1.153v-3.034h1.905q-.376-.778-1.024-1.53l1.05-.48q.908 1.012 1.245 1.777l-.48.233h2.45q-.298-.869-.92-1.828l1.063-.389q.778 1.024 1.076 1.958l-.648.259h2.242q.752-.972 1.297-2.074l1.296.415q-.635.933-1.231 1.659h1.918v3.034h-1.218v-1.945zm10.294 4.187v1.141h-5.238v2.217q0 .518-.155.804-.156.285-.558.414-.583.182-2.489.182-.103-.39-.518-1.193.635.026 1.309.04.687 0 .817-.014.194-.013.259-.065.078-.065.078-.207v-2.178h-5.173v-1.14h5.173v-.908h.622q.817-.454 1.504-.998h-5.043v-1.076h6.223l.259-.065.804.596q-1.206 1.31-3.112 2.282v.168zM240.309 82.727v1.14h-7.247v-1.14h2.969v-1.88h1.232v1.88zm-2.865 1.918l.946-.531q1.517 1.568 2.14 2.787l-1.038.596q-.583-1.244-2.048-2.852zm-2.735-.492l1.115.466q-.934 1.841-2.269 2.982-.285-.363-.843-.778.584-.48 1.128-1.218.545-.74.869-1.452zm-1.62 3.902l-.7.92q-.35-.803-.986-1.854v5.899h-1.154v-5.652q-.726 2.19-1.503 3.267-.143-.441-.597-1.102.584-.804 1.128-2.126.544-1.323.856-2.645h-1.712v-1.14h1.828v-2.775h1.154v2.774h1.517v1.141h-1.517v.843q.26.324.869 1.218.609.895.816 1.232zm4.601-1.556l1.245.26q-.57 1.801-1.53 3.137 1.348 1.426 3.15 2.074-.48.389-.855 1.089-1.75-.74-3.099-2.204-1.439 1.465-3.46 2.217-.221-.493-.636-.986 1.996-.7 3.358-2.164-.96-1.349-1.57-3.034l1.064-.311q.493 1.361 1.257 2.385.74-1.102 1.076-2.463zM250.2 84.218h-5.237q.933 2.502 2.645 4.252 1.659-1.699 2.592-4.252zm3.423 0h-1.984q-1.115 3.098-3.06 5.12 2.153 1.776 5.212 2.476-.492.493-.881 1.219-3.163-.83-5.367-2.735-2.126 1.763-5.276 2.76-.182-.453-.778-1.205 3.085-.842 5.107-2.476-1.88-2.074-2.981-5.16h-1.932v-1.192h5.302v-2.178h1.258v2.178h5.38zM258.277 81.042l1.205.401q-.635 1.465-1.426 2.723v8.84h-1.231v-7.103q-.726.92-1.543 1.672-.22-.557-.739-1.283 1.102-.92 2.087-2.32.998-1.4 1.647-2.93zm4.446 10.643h2.308q.505 0 .66-.441.156-.454.234-1.919.57.402 1.154.532-.117 1.711-.519 2.346-.389.648-1.439.648h-2.515q-1.127 0-1.53-.427-.401-.428-.401-1.634v-9.632h1.231v4.758q2.243-1.245 3.682-2.567l.894 1.076q-1.555 1.193-4.576 2.748v3.63q0 .558.143.726.156.156.674.156zM270.63 89.65l1.232.362q-.453.778-1.166 1.53-.713.739-1.465 1.245-.532-.506-1.024-.804 1.633-.934 2.424-2.334zm8.648-.467h-4.46v2.592q0 .48-.13.726-.13.247-.48.363-.479.182-2.19.182-.104-.519-.415-1.102 1.219.039 1.698.013.286 0 .286-.208v-2.566h-4.382v-1.115h10.073zm-3.034 1.089l1.011-.61q.726.558 1.491 1.27.778.714 1.18 1.245l-1.076.687q-.39-.531-1.154-1.283-.752-.752-1.452-1.31zm-5.872-6.832q-.312.35-.597.622.998.687 1.44 1.05.31-.298.621-.713-.44-.337-1.464-.96zm2.54-.908h-1.814q-.04.04-.104.143-.065.104-.104.143.882.518 1.44.881.401-.687.582-1.167zm6.3-.933l.817.544q-.933 1.79-2.346 3.138 1.18 1.076 2.8 1.594-.467.402-.778 1.037-1.659-.622-2.878-1.802v.674h-5.042v-.648q-1.362 1.27-3.163 1.958-.26-.558-.662-.973 1.426-.48 2.58-1.4-.61-.544-1.413-1.102-.155.13-.493.363-.324-.492-.79-.79 1.037-.674 1.789-1.556.765-.894 1.192-1.789l1.18.207-.35.623h1.672l.208-.04.752.312q-.623 2.19-2.062 3.733h4.175q-1.491-1.685-2.256-4.446l1.063-.233q.583 2.06 1.737 3.487.74-.765 1.348-1.802h-2.372v-1.024h3.072z" style="-inkscape-font-specification:'Gen Shin Gothic Medium'"/></g><text style="line-height:56.68144608px;-inkscape-font-specification:'Gen Shin Gothic'" x="12.468" y="245.615" font-weight="400" font-size="16.77" font-family="Gen Shin Gothic" letter-spacing="0" word-spacing="0" fill="#fffc32" stroke-width=".265" transform="translate(0 -130.312)"/><g aria-label="2018年 6月2･3日" style="line-height:56.68261719px;-inkscape-font-specification:MgC" font-weight="400" font-size="16.77" font-family="MgC" letter-spacing="0" word-spacing="0" fill="#fffc32" stroke-width=".265"><path d="M113.98 101.495q1.8 0 2.783.917 1 .917 1 2.571 0 1.638-1.196 3.309-1.196 1.67-4.455 4.454v.033h5.7v1.13h-7.55v-1.13q3.57-2.948 4.847-4.602 1.278-1.654 1.278-3.112 0-1.195-.656-1.801-.655-.623-1.916-.623-1.605 0-3.308.967v-1.31q1.556-.803 3.472-.803zM121.201 102.953q1.147-1.458 3.243-1.458t3.259 1.458q1.163 1.457 1.163 4.83 0 3.374-1.163 4.832-1.163 1.458-3.259 1.458t-3.26-1.458q-1.145-1.458-1.145-4.831 0-3.374 1.162-4.831zm.95 8.794q.754 1.245 2.293 1.245 1.556 0 2.31-1.229.769-1.244.769-3.98 0-2.734-.77-3.962-.753-1.229-2.309-1.229-1.54 0-2.31 1.229-.753 1.228-.753 3.963 0 2.735.77 3.963zM134.99 113.909v-10.743h-.032l-3.44 2.784v-1.49l3.473-2.801h1.343v12.25zM149.222 104.427q0 2.03-2.342 2.882v.033q2.784.818 2.784 3.259 0 1.588-1.179 2.538-1.179.934-3.242.934-2.064 0-3.243-.934-1.163-.933-1.163-2.538 0-1.081.72-1.916.721-.836 2.064-1.245v-.033q-1.13-.426-1.736-1.195-.606-.77-.606-1.785 0-1.327 1.065-2.13 1.064-.802 2.899-.802 1.85 0 2.915.819 1.064.802 1.064 2.113zm-3.98 2.44q1.294-.262 1.999-.868.72-.623.72-1.441 0-.918-.72-1.442-.705-.54-1.998-.54-1.278 0-1.982.524-.688.524-.688 1.458 0 .835.688 1.457.704.606 1.982.852zm-.048 1.048q-1.523.295-2.31.999-.77.688-.77 1.638 0 1.146.836 1.801.835.655 2.293.655 1.474 0 2.293-.655.818-.671.818-1.801 0-2.031-3.16-2.637zM155.282 110.158h3.75v-3.324h-3.75zm11.087 0v1.196h-6.076v3.849h-1.26v-3.849h-7.747v-1.196h2.751v-4.503h4.995v-2.539h-4.078q-1.13 1.933-2.538 3.292-.655-.557-1.081-.786 1.18-1.032 2.178-2.571 1.015-1.54 1.605-3.21l1.245.295q-.23.573-.77 1.768h10.006v1.212h-5.306v2.539h4.913v1.179h-4.913v3.324zM180.142 101.888v1.18q-1.163-.46-2.457-.443-1.539 0-2.505 1.163t-1.097 3.374l.032.016q1.032-1.441 3.26-1.441 1.817 0 2.882 1.097 1.08 1.097 1.08 2.931 0 2.015-1.179 3.161-1.162 1.147-3.111 1.147-4.357 0-4.373-5.536 0-3.537 1.294-5.29 1.31-1.752 3.717-1.752 1.343 0 2.457.393zm-3.095 11.07q1.392 0 2.162-.818.786-.835.786-2.375 0-1.359-.803-2.161-.786-.82-2.096-.82-1.327 0-2.178.82-.852.802-.852 2.063 0 1.261.737 2.277.753 1.015 2.244 1.015zM186.726 108.783h7.844v-2.817h-7.664q0 1.458-.18 2.817zm7.844-6.797h-7.664v2.784h7.664zm1.294-1.228v12.61q0 1.229-.884 1.507-.737.246-3.538.246-.147-.655-.524-1.294.934.033 3.128.033.295-.017.41-.115.114-.115.114-.393v-3.357h-8.057q-.754 3.357-2.883 5.224-.262-.426-.917-.9.95-.836 1.572-1.884.623-1.065.901-2.244.279-1.179.36-2.129.099-.966.099-2.162v-5.142zM204.02 101.495q1.801 0 2.784.917.999.917.999 2.571 0 1.638-1.196 3.309-1.195 1.67-4.454 4.454v.033h5.699v1.13h-7.55v-1.13q3.57-2.948 4.848-4.602 1.277-1.654 1.277-3.112 0-1.195-.655-1.801-.655-.623-1.916-.623-1.605 0-3.308.967v-1.31q1.556-.803 3.472-.803zM212.487 108.537q-.41-.426-.41-.999t.41-.982q.409-.426.982-.426t.983.426q.426.409.426.982t-.426 1q-.41.409-.983.409t-.982-.41zM219.103 101.659h7.353v1.13l-4.012 3.947v.032h.507q1.785 0 2.719.852.95.852.95 2.49 0 1.915-1.13 2.947-1.13 1.016-3.226 1.016-1.704 0-3.047-.64v-1.293q1.409.803 3.047.819 1.473 0 2.243-.72.77-.721.77-2.13 0-1.195-.803-1.768-.786-.59-2.538-.59h-1.228v-1.032l4.012-3.897v-.033h-5.617zM232.335 112.68h8.32v-4.667h-8.32zm8.32-10.432h-8.32v4.537h8.32zm-9.58-1.211h10.89v13.887h-1.31v-1.015h-8.32v1.097h-1.26z" style="-inkscape-font-specification:MgC"/></g><g aria-label="各種展示 イベント 食べ物" style="line-height:17.82553482px;-inkscape-font-specification:'Gen Shin Gothic'" font-weight="400" font-size="15.895" font-family="Gen Shin Gothic" letter-spacing="0" word-spacing="0" fill="#fffc32" stroke-width=".265" text-anchor="middle"><path d="M35.033 101.598h-6.938v2.825h6.938zm-8.118 4.625v-5.727h9.344v5.68h-1.226v-.682h-6.938v.73zm1.987-11.874l-.124.14q1.164 1.366 2.902 2.437 1.925-1.18 3.09-2.577zm6.938-1.118l.823.56q-1.257 2.001-3.865 3.787 2.81 1.536 6.193 2.204-.357.357-.76 1.086-3.555-.822-6.535-2.623-3.136 1.785-6.939 2.685-.17-.574-.574-1.07 3.524-.761 6.457-2.314-1.567-1.117-2.607-2.312-1.211 1.133-2.53 1.955-.42-.496-.916-.869 1.52-.838 2.856-2.095 1.35-1.273 2.173-2.717l1.133.388q-.404.683-.962 1.397h5.852zM46.271 100.34l-.714.932q-.372-.668-1.443-1.956v6.799h-1.149v-7.032q-1.133 2.763-2.297 4.16-.109-.357-.59-1.07.745-.824 1.49-2.205.745-1.382 1.242-2.779h-2.437v-1.102h2.592v-2.421q-1.164.233-2.313.404-.093-.404-.372-.932 3.383-.528 5.044-1.273l.808.9q-.994.404-2.018.637v2.685H46.1v1.102h-1.986v.978q.357.295 1.133 1.087t1.024 1.086zm1.226.28h2.22v-1.257h-2.22zm0-3.275v1.226h2.22v-1.226zm5.65 0H50.85v1.226h2.298zm0 3.275v-1.257H50.85v1.257zm-2.297 4.222h3.974v.978H45.37v-.978h4.346V103.6h-3.446v-.947h3.446v-1.133h-3.275v-5.076h3.275V95.39h-3.943v-.978h3.943v-1.056q-1.474.094-3.384.156-.03-.42-.264-.9 5.216-.218 7.7-.777l.729.9q-1.444.311-3.648.513v1.164h3.679v.978H50.85v1.055h3.353v5.076H50.85v1.133h3.43v.947h-3.43zM62.911 98.742v1.614h3.182v-1.614zm0-2.468v1.443h3.182v-1.443zm-4.005-2.84v1.8h9.5v-1.8zm9.857 8.04l.885.62q-1.149.87-2.53 1.6 1.474 1.101 3.539 1.49-.482.48-.699.993-4.315-1.071-5.945-4.797h-1.956v3.027q.155-.03 3.353-.543l.047 1.04q-1.304.217-3.664.62-2.343.404-2.468.42l-.186-1.102q.233-.031 1.816-.28v-3.182h-2.002v-1.024h2.856v-1.614h-2.375v-1.025h2.375v-1.443h-2.903v.745q0 6.178-1.878 9.142-.435-.372-1.024-.605.558-.885.93-1.987.373-1.102.529-2.313.155-1.21.201-2.126.047-.932.047-2.111v-4.626h11.843v3.88h-2.359v1.444h2.67v1.025h-2.67v1.614h3.306v1.024h-5.386q.512.947 1.273 1.692 1.444-.822 2.375-1.598zM84.844 92.828v1.148H73.76v-1.148zm-9.733 6.535l1.211.31q-1.242 3.089-3.29 5.045-.45-.388-1.072-.714 2.034-1.77 3.151-4.641zm7.063.45l1.087-.435q.9 1.133 1.707 2.5.807 1.35 1.149 2.327l-1.149.513q-.342-.978-1.133-2.36-.792-1.397-1.661-2.545zm-9.826-3.167h13.908v1.164H79.94v6.815q0 .558-.17.853-.156.295-.575.435-.652.217-2.872.217-.093-.496-.434-1.226 1.769.047 2.39.015.404 0 .404-.341V97.81h-6.334zM36.29 110.343l1.056.962q-1.925 1.94-4.269 3.446v6.799q0 1.242.093 1.707h-1.552q.093-.59.093-1.707v-6.007q-2.84 1.552-5.976 2.483l-.73-1.241q1.91-.45 3.804-1.242 1.909-.807 3.306-1.677 1.242-.776 2.375-1.723 1.149-.962 1.8-1.8zM49.624 112.376l.916-.388q.807 1.149 1.49 2.515l-.931.419q-.761-1.583-1.475-2.546zm2.049-.791l.9-.404q.823 1.102 1.552 2.468l-.915.45q-.714-1.443-1.537-2.514zm-10.105 8.164l-1.164-1.164q.543-.481 1.117-1.055.342-.342.885-.978.543-.652 1.226-1.49.683-.839 1.04-1.258.637-.776 1.196-.807.574-.046 1.443.652.978.807 3.29 3.29 2.438 2.608 3.835 4.254l-1.025 1.117q-1.164-1.49-3.57-4.222-2.281-2.53-3.104-3.228-.497-.42-.76-.388-.265.015-.668.512-.404.481-1.46 1.816-1.04 1.335-1.365 1.739l-.916 1.21zM58.146 112.081l.9-.978q.854.56 2.126 1.6 1.273 1.024 1.94 1.691l-1.008 1.009q-.621-.652-1.863-1.692-1.242-1.055-2.095-1.63zm.388 10.974l-.854-1.303q3.477-.528 6.364-2.313 1.754-1.102 3.167-2.701 1.412-1.599 2.142-3.151l.76 1.35q-.884 1.6-2.266 3.105-1.366 1.49-3.073 2.545-2.825 1.832-6.24 2.468zM84.797 117.328l-.528 1.35q-2.67-1.428-6.255-2.56l.016 5.246q0 1.086.093 1.878h-1.521q.093-.76.093-1.878v-9.252q0-.993-.125-1.66h1.553q-.109 1.164-.109 1.66v2.593q1.599.48 3.555 1.241 1.97.76 3.228 1.382z" style="-inkscape-font-specification:'Gen Shin Gothic';text-align:center"/><path d="M35.554 137.202h-4.052q.575.87 1.444 1.537 1.475-.745 2.608-1.537zm-7.73-2.375v1.397h6.69v-1.397zm0-2.235v1.335h6.69v-1.335zm3.896-.978h3.43q-2.623-1.63-4.051-3.29-1.288 1.598-3.85 3.29h3.276v-1.567h1.195zm4.827 4.874l.885.683q-1.599 1.133-3.617 2.158 1.832 1.07 4.502 1.443-.342.326-.714 1.025-5.34-.916-7.296-4.595h-2.483v3.105l4.082-.388.016 1.055q-4.58.481-6.877.683l-.186-1.102q.155-.015.776-.062.636-.062 1.025-.093v-8.413q-.839.528-2.127 1.148-.295-.558-.699-.962 2.018-.87 3.834-2.22 1.817-1.35 2.779-2.685h1.164q1.288 1.475 3.182 2.763 1.894 1.273 3.756 1.971-.263.295-.76 1.04-.885-.388-2.111-1.102v5.185q.31-.218.87-.637zM57.571 130.248l.932-.388q.807 1.195 1.505 2.546l-.947.403q-.807-1.645-1.49-2.56zm2.08-.791l.9-.404q.932 1.242 1.553 2.484l-.9.45q-.792-1.537-1.553-2.53zm-10.182 8.226l-1.164-1.21q.45-.326 1.133-1.056.372-.372.9-.993.528-.637 1.242-1.537.714-.916.947-1.195.698-.838 1.35-.9.652-.063 1.444.714.465.48 1.567 1.785 1.118 1.304 1.615 1.831 2.095 2.344 3.911 3.974l-1.009 1.118q-1.272-1.211-3.725-3.974-.45-.512-1.506-1.785-1.04-1.273-1.443-1.692-.512-.512-.807-.481-.28.015-.683.527-.31.404-1.366 1.754t-1.475 1.879q-.186.232-.512.683-.31.434-.42.558zM78.44 135.386l-2.002.637v5.79h-1.102v-5.433q-.481.14-1.366.419-.885.28-1.257.388l-.31-1.133q1.97-.528 2.933-.839v-3.539h-1.444q-.295 1.397-.698 2.344-.606-.419-.9-.528.73-1.645 1.086-5.293l1.04.187q-.093.822-.295 2.142h1.21v-3.229h1.103v3.229h1.645v1.148h-1.645v3.229l1.847-.559zm7.28-5.448l1.118.015q0 .45-.016.59-.264 5.34-.558 7.606-.295 2.25-.777 2.856-.372.528-1.102.606-.574.077-1.816 0-.03-.714-.326-1.165.9.078 1.661.078.357 0 .59-.28.404-.434.667-2.514.28-2.08.513-6.675h-.76q-.637 3.338-1.972 6.163t-3.213 4.315q-.373-.42-.978-.714 1.862-1.335 3.166-3.943 1.304-2.623 1.972-5.82h-1.304q-.559 2.141-1.615 4.128-1.04 1.972-2.297 3.058-.372-.403-.931-.683 1.226-.947 2.235-2.716 1.025-1.785 1.599-3.788H80.21q-.838 1.863-1.816 3.012-.249-.249-.9-.683 1.893-2.05 2.778-6.1l1.071.217q-.28 1.226-.714 2.452h5.091z" style="-inkscape-font-specification:'Gen Shin Gothic';text-align:center" letter-spacing="8.389"/></g><g aria-label="高崎駅より" style="line-height:44.8685379px;-inkscape-font-specification:'Gen Shin Gothic Medium'" font-weight="500" font-size="13.275" font-family="Gen Shin Gothic" letter-spacing="0" word-spacing="0" fill="#fffc32" stroke-width=".265"><path d="M115.78 132.587v-1.127h-2.851v1.127zm3.864-3.772v4.408q0 .48-.13.751-.13.273-.466.415-.532.208-2.178.208-.065-.48-.39-1.141h-3.551v.635h-1.076v-3.5h5.03v2.865q1.024.026 1.244-.013.272 0 .272-.233v-3.358h-7.998v4.77h-1.206v-5.807zm-2.956-1.556v-1.076h-4.693v1.076zm-5.885-1.931h7.13v2.774h-7.13zm4.122-1.711h5.16v1.076h-11.447v-1.076h5.03v-1.193h1.257zM125.231 130.863v-6.17h.856v7.985h-.856v-.817h-2.398v1.219h-.882v-8.387h.882v6.17h.687v-8.14h.985v8.14zm4.42-.842h-1.607v1.374h1.608zm.999 2.268h-2.606v.726h-.985v-3.876h3.591zm-3.604-5.056h5.484q-.96-.622-2.67-1.516-.792 1.063-2.814 1.516zm6.715 0v1.025h-.881v5.03q0 .48-.13.738-.13.273-.454.402-.505.195-2.139.195-.09-.506-.427-1.115 1.244.039 1.724.013.155 0 .207-.052.065-.065.065-.208v-5.003h-5.51v-1.025h.765q-.181-.492-.583-.894 1.257-.246 1.893-.661.648-.428.907-1.154h-2.593v-1.011h2.813q.065-.493.078-1.076h1.141q-.013.415-.065 1.076h2.787v1.011h-2.968l-.04.156-.038.142q1.97.92 3.085 1.62l-.7.791zM135.343 133.936l-.661-.376q.596-.856.687-2.995l.7.13q-.13 2.398-.726 3.24zm.972-3.099l.596-.064q.208 1.205.182 2.398l-.622.09q.039-1.101-.156-2.424zm.169-2.942v1.024h1.089v-1.024zm1.089-3.928h-1.09v.972h1.09zm0 2.955v-1.01h-1.09v1.01zm1.024 1.997h1.944q-.013.31-.026.453-.116 2.45-.259 3.488-.13 1.024-.376 1.335-.298.35-.739.389-.415.052-1.205.013-.026-.532-.273-.985.415.051.96.051.246 0 .376-.142.181-.22.31-1.465l-.44.181q-.194-.881-.687-1.724l.531-.181q.376.635.623 1.348.064-.869.103-1.789h-4.005v-6.948h4.939v1.024h-1.776v.972h1.542v.972h-1.542v1.011h1.542v.973h-1.542zm-.26 3.798l-.609.143q-.065-.895-.467-2.14l.57-.116q.429 1.193.506 2.113zm7.104-8.647H142.5v3.319h2.942zm1.115 4.46h-2.009q.661 3.876 2.593 5.133-.195.156-.441.454-.233.311-.35.545-1.193-.843-1.867-2.373-.674-1.53-1.037-3.76h-.946q-.078 4.175-1.44 6.12-.427-.402-.997-.636.79-1.127 1.037-2.644.246-1.53.246-3.41v-5.017h5.211zM153.621 131.628q0-.402-.013-.661-.583-.117-1.192-.117-.895 0-1.413.285-.506.286-.506.778 0 .506.48.765.493.26 1.335.26.687 0 .998-.312.311-.324.311-.998zm5.367.635l-.803 1.245q-1.413-1.413-3.19-2.14.014.286.014.7 0 .934-.61 1.53-.609.597-1.97.597-1.478 0-2.372-.532-.895-.531-.895-1.685 0-1.011.869-1.646.881-.648 2.553-.648.325 0 .973.051-.091-2.424-.091-2.942 0-.415-.013-1.219v-1.063q-.026-.933-.13-1.413h1.582q-.052.35-.117 1.413v1.154q2.087-.026 3.799-.22l.052 1.257q-1.53.143-3.85.194 0 .428.129 3.125 2.346.66 4.07 2.242zM164.044 123.007l1.426.052q-.402 1.4-.57 3.254.492-1.037 1.413-1.828.933-.79 2.022-.79 1.361 0 2.23 1.257.881 1.244.881 3.332 0 4.939-5.639 5.963l-.79-1.193q1.166-.181 2.009-.48.855-.31 1.568-.842.713-.545 1.076-1.4.376-.869.376-2.048 0-1.556-.505-2.464-.506-.92-1.44-.92-.764 0-1.49.674-.726.661-1.18 1.608-.44.946-.492 1.815-.065.557.052 1.503l-1.297.104q-.155-1.18-.155-2.126 0-1.4.402-4.24.09-.725.103-1.23z" style="-inkscape-font-specification:'Gen Shin Gothic Medium'"/></g><g aria-label="無料シャトルバス運行！" style="line-height:61.03739166px;-inkscape-font-specification:'Gen Shin Gothic'" font-weight="400" font-size="18.058" font-family="Gen Shin Gothic" letter-spacing="0" word-spacing="0" fill="#fffc32" stroke-width=".265"><path d="M121.088 142.002v-3.05h-2.116v3.05zm0 4.286v-3.086h-2.116v3.086zm-8.518-3.086v3.086h2.01v-3.086zm5.238 0h-2.098v3.086h2.098zm-2.098-1.2h2.098v-3.05h-2.098zm-3.14-3.05v3.05h2.01v-3.05zm-1.199 3.05v-2.327q-.829.934-1.622 1.604-.6-.6-1.111-.881 1.181-.865 2.187-2.099 1.022-1.252 1.657-2.61l1.288.37q-.353.794-.953 1.71h11.393v1.182h-1.87v3.051h2.54v1.2h-2.54v3.086h2.275v1.217H109.15v-1.217h2.222v-3.086h-2.522v-1.2zm-1.375 10.194l-1.27-.53q.688-.546 1.287-1.463.6-.935.953-1.94l1.252.3q-.776 2.363-2.222 3.633zm4.091-3.492l1.235-.124q.423 2.081.44 3.245l-1.287.194q-.035-1.499-.388-3.315zm3.65.017l1.253-.229q.829 1.693 1.146 3.263l-1.287.282q-.3-1.446-1.111-3.316zm3.669-.123l1.234-.406q1.675 2.01 2.451 3.527l-1.34.494q-.74-1.587-2.345-3.615zM138.723 139.18l-.687 1.024q-.882-1.059-2.84-2.328l.688-.9q1.975 1.217 2.84 2.205zm-.793 4.304l-.67 1.093q-.988-1.04-2.98-2.169l.634-.935q2.152 1.147 3.016 2.01zm-5.203-6.72l1.164.3q-.987 3.07-1.481 4.057l-.864-.283q.652-1.622 1.181-4.073zm-3.756 4.04l-1.058.264q-.141-1.746-.987-3.986l.987-.247q.829 1.94 1.058 3.968zm1.975 2.186v.247q.37.405 1.358 1.746 1.005 1.322 1.34 1.816l-.881 1.04q-.476-1.005-1.817-3.068v7.407h-1.252v-7.425q-1.164 3.351-2.486 5.15-.194-.511-.67-1.305.758-.952 1.534-2.504.793-1.57 1.27-3.104h-2.54v-1.27h2.892v-5.96h1.252v5.96h2.945v1.27zm12.31 3.703l-2.328.406v5.079h-1.27v-4.85l-5.59 1.023-.212-1.252 5.802-1.023v-10.37h1.27v10.123l2.134-.37zM148.564 138.14l.811-1.199q2.17 1.235 3.915 2.54l-.846 1.234q-1.817-1.376-3.88-2.575zm-1.058 13.174l-.83-1.482q3.37-.564 6.05-2.098 2.222-1.27 3.968-2.98 1.763-1.711 2.874-3.633l.864 1.481q-1.181 1.834-2.98 3.527-1.799 1.675-3.95 2.945-1.305.74-2.98 1.358-1.676.617-3.016.882zm-1.64-9.082l.793-1.235q2.47 1.34 3.968 2.434l-.829 1.27q-1.887-1.394-3.932-2.47zM176.727 141.597l.9.635q-.565 1.146-1.746 2.75-1.164 1.606-2.099 2.523l-1.287-.635q.811-.723 1.71-1.8.917-1.092 1.394-1.921-1.253.211-5.467 1.075.264.917.705 2.575l.74 2.645q.283 1.006.389 1.358.105.335.405 1.235l-1.534.388q-.07-.565-.282-1.305-.106-.353-.388-1.411-.282-1.058-.706-2.592l-.705-2.593q-2.769.547-3.668.74l-.353-1.375q.512-.035 1.5-.194.105-.017.405-.07l.829-.141q.511-.106.97-.194-.424-1.517-.6-2.081-.159-.564-.423-1.076l1.534-.388q.018.07.265 1.164l.564 2.134q5.537-1.076 6.26-1.235.53-.14.688-.211zM195.35 144.63l-.6 1.534q-3.033-1.622-7.107-2.91l.018 5.961q0 1.235.106 2.134h-1.728q.105-.864.105-2.134v-10.51q0-1.129-.14-1.887h1.763q-.124 1.322-.124 1.887v2.945q1.817.546 4.039 1.41 2.24.865 3.668 1.57zM200.658 151.243l-1.34-.917q2.24-1.587 3.139-4.444.529-1.658.529-7.248 0-.635-.124-1.323h1.676q-.106 1.27-.106 1.305 0 5.679-.547 7.672-.846 2.98-3.227 4.955zm7.883-.017l-.952-.812q.123-.493.123-1.005V138.6q0-.494-.106-1.34h1.658q-.07.564-.07 1.34v10.422q1.357-.617 2.821-1.799 1.464-1.199 2.434-2.645l.864 1.217q-1.111 1.517-2.786 2.857-1.676 1.323-3.369 2.151-.264.141-.617.424zM229.033 137.135l.952-.406q.864 1.217 1.482 2.487l-.97.423q-.653-1.375-1.464-2.504zm1.993-.723l.952-.406q.829 1.094 1.517 2.47l-.97.423q-.811-1.605-1.5-2.487zm-10.916 8.959q1.41-3.386 1.78-6.684l1.606.317q-.318 1.217-.335 1.323-.812 3.633-1.64 5.643-1.112 2.751-2.646 4.956l-1.534-.653q1.587-2.063 2.769-4.902zm8.888-.688q-1.5-3.827-2.61-5.714l1.463-.476q1.323 2.38 2.628 5.696 1.217 2.928 2.17 6.172l-1.606.53q-.67-2.699-2.045-6.208zM247.762 138.017l.917.705q-.23.318-.441.794-1.164 2.945-3.034 5.29 1.323 1.129 2.787 2.646 1.464 1.516 2.486 2.733l-1.27 1.111q-2.221-2.91-4.972-5.361-3.351 3.598-7.037 5.273l-1.164-1.217q2.081-.811 4.021-2.24 1.94-1.446 3.421-3.121.935-1.058 1.799-2.487.864-1.446 1.2-2.539h-7.037q-.864 0-1.834.088v-1.64q.864.124 1.834.124h6.966q.846 0 1.358-.16zM259.119 137.347v1.322h-1.2v-2.345h11.11v2.345h-1.234v-1.322zm.917 7.988h2.733v-1.216h-2.733zm0-3.28v1.182h2.733v-1.182zm6.824 0h-2.768v1.182h2.768zm0 3.28v-1.216h-2.768v1.216zm-4.09 4.762v-1.71h-5.15v-1.041h5.15v-1.094h-3.898v-5.114h3.897v-1.075h-4.462v-1.023h4.462v-1.235h1.323v1.235h4.514v1.023h-4.514v1.075h3.985v5.114h-3.985v1.094h5.273v1.04h-5.273v1.71zm-5.468-11.022l-1.093.846q-.406-.652-1.217-1.499-.794-.846-1.64-1.516l1.04-.758q2.01 1.534 2.91 2.927zm-.546 3.686v5.802q1.216 1.922 4.55 2.028 1.498.07 4.09.035 2.593-.035 4.216-.141-.353.67-.441 1.305-4.32.194-7.848.035-1.799-.07-3.05-.582-1.253-.494-2.064-1.534-1.094 1.058-2.504 2.31l-.706-1.287q1.27-.952 2.487-2.081v-4.62h-2.293v-1.27zM287.017 136.782v1.27H278.2v-1.27zm-11.833-1.093l1.288.511q-.865 1.164-2.134 2.381-1.252 1.217-2.487 2.099-.582-.847-.793-1.076 1.128-.758 2.292-1.852 1.164-1.11 1.834-2.063zm.74 3.844l1.253.477q-.794 1.287-1.993 2.715v9.506h-1.322v-8.024q-1.147 1.181-2.046 1.887-.53-.723-.935-1.129 1.393-1.005 2.751-2.451 1.358-1.464 2.293-2.98zm11.622 2.187v1.288h-2.733v7.46q0 .634-.176.952-.177.335-.618.493-.67.212-3.385.212-.089-.6-.441-1.305 2.08.053 2.821.018.265-.018.353-.089.088-.088.088-.3v-7.441h-6.031v-1.288zM296.84 146.429l-.423-7.001-.053-2.134h2.152l-.036 2.134-.44 7zm1.623 4.074q-.406.388-1.023.388-.617 0-1.04-.388-.406-.388-.406-1.04 0-.618.423-1.006.423-.406 1.023-.406.6 0 1.023.406.423.388.423 1.005 0 .653-.423 1.04z" style="-inkscape-font-specification:'Gen Shin Gothic'"/></g></svg>