<svg xmlns="http://www.w3.org/2000/svg" width="600" height="60" viewBox="0 0 158.75 15.875"><g word-spacing="0"><g aria-label="第66回" style="line-height:16.28657532px;-inkscape-font-specification:'Gen Shin Gothic Heavy'" font-weight="400" font-size="9.772" font-family="Gen Shin Gothic" letter-spacing="0" fill="#fffc32" stroke="#02eaf7" stroke-width=".8" stroke-linejoin="round" paint-order="stroke markers fill"><path d="M13.505 5.149h-.382q-.439.697-.925 1.202-.353-.276-.592-.39.935-.85 1.46-2.282l.687.172q-.076.21-.315.716h2.567v.582h-1.794q.277.563.353.897l-.62.248q-.086-.41-.439-1.145zm2.28 3.445H13.6q-.038.162-.114.468-.076.295-.105.429h2.405zm.707-1.603v.983h2.433V6.99zm0 2.5h3.712q-.01.19-.019.296-.181 1.851-.515 2.185-.23.23-.62.239-.42.028-1.232 0-.019-.41-.19-.668.477.038 1.107.038.267 0 .343-.067.21-.21.344-1.393h-2.93v2.52h-.706v-2.3q-.678.677-1.66 1.25-.974.572-1.957.887-.2-.334-.458-.573.916-.257 1.842-.734.935-.478 1.593-1.05H13.22l-.058.19q-.028.115-.038.134l-.706-.105q.372-1.24.601-2.366h2.768V6.99H12.54v-.62h7.1v2.223h-3.149zm.763-4.924h3.283v.582h-2.176q.41.544.563.916l-.639.248q-.181-.506-.687-1.164h-.697q-.458.668-1.011 1.164-.287-.257-.582-.42.515-.4.925-.983.42-.582.659-1.23l.696.171q-.105.286-.334.716z" style="-inkscape-font-specification:'Gen Shin Gothic'" paint-order="stroke markers fill"/><path d="M24.522 4.944v.749h-.138q-.845.019-1.322.573-.477.548-.548 1.655.462-.582 1.183-.582.768 0 1.217.635.453.63.453 1.655 0 1.093-.501 1.728-.496.634-1.336.634-.845 0-1.36-.749-.515-.749-.515-1.99v-.338q0-1.432.31-2.281.31-.85.911-1.26.606-.415 1.503-.43zm-.968 3.13q-.344 0-.635.262-.29.263-.42.668v.349q0 .844.296 1.379.3.53.735.53.472 0 .74-.435.267-.439.267-1.155 0-.706-.268-1.15-.267-.448-.715-.448zM29.351 4.944v.749h-.138q-.845.019-1.322.573-.477.548-.549 1.655.463-.582 1.184-.582.768 0 1.216.635.454.63.454 1.655 0 1.093-.501 1.728-.497.634-1.336.634-.845 0-1.36-.749-.516-.749-.516-1.99v-.338q0-1.432.31-2.281.31-.85.912-1.26.606-.415 1.503-.43zm-.969 3.13q-.343 0-.634.262-.291.263-.42.668v.349q0 .844.296 1.379.3.53.735.53.472 0 .74-.435.266-.439.266-1.155 0-.706-.267-1.15-.267-.448-.716-.448z" style="-inkscape-font-specification:'Roboto Condensed, '" font-family="Roboto Condensed" paint-order="stroke markers fill"/><path d="M36.723 9.243V7.019h-2.367v2.224zM33.66 6.36h3.779v3.53h-3.78zm-1.403 5.067h6.594V4.853h-6.594zm-.735-7.3h8.102v8.512h-.773v-.525h-6.594v.525h-.735z" style="-inkscape-font-specification:'Gen Shin Gothic'" paint-order="stroke markers fill"/></g><g aria-label="翠巒祭" style="line-height:20.25912476px;-inkscape-font-specification:'Gen Shin Gothic Heavy'" font-weight="300" font-size="12.155" font-family="Gen Shin Gothic" letter-spacing="0" fill="#fffc32" stroke="#02eaf7" stroke-width=".8" stroke-linejoin="round" paint-order="stroke markers fill"><path d="M54.533 6.092V3.67h-3.739v-.653h4.487v3.075q0 .285-.071.439-.071.154-.273.225-.297.095-1.425.095-.023-.106-.13-.332l-.13-.273q.806.036 1.103.012.178-.012.178-.166zM53.156 4.69l-.439.487q-.546-.499-1.472-1.01l.427-.415q.879.404 1.484.938zm.772.368l.095.558q-.594.225-1.71.617-1.104.392-1.234.44l-.344-.606q1.27-.356 3.193-1.01zm-4.5 1.009V3.67H45.75v-.653h4.416v3.05q0 .547-.368.677-.285.095-1.425.095-.047-.19-.273-.605.914.036 1.14 0 .19 0 .19-.166zM48.053 4.69l-.451.487q-.475-.487-1.401-1.01l.44-.415q.949.51 1.412.938zm.676.451l.095.546q-.736.25-2.932.95l-.344-.606q.89-.225 3.181-.89zm7.277 5.78v.666h-5.021v1.875h-.807v-1.875h-4.938v-.665h4.938V10.4h.783q-.154-.155-.463-.38 1.508-.665 1.994-1.923h-3.798l.487.107q-.167.368-.392.688 1.116.63 1.484.914l-.51.487q-.369-.309-1.366-.914-.724.783-1.84 1.377-.19-.226-.57-.475 1.84-.82 2.47-2.184h-2.553v-.653h4.274v-.867h.807v.867h4.345v.653h-2.565l.463.083q-.142.403-.439.843 1.532.771 2.208 1.282l-.57.486q-.653-.498-2.053-1.27-.523.558-1.306.985l-.083-.083v.499zM64.315 5.961l.712-.012q.581-.64.712-.819-.475-.546-1.258-1.151l.38-.463q.154.095.32.249.487-.665.831-1.377l.63.25q-.523.83-1.022 1.471.19.166.534.51.487-.617.748-1.08l.641.297q-.902 1.187-1.745 2.09.63-.012 1.449-.036-.226-.32-.44-.57l.499-.273q.736.843 1.056 1.52l-.534.308q-.19-.392-.225-.44l-.962.048v3.051h-.653V6.531q-.332.012-.902.047-.558.024-.7.036zm.664 1.033l.63.118q-.274 1.27-.843 2.102-.273-.214-.535-.333.487-.665.748-1.887zm-.961-4.238v.522h-2.742v-.522zm.427 1.056v.558h-3.668v-.558zm-2.647 4.594h1.686v-.902h-1.686zm2.338.784h-.652v-.261h-1.686v.285h-.617V6.982h2.955zm-2.884-2.73v-.523h2.813v.523zm2.813-1.567v.522h-2.813v-.522zm-6.85 1.08l.725-.012q.522-.617.63-.772-.594-.676-1.295-1.21l.404-.451q.166.118.38.308.475-.688.819-1.448l.629.25q-.617 1.044-1.033 1.542.297.285.475.487.51-.712.748-1.116l.629.285q-.878 1.247-1.638 2.101l1.306-.035q-.214-.309-.404-.535l.499-.273q.712.843 1.009 1.472l-.51.297q-.025-.06-.238-.415l-.879.047v3.04h-.664V6.53l-1.52.083zm2.541 1.163l.523-.19q.45.76.64 1.58l-.545.248q-.179-.807-.618-1.638zm-1.875-.154l.64.13q-.284 1.425-.795 2.22-.166-.142-.534-.344.451-.7.689-2.006zm8.345 5.294v-2.29h.783v3.406h-.783V13h-6.92v.451h-.749V10.01h.748v2.267h3.039v-2.92h.772v2.92zm.771-5.128l.546-.202q.63 1.187.808 1.923l-.57.25q-.226-.89-.784-1.97zM71.9 10.436l.795.226q-.855 1.424-2.445 2.504-.261-.26-.677-.522 1.543-.914 2.327-2.208zm7.775-.593h-4.32v2.73q0 .356-.108.534-.095.178-.368.261-.38.119-1.946.119-.084-.368-.273-.748 1.21.036 1.638.012.154-.012.202-.047.047-.024.047-.143V9.843h-4.178v-.736h9.306zm-2.73 1.02l.653-.403q.688.522 1.412 1.199.736.665 1.116 1.151l-.676.451q-.38-.498-1.104-1.187-.713-.688-1.401-1.21zM71.389 4.56q-.332.404-.7.724 1.116.736 1.614 1.152.416-.416.713-.843-.523-.392-1.627-1.033zm2.6-.748h-1.994q-.166.214-.25.333.986.522 1.615.961.427-.724.63-1.294zm5.65-.676l.535.344q-.879 1.733-2.244 2.968 1.175 1.104 2.742 1.626-.26.237-.522.689-1.531-.582-2.683-1.686v.617h-4.712v-.676q-1.259 1.258-3.004 1.958-.202-.392-.45-.629 1.4-.499 2.551-1.484-.771-.653-1.614-1.187-.178.154-.522.404-.261-.368-.535-.523.962-.64 1.686-1.483.724-.855 1.128-1.674l.807.13q-.261.463-.392.677h1.888l.13-.047.487.213q-.605 2.066-2.101 3.585h4.534Q75.77 5.344 75.01 2.72l.724-.154q.57 2.03 1.721 3.371.902-.843 1.603-2.065H76.47v-.677h3.015z" style="-inkscape-font-specification:'Gen Shin Gothic Light'" paint-order="stroke markers fill"/></g><g aria-label="Super Crew" style="line-height:9.51019001px;-inkscape-font-specification:'Noto Serif CJK JP';text-align:center" font-weight="400" font-size="12.646" font-family="Roboto Condensed" letter-spacing="-.644" text-anchor="middle" fill="#fffc32" stroke="#02eaf7" stroke-width=".8" stroke-linejoin="round" paint-order="stroke markers fill"><path d="M98.814 10.046q0-.673-.364-1.031-.364-.358-1.315-.698-.951-.34-1.458-.71-.5-.377-.753-.852-.247-.482-.247-1.1 0-1.068.71-1.76.716-.69 1.871-.69.79 0 1.408.357.618.352.951.982.334.63.334 1.383h-1.137q0-.833-.401-1.29-.401-.457-1.155-.457-.685 0-1.062.383t-.377 1.074q0 .568.408.951t1.26.686q1.327.438 1.895 1.08.575.642.575 1.68 0 1.093-.71 1.753-.71.655-1.933.655-.784 0-1.451-.34-.661-.345-1.044-.963-.377-.624-.377-1.426h1.137q0 .833.463 1.296.469.464 1.272.464.747 0 1.124-.383.376-.383.376-1.044zM104.042 11.732q-.543.71-1.587.71-.907 0-1.37-.624-.464-.63-.47-1.827V5.637h1.087V9.91q0 1.563.939 1.563.994 0 1.37-.89V5.637h1.094v6.682h-1.038zM110.944 9.299q0 1.587-.574 2.365-.568.778-1.612.778-1.007 0-1.55-.76v3.205h-1.087v-9.25h.988l.056.741q.55-.864 1.574-.864 1.1 0 1.643.765.543.766.562 2.291zm-1.087-.624q0-1.124-.346-1.655-.345-.537-1.111-.537-.784 0-1.192.784v3.477q.401.766 1.204.766.741 0 1.087-.531.352-.538.358-1.637zM114.11 12.442q-1.248 0-1.915-.741-.667-.747-.679-2.186v-.809q0-1.494.648-2.34.655-.852 1.822-.852 1.173 0 1.754.747.58.747.593 2.328v.716h-3.73v.154q0 1.075.401 1.563.408.488 1.167.488.482 0 .846-.18.37-.185.692-.58l.568.692q-.71 1-2.167 1zm-.124-5.99q-.68 0-1.006.47-.328.463-.371 1.445h2.63v-.149q-.043-.95-.345-1.358-.297-.408-.908-.408zM119.764 6.662q-.229-.043-.494-.043-.84 0-1.174.92v4.78h-1.093V5.637h1.063l.018.68q.439-.803 1.241-.803.26 0 .433.086zM128.25 9.466q-.074 1.445-.815 2.21-.735.766-2.081.766-1.352 0-2.149-1.025-.797-1.031-.797-2.791v-1.63q0-1.754.816-2.773.82-1.019 2.235-1.019 1.303 0 2.013.784.716.778.778 2.23h-1.142q-.074-1.1-.463-1.569-.39-.47-1.186-.47-.92 0-1.414.723-.494.717-.494 2.106v1.649q0 1.364.457 2.093.463.729 1.346.729t1.272-.439q.389-.438.482-1.574zM131.737 6.662q-.229-.043-.494-.043-.84 0-1.173.92v4.78h-1.093V5.637h1.062l.018.68q.439-.803 1.241-.803.26 0 .433.086zM134.452 12.442q-1.248 0-1.915-.741-.667-.747-.679-2.186v-.809q0-1.494.648-2.34.655-.852 1.822-.852 1.173 0 1.754.747.58.747.593 2.328v.716h-3.73v.154q0 1.075.401 1.563.408.488 1.167.488.482 0 .846-.18.37-.185.692-.58l.568.692q-.71 1-2.167 1zm-.124-5.99q-.68 0-1.006.47-.328.463-.37 1.445h2.63v-.149q-.044-.95-.346-1.358-.297-.408-.908-.408zM142.329 10.398l1.013-4.76h1.08l-1.636 6.68h-.87l-1.304-4.779-1.272 4.78h-.877l-1.624-6.682h1.075l1.037 4.644 1.241-4.644h.865z" style="-inkscape-font-specification:'Roboto Condensed, ';text-align:center" paint-order="stroke markers fill"/></g><g aria-label="スパークル" style="line-height:8.33298111px;-inkscape-font-specification:'amemuchigothic-06 Bold'" font-weight="700" font-size="2.465" font-family="amemuchigothic-06" letter-spacing="4.784" fill="#fff" stroke-width=".265"><path d="M112.497 14.206v-.72q.145.144.29.144h1.049q.144 0 .433-.144-.144.289-.144.433v.142q-.161.332-.421.638.327.287.642.583l-.32.32q-.303-.294-.633-.58-.41.368-.908.58l-.21-.383q.875-.414 1.32-1.158h-.809q-.144 0-.289.145zM121.67 15.503l-.505.099q-.128-.633-.296-1.209l.47-.134q.187.59.331 1.244zm-1.837.099l-.457-.21q.212-.368.332-.806.123-.44.137-.881l.494.024q-.01.489-.142.98-.132.491-.364.893zm1.556-2.06q.108.107.108.262 0 .151-.108.26-.109.108-.263.108-.151 0-.26-.108-.108-.109-.108-.26 0-.155.108-.263.109-.108.26-.108.154 0 .263.108zm-.147.375q.046-.048.046-.113 0-.068-.049-.114-.045-.048-.113-.048-.065 0-.113.048-.046.046-.046.114 0 .065.046.113.048.045.113.045.068 0 .116-.045zM126.775 14.971v-.758q.144.144.289.144h1.492q.145 0 .29-.144v.758q-.145-.144-.29-.144h-1.492q-.145 0-.29.144zM134.332 14.85l-.332-.283q.207-.21.344-.487.138-.279.174-.549l.455.025q-.012.103-.03.197h.764q.144 0 .289-.144v.219q0 .606-.178.987-.176.378-.54.573-.363.192-.958.238l-.074-.419q.633-.065.91-.289.277-.226.33-.746h-.672q-.162.363-.482.679zM143.048 14.381l.445.063q-.055.616-.334.881-.277.265-.85.265h-.22q.145-.144.145-.289v-1.43q0-.145-.144-.289h.77q-.144.144-.144.289v1.22q.151-.06.224-.219.074-.16.108-.49zm-1.897.853q.122-.065.187-.116.065-.053.118-.123.053-.072.073-.195.021-.123.031-.277.01-.154.01-.423v-.23q0-.144-.144-.288h.755q-.144.144-.144.289v.229q0 .515-.058.801-.055.284-.185.443-.128.157-.385.282z" style="-inkscape-font-specification:'amemuchigothic-06 Bold'"/></g></g></svg>