<svg xmlns="http://www.w3.org/2000/svg" width="600" height="600" viewBox="0 0 158.75 158.75"><g transform="translate(0 -138.25)"><path fill="#00eaf7" fill-opacity=".876" paint-order="stroke fill markers" d="M0 138.25h158.75V297H0z"/><path d="M0 138.25V297h158.75V138.25H0zm79.427 25.458l19.846 19.847H59.58l19.847-19.847zm-34.963 24.338h69.766v36.779l-14.194-12.618 8.403-8.403H90.582l-11.234-9.987-11.235 9.987H50.311l8.378 8.377-14.225 12.644v-36.78zm14.128 19.188h41.566l-20.783 20.782-20.783-20.782zm-14.104 17.685h26.939l6.857 6.858-6.94 6.94H50.328l10.508 10.508-16.348 16.347V224.92zm42.835 0h26.932v40.653l-16.328-16.327 10.53-10.528H87.398l-6.937-6.937 6.86-6.86zm-28.714 17.228h41.566L79.392 262.93 58.61 242.147z" fill="#00eaf7" fill-opacity=".876" paint-order="stroke fill markers"/><g aria-label="翠巒祭" style="line-height:68.30567932px;-inkscape-font-specification:'Gen Shin Gothic Medium'" font-weight="700" font-size="40.983" font-family="Gen Shin Gothic" letter-spacing="0" word-spacing="0" fill="#fffc32" stroke-width="2.732"><path d="M39.972 223.763v.96h9.406q-1.801-1.2-5.563-3.122-1.601 1.481-3.522 2.442zm-14.848.96h9.926v-1.76h4.002q-1.24-1.041-2.161-1.562 4.202-1.8 5.763-4.842H32.088l.96.2q-.4.96-.84 1.6 2.642 1.441 4.122 2.602l-2.921 2.682q-1.401-1.201-3.482-2.442-1.961 1.961-4.803 3.522zm24.454-23.413h-6.524q1.921 1.12 3.162 2.361l-2.201 2.282 3.642-1.081.52 3.122-1 .36q.8.04 1.8.04.601-.04.601-.52zm-18.89 6.804l-.401.16h.72q.44-.04.48-.04.641 0 .641-.52v-6.404h-6.324q2.042 1.28 3.082 2.401l-2.361 2.362q.56-.16 1.76-.52 1.242-.36 1.922-.521zm25.334 16.61v3.881h-16.05v5.364H35.05v-5.364H19.32v-3.882h5.404q-2.001-1.8-3.322-2.481 5.163-2.121 7.204-5.683h-7.044v-3.763H35.05v-1.88l-.2.08q-1.281.56-5.363.56-.36-1.361-1.001-2.642-1.08.36-3.202 1.16-2.121.801-3.082 1.121l-1.84-3.522q.92-.2 5.883-1.56-1.321-1.361-4.123-3.242l1.601-1.561h-2.641v-3.682H36.53v10.085q0 1.681-.48 2.362h3.001l-1.28-2.362q1.24-.28 5.763-1.6-1.241-1.241-4.243-3.242l1.601-1.561h-2.682v-3.682h15.85v10.246q0 1.4-.36 2.12-.36.721-1.281 1.121-1.321.56-5.163.56-.24-.96-1.201-2.88-1 .36-3.082 1.16-2.041.8-3.002 1.12v1.721H53.98v3.763h-7.044l.28.04q-.4 1.12-1.04 2.12 4.723 2.082 6.884 3.483l-3.242 2.521zM83.037 196.747v2.602h-9.485v-2.602zm-18.53 23.974v-7.084q-.8 4.082-2.442 6.684-1.44-1.08-2.882-1.801 1.401-2.162 2.082-6.524l3.242.68v-1.8l-4.723.24-.32-3.483h2.521q.12-.12 1.721-2.08-1.56-1.522-4.122-3.243l1.88-2.801q.561.32.841.52 1.681-2.641 2.322-4.322l3.642 1.24q-2.962 4.283-3.402 4.843.64.52 1.04.84 1.241-1.8 1.881-2.921l3.602 1.52q-3.682 4.603-5.283 6.364l2.522-.04q-.16-.24-.4-.68l-.28-.56 2.761-1.281q1.961 3.042 2.682 5.283l-2.962 1.44q-.32-.96-.44-1.2l-1.681.08v2.321l2.681-1.08q1.481 2.601 2.081 5.043l-3.001 1.32q-.28-1.64-1.761-4.962v7.444zm24.133 7.724v-6.763h4.723v12.046H88.64v-1.08H68.55v1.28h-4.563v-12.086h4.563v6.603h7.604v-8.444h4.603v8.444zm-12.047-12.207h3.282v-1.8h-3.282zm17.97-5.763l-2.16.16v10.086H88.64v-7.524q-.84 4.242-2.641 6.924-1.321-.92-2.522-1.601v1.08h-3.602v-.72h-3.282v.72h-3.482v-7.764h10.366v6.003q1.241-2.201 1.801-5.763l3.362.72v-1.92l-4.802.24-.32-3.483h2.44q.361-.36 1.962-2.16-1.641-1.522-3.562-2.802v.68H72.03v-2.922h12.327v1.081l1.36-2.001.841.48q1.641-2.481 2.361-4.282l3.643 1.24q-2.442 3.482-3.482 4.803.92.72 1.12.92.2-.32.92-1.36.761-1.08 1.081-1.601l3.562 1.52q-3.161 3.883-5.563 6.364l2.882-.04q-.76-1.32-.8-1.36l2.801-1.361q2.161 2.922 2.962 5.403l-2.962 1.52q-.04-.16-.52-1.28zm-2.16 2.602l2.961-1.121q1.761 3.122 2.682 6.203l-3.082 1.401q-.72-2.721-2.562-6.483zm-18.931-2.402v-2.561h9.685v2.561zm9.685-6.243v2.561h-9.685v-2.561zM107.931 223.282l4.843 1.361q-1.4 2.522-3.602 4.883-2.201 2.361-4.483 3.922-1.68-1.68-4.002-3.202 4.843-2.801 7.244-6.964zm27.376-1h-13.088v6.924q0 1.76-.52 2.681-.48.96-1.72 1.441-1.842.72-6.925.64-.32-1.84-1.64-4.282 1.4.04 3.001.08 1.641 0 2.001-.04.88 0 .88-.64v-6.804H104.17v-4.363h31.138zm-9.606 3.322l4.043-2.322q5.363 4.163 8.124 7.645l-4.362 2.681q-2.482-3.562-7.805-8.004zm-17.73-21.212l-1.48 1.48q2.28 1.561 3.642 2.722.76-.76 1.48-1.68-1.68-1.322-3.642-2.522zm6.924-2.962h-4.522l-.48.6q1.48.8 3.601 2.282.841-1.521 1.401-2.882zm-.28 8.845h10.806q-3.282-4.162-5.323-10.326-1.84 6.084-5.483 10.326zm16.85-8.205h-5.844q1.241 2.522 2.682 4.363 1.52-1.761 3.162-4.363zm3.562-4.202l3.162 2.121q-2.842 5.443-6.924 9.566 3.322 2.841 8.164 4.362-1.8 1.681-3.041 4.122-5.243-1.92-8.765-5.323v1.921h-15.45v-1.8q-3.881 3.481-9.565 5.683-1.2-2.522-2.561-3.802 4.162-1.321 7.524-3.843-1.881-1.76-3.482-2.921-.24.16-.68.48-.44.32-.68.48-1.161-1.88-3.002-3.122 6.203-3.922 9.085-10.045l4.522.76q-.56 1.12-.88 1.681h4.122l.84-.16 2.362 1q-.12-.36-.32-1.04-.16-.72-.24-1.04l4.162-.841q.6 2.401 1.881 5.283v-3.242h8.805z" style="-inkscape-font-specification:'Gen Shin Gothic Bold'"/></g><circle cx="79.375" cy="217.625" r="68.672" fill="none" stroke="#fff" stroke-width="8.349" stroke-linecap="round" stroke-linejoin="round" paint-order="stroke fill markers"/><g aria-label="Super Crew" style="line-height:19.24671745px;-inkscape-font-specification:'Gen Shin Gothic Medium';text-align:center" font-weight="700" font-size="25.594" font-family="Roboto Condensed" letter-spacing="-1.304" word-spacing="0" text-anchor="middle" fill="#fffc32" stroke-width="1.706"><path d="M35.541 252.015q0-1.113-.575-1.675-.562-.575-2.062-1.187-2.737-1.037-3.936-2.425-1.2-1.4-1.2-3.299 0-2.3 1.624-3.686 1.638-1.4 4.15-1.4 1.674 0 2.986.712 1.312.7 2.012 1.987.713 1.287.713 2.925H35.59q0-1.275-.55-1.937-.537-.675-1.562-.675-.962 0-1.5.575-.537.562-.537 1.524 0 .75.6 1.362.6.6 2.124 1.25 2.662.962 3.862 2.362 1.212 1.4 1.212 3.562 0 2.374-1.512 3.711-1.512 1.337-4.112 1.337-1.762 0-3.211-.724-1.45-.725-2.275-2.075-.812-1.35-.812-3.187h3.687q0 1.575.612 2.287.612.713 2 .713 1.924 0 1.924-2.037zM46.871 255.551q-1.1 1.487-2.949 1.487-1.862 0-2.824-1.274-.962-1.287-.962-3.737v-8.76h3.536v8.848q.025 1.974 1.312 1.974 1.213 0 1.75-1.05v-9.772h3.562v13.521H46.97zM62.05 250.452q0 3.187-1.099 4.887-1.087 1.7-3.25 1.7-1.649 0-2.648-1.338v6.286h-3.537v-18.72h3.274l.125 1.237q1.012-1.487 2.762-1.487 2.162 0 3.25 1.574 1.099 1.575 1.124 4.824zm-3.523-.887q0-1.962-.438-2.774-.425-.812-1.45-.812-1.087 0-1.586.912v6.336q.474.875 1.612.875 1.05 0 1.45-.888.412-.887.412-2.762zM68.37 257.038q-2.724 0-4.249-1.624-1.525-1.625-1.525-4.65v-1.074q0-3.199 1.4-4.936t4.012-1.737q2.549 0 3.836 1.637 1.287 1.625 1.312 4.824v1.737h-7.035q.075 1.5.662 2.2.587.687 1.812.687 1.775 0 2.962-1.213l1.387 2.137q-.65.9-1.887 1.463-1.237.55-2.687.55zm-2.224-8.298h3.536v-.325q-.025-1.212-.4-1.837-.375-.624-1.3-.624-.924 0-1.35.662-.411.662-.486 2.124zM80.525 246.678l-1.175-.1q-1.45 0-1.962 1.275v8.935H73.84v-13.521h3.337l.1 1.462q.837-1.712 2.312-1.712.6 0 .975.162zM98.15 250.727q-.138 3.112-1.75 4.712-1.612 1.6-4.549 1.6-3.086 0-4.736-2.025-1.637-2.037-1.637-5.799v-3.061q0-3.75 1.7-5.774 1.699-2.037 4.723-2.037 2.975 0 4.512 1.662 1.55 1.662 1.762 4.774h-3.687q-.05-1.925-.6-2.65-.537-.737-1.987-.737-1.474 0-2.087 1.037-.612 1.025-.65 3.387v3.437q0 2.712.6 3.724.613 1.012 2.087 1.012 1.45 0 2-.7.55-.712.625-2.562zM105.606 246.678l-1.175-.1q-1.45 0-1.962 1.275v8.935H98.92v-13.521h3.337l.1 1.462q.837-1.712 2.312-1.712.6 0 .975.162zM111.538 257.038q-2.725 0-4.25-1.624-1.524-1.625-1.524-4.65v-1.074q0-3.199 1.4-4.936t4.011-1.737q2.55 0 3.837 1.637 1.287 1.625 1.312 4.824v1.737h-7.036q.075 1.5.663 2.2.587.687 1.812.687 1.774 0 2.962-1.213l1.387 2.137q-.65.9-1.887 1.463-1.238.55-2.687.55zm-2.225-8.298h3.537v-.325q-.025-1.212-.4-1.837-.375-.624-1.3-.624-.924 0-1.35.662-.412.662-.487 2.124zM126.867 250.852l1.212-7.585h3.387l-2.8 13.521h-2.936l-1.912-7.823-1.912 7.823h-2.95l-2.799-13.521h3.4l1.2 7.598 1.799-7.598h2.512z" style="-inkscape-font-specification:'Roboto Condensed, Bold';text-align:center"/></g><g aria-label="66TH" style="line-height:24.45521927px;-inkscape-font-specification:'Gen Shin Gothic Medium';text-align:center" font-weight="700" font-size="32.52" font-family="Roboto Condensed" letter-spacing="-1.657" word-spacing="0" text-anchor="middle" fill="#fffc32" stroke-width="2.168"><path d="M58.979 167.028v3.811h-.254q-2.525.016-4.018 1.525-1.476 1.492-1.794 4.192 1.445-1.652 3.62-1.652 2.51 0 4.002 2.144 1.509 2.144 1.509 5.716 0 2.271-.858 4.097-.857 1.826-2.414 2.842-1.54 1-3.493 1-3.144 0-5.05-2.524-1.889-2.525-1.889-6.796v-1.667q0-3.827 1.191-6.701 1.207-2.874 3.462-4.415 2.27-1.556 5.287-1.572zM55.12 178.62q-.857 0-1.445.54-.571.54-.857 1.334v1.62q0 2.445.65 3.651.652 1.207 1.716 1.207 1.08 0 1.73-1.159.652-1.175.652-3.001 0-1.858-.683-3.017-.667-1.175-1.763-1.175zM73.773 167.028v3.811h-.255q-2.524.016-4.017 1.525-1.477 1.492-1.794 4.192 1.445-1.652 3.62-1.652 2.509 0 4.002 2.144 1.508 2.144 1.508 5.716 0 2.271-.857 4.097-.858 1.826-2.414 2.842-1.54 1-3.493 1-3.144 0-5.05-2.524-1.89-2.525-1.89-6.796v-1.667q0-3.827 1.192-6.701 1.206-2.874 3.461-4.415 2.27-1.556 5.288-1.572zm-3.86 11.592q-.857 0-1.444.54-.572.54-.858 1.334v1.62q0 2.445.652 3.651.65 1.207 1.714 1.207 1.08 0 1.731-1.159.651-1.175.651-3.001 0-1.858-.683-3.017-.666-1.175-1.762-1.175zM93.171 171.157h-5.716v19.23H82.77v-19.23h-5.62v-3.89H93.17zM110.41 190.386h-4.653v-9.892h-6.891v9.892h-4.668v-23.12h4.668v9.353h6.891v-9.352h4.653z" style="-inkscape-font-specification:'Roboto Condensed, Bold';text-align:center"/></g></g></svg>